<svg width="401" height="178" viewBox="0 0 401 178" fill="none" xmlns="http://www.w3.org/2000/svg">
<path d="M101.432 138.118C101.432 138.672 101.576 139.216 101.851 139.696C102.126 140.175 102.522 140.574 102.998 140.85L115.133 147.914L115.134 147.914C115.61 148.19 116.149 148.335 116.698 148.335C117.248 148.335 117.787 148.19 118.263 147.914L118.263 147.914L130.402 140.854L130.404 140.853C130.879 140.574 131.272 140.175 131.546 139.695C131.82 139.216 131.964 138.672 131.965 138.119V138.119V123.992V123.991C131.963 123.438 131.818 122.895 131.545 122.415C131.271 121.936 130.878 121.537 130.404 121.257L130.402 121.256L118.263 114.197L118.263 114.196C117.787 113.92 117.248 113.775 116.698 113.775C116.149 113.775 115.61 113.92 115.134 114.196L115.133 114.197L102.998 121.256L102.997 121.257C102.522 121.536 102.127 121.935 101.853 122.414C101.579 122.894 101.434 123.437 101.432 123.991V123.992L101.432 138.118ZM101.432 138.118L101.799 138.119H101.432V138.118ZM129.136 123.449L129.138 123.45C129.233 123.504 129.312 123.583 129.367 123.679C129.423 123.774 129.452 123.882 129.453 123.993L129.446 138.118V138.118C129.445 138.228 129.417 138.336 129.362 138.432C129.307 138.527 129.229 138.607 129.136 138.662C129.135 138.662 129.135 138.662 129.135 138.662L117.005 145.725C116.911 145.779 116.806 145.808 116.698 145.808C116.591 145.808 116.485 145.779 116.392 145.725L104.27 138.663C104.27 138.662 104.269 138.662 104.269 138.662C104.176 138.607 104.098 138.528 104.044 138.433C103.99 138.337 103.962 138.229 103.962 138.119V138.119V123.992V123.99V123.988C103.961 123.879 103.988 123.771 104.041 123.676C104.093 123.582 104.169 123.503 104.26 123.447L116.392 116.385L116.392 116.385C116.485 116.331 116.591 116.302 116.698 116.302C116.806 116.302 116.911 116.331 117.005 116.385C117.005 116.385 117.005 116.385 117.005 116.385L129.136 123.449Z" fill="#FE5E24" stroke="#FE5E24"/>
<path d="M84.4119 166.702C84.4115 167.256 84.5559 167.8 84.8308 168.279C85.1057 168.759 85.5014 169.157 85.9781 169.434L98.113 176.497L98.1134 176.497C98.5893 176.773 99.1288 176.919 99.6781 176.919C100.227 176.919 100.767 176.773 101.243 176.497L101.243 176.497L113.382 169.437L113.383 169.437C113.858 169.158 114.252 168.759 114.526 168.279C114.799 167.799 114.944 167.256 114.944 166.702V166.702V152.575V152.574C114.943 152.021 114.798 151.478 114.525 150.999C114.251 150.52 113.858 150.12 113.384 149.841L113.382 149.84L101.243 142.78L101.243 142.78C100.767 142.504 100.227 142.359 99.6781 142.359C99.1288 142.359 98.5893 142.504 98.1134 142.78L98.113 142.78L85.9777 149.84L85.9766 149.841C85.5015 150.119 85.1072 150.518 84.8328 150.998C84.5583 151.477 84.4133 152.021 84.4119 152.574V152.575L84.4119 166.702ZM84.4119 166.702L84.7783 166.702H84.4119V166.702ZM112.116 152.032L112.117 152.033C112.212 152.088 112.292 152.167 112.347 152.263C112.403 152.358 112.432 152.466 112.433 152.577L112.426 166.701V166.701C112.425 166.812 112.396 166.92 112.342 167.016C112.287 167.111 112.209 167.19 112.115 167.246C112.115 167.246 112.115 167.246 112.115 167.246L99.9845 174.309C99.8912 174.363 99.7856 174.391 99.6781 174.391C99.5706 174.391 99.465 174.363 99.3717 174.309L87.2496 167.246C87.2493 167.246 87.249 167.246 87.2486 167.246C87.1555 167.19 87.078 167.111 87.0241 167.016C86.97 166.921 86.9415 166.813 86.9417 166.703V166.702V152.575V152.573V152.571C86.9405 152.462 86.9678 152.355 87.0205 152.26C87.0728 152.165 87.1483 152.086 87.2394 152.031L99.3717 144.969L99.3717 144.969C99.465 144.915 99.5706 144.886 99.6781 144.886C99.7855 144.886 99.8912 144.915 99.9845 144.969C99.9845 144.969 99.9845 144.969 99.9845 144.969L112.116 152.032Z" fill="#FE5E24" stroke="#FE5E24"/>
<path d="M35.69 155.788C35.6896 156.342 35.8341 156.886 36.109 157.365C36.3839 157.845 36.7795 158.243 37.2562 158.52L49.3911 165.583L49.3915 165.583C49.8674 165.859 50.407 166.005 50.9562 166.005C51.5055 166.005 52.045 165.859 52.5209 165.583L52.5212 165.583L64.6604 158.523L64.6616 158.523C65.1364 158.244 65.5302 157.845 65.8038 157.365C66.0776 156.885 66.2219 156.342 66.2224 155.788V155.788V141.661V141.66C66.221 141.107 66.0764 140.564 65.8028 140.085C65.5292 139.606 65.1362 139.206 64.6621 138.927L64.6604 138.926L52.5212 131.866L52.5209 131.866C52.045 131.59 51.5055 131.445 50.9562 131.445C50.407 131.445 49.8674 131.59 49.3915 131.866L49.3912 131.866L37.2558 138.926L37.2547 138.927C36.7796 139.205 36.3853 139.604 36.1109 140.084C35.8365 140.563 35.6914 141.107 35.69 141.66V141.661L35.69 155.788ZM35.69 155.788L36.0564 155.788H35.69V155.788ZM63.3941 141.118L63.3956 141.119C63.4906 141.174 63.5698 141.253 63.6252 141.349C63.6807 141.444 63.7102 141.552 63.7112 141.663L63.7039 155.787V155.787C63.7034 155.898 63.6746 156.006 63.6198 156.102C63.5654 156.197 63.4872 156.276 63.3934 156.332C63.3932 156.332 63.3932 156.332 63.3929 156.332L51.2626 163.395C51.1694 163.449 51.0637 163.477 50.9562 163.477C50.8487 163.477 50.7431 163.449 50.6498 163.395L38.5277 156.332C38.5274 156.332 38.5271 156.332 38.5268 156.332C38.4336 156.276 38.3561 156.197 38.3022 156.102C38.2481 156.007 38.2196 155.899 38.2198 155.789V155.788V141.661V141.659V141.657C38.2187 141.548 38.2459 141.441 38.2986 141.346C38.3509 141.251 38.4264 141.172 38.5176 141.117L50.6498 134.055L50.6498 134.055C50.7431 134.001 50.8488 133.972 50.9562 133.972C51.0637 133.972 51.1693 134.001 51.2626 134.055C51.2626 134.055 51.2626 134.055 51.2626 134.055L63.3941 141.118Z" fill="#FE5E24" stroke="#FE5E24"/>
<path d="M134.953 138.118C134.952 138.672 135.097 139.216 135.372 139.696C135.647 140.175 136.042 140.574 136.519 140.85L148.654 147.914L148.654 147.914C149.13 148.19 149.67 148.335 150.219 148.335C150.768 148.335 151.308 148.19 151.784 147.914L151.784 147.914L163.923 140.854L163.924 140.853C164.399 140.574 164.793 140.175 165.066 139.695C165.34 139.216 165.485 138.672 165.485 138.119V138.119V123.992V123.991C165.484 123.438 165.339 122.895 165.065 122.415C164.792 121.936 164.399 121.537 163.925 121.257L163.923 121.256L151.784 114.197L151.784 114.196C151.308 113.92 150.768 113.775 150.219 113.775C149.67 113.775 149.13 113.92 148.654 114.196L148.654 114.197L136.519 121.256L136.517 121.257C136.042 121.536 135.648 121.935 135.374 122.414C135.099 122.894 134.954 123.437 134.953 123.991V123.992L134.953 138.118ZM134.953 138.118L135.319 138.119H134.953V138.118ZM162.657 123.449L162.658 123.45C162.753 123.504 162.832 123.583 162.888 123.679C162.943 123.774 162.973 123.882 162.974 123.993L162.967 138.118V138.118C162.966 138.228 162.937 138.336 162.883 138.432C162.828 138.527 162.75 138.607 162.656 138.662C162.656 138.662 162.656 138.662 162.656 138.662L150.525 145.725C150.432 145.779 150.326 145.808 150.219 145.808C150.111 145.808 150.006 145.779 149.913 145.725L137.79 138.663C137.79 138.662 137.79 138.662 137.789 138.662C137.696 138.607 137.619 138.528 137.565 138.433C137.511 138.337 137.482 138.229 137.482 138.119V138.119V123.992V123.99V123.988C137.481 123.879 137.509 123.771 137.561 123.676C137.614 123.582 137.689 123.503 137.78 123.447L149.913 116.385L149.913 116.385C150.006 116.331 150.111 116.302 150.219 116.302C150.326 116.302 150.432 116.331 150.525 116.385C150.525 116.385 150.525 116.385 150.525 116.385L162.657 123.449Z" fill="#FE5E24" stroke="#FE5E24"/>
<path d="M168.473 138.118C168.473 138.672 168.618 139.216 168.892 139.696C169.167 140.175 169.563 140.574 170.04 140.85L182.175 147.914L182.175 147.914C182.651 148.19 183.19 148.335 183.74 148.335C184.289 148.335 184.828 148.19 185.304 147.914L185.305 147.914L197.444 140.854L197.445 140.853C197.92 140.574 198.314 140.175 198.587 139.695C198.861 139.216 199.005 138.672 199.006 138.119V138.119V123.992V123.991C199.004 123.438 198.86 122.895 198.586 122.415C198.313 121.936 197.92 121.537 197.446 121.257L197.444 121.256L185.305 114.197L185.304 114.196C184.828 113.92 184.289 113.775 183.74 113.775C183.19 113.775 182.651 113.92 182.175 114.196L182.175 114.197L170.039 121.256L170.038 121.257C169.563 121.536 169.169 121.935 168.894 122.414C168.62 122.894 168.475 123.437 168.473 123.991V123.992L168.473 138.118ZM168.473 138.118L168.84 138.119H168.473V138.118ZM196.178 123.449L196.179 123.45C196.274 123.504 196.353 123.583 196.409 123.679C196.464 123.774 196.494 123.882 196.495 123.993L196.487 138.118V138.118C196.487 138.228 196.458 138.336 196.403 138.432C196.349 138.527 196.271 138.607 196.177 138.662C196.177 138.662 196.177 138.662 196.176 138.662L184.046 145.725C183.953 145.779 183.847 145.808 183.74 145.808C183.632 145.808 183.527 145.779 183.433 145.725L171.311 138.663C171.311 138.662 171.311 138.662 171.31 138.662C171.217 138.607 171.14 138.528 171.086 138.433C171.032 138.337 171.003 138.229 171.003 138.119V138.119V123.992V123.99V123.988C171.002 123.879 171.029 123.771 171.082 123.676C171.134 123.582 171.21 123.503 171.301 123.447L183.433 116.385L183.433 116.385C183.527 116.331 183.632 116.302 183.74 116.302C183.847 116.302 183.953 116.331 184.046 116.385C184.046 116.385 184.046 116.385 184.046 116.385L196.178 123.449Z" fill="#FE5E24" stroke="#FE5E24"/>
<path d="M184.974 166.702C184.974 167.256 185.118 167.8 185.393 168.279C185.668 168.759 186.063 169.157 186.54 169.434L198.675 176.497L198.675 176.497C199.151 176.773 199.691 176.919 200.24 176.919C200.789 176.919 201.329 176.773 201.805 176.497L201.805 176.497L213.944 169.437L213.946 169.437C214.42 169.158 214.814 168.759 215.088 168.279C215.362 167.799 215.506 167.256 215.506 166.702V166.702V152.575V152.574C215.505 152.021 215.36 151.478 215.087 150.999C214.813 150.52 214.42 150.12 213.946 149.841L213.944 149.84L201.805 142.78L201.805 142.78C201.329 142.504 200.789 142.359 200.24 142.359C199.691 142.359 199.151 142.504 198.675 142.78L198.675 142.78L186.54 149.84L186.539 149.841C186.064 150.119 185.669 150.518 185.395 150.998C185.12 151.477 184.975 152.021 184.974 152.574V152.575L184.974 166.702ZM184.974 166.702L185.34 166.702H184.974V166.702ZM212.678 152.032L212.68 152.033C212.775 152.088 212.854 152.167 212.909 152.263C212.965 152.358 212.994 152.466 212.995 152.577L212.988 166.701V166.701C212.987 166.812 212.959 166.92 212.904 167.016C212.849 167.111 212.771 167.19 212.677 167.246C212.677 167.246 212.677 167.246 212.677 167.246L200.547 174.309C200.453 174.363 200.348 174.391 200.24 174.391C200.133 174.391 200.027 174.363 199.934 174.309L187.812 167.246C187.811 167.246 187.811 167.246 187.811 167.246C187.718 167.19 187.64 167.111 187.586 167.016C187.532 166.921 187.504 166.813 187.504 166.703V166.702V152.575V152.573V152.571C187.503 152.462 187.53 152.355 187.583 152.26C187.635 152.165 187.71 152.086 187.802 152.031L199.934 144.969L199.934 144.969C200.027 144.915 200.133 144.886 200.24 144.886C200.348 144.886 200.453 144.915 200.547 144.969C200.547 144.969 200.547 144.969 200.547 144.969L212.678 152.032Z" fill="#FE5E24" stroke="#FE5E24"/>
<path d="M218.495 166.702C218.494 167.256 218.639 167.8 218.914 168.279C219.188 168.759 219.584 169.157 220.061 169.434L232.196 176.497L232.196 176.497C232.672 176.773 233.212 176.919 233.761 176.919C234.31 176.919 234.85 176.773 235.325 176.497L235.326 176.497L247.465 169.437L247.466 169.437C247.941 169.158 248.335 168.759 248.608 168.279C248.882 167.799 249.026 167.256 249.027 166.702V166.702V152.575V152.574C249.026 152.021 248.881 151.478 248.607 150.999C248.334 150.52 247.941 150.12 247.467 149.841L247.465 149.84L235.326 142.78L235.325 142.78C234.85 142.504 234.31 142.359 233.761 142.359C233.212 142.359 232.672 142.504 232.196 142.78L232.196 142.78L220.06 149.84L220.059 149.841C219.584 150.119 219.19 150.518 218.915 150.998C218.641 151.477 218.496 152.021 218.495 152.574V152.575L218.495 166.702ZM218.495 166.702L218.861 166.702H218.495V166.702ZM246.199 152.032L246.2 152.033C246.295 152.088 246.374 152.167 246.43 152.263C246.485 152.358 246.515 152.466 246.516 152.577L246.508 166.701V166.701C246.508 166.812 246.479 166.92 246.424 167.016C246.37 167.111 246.292 167.19 246.198 167.246C246.198 167.246 246.198 167.246 246.197 167.246L234.067 174.309C233.974 174.363 233.868 174.391 233.761 174.391C233.653 174.391 233.548 174.363 233.454 174.309L221.332 167.246C221.332 167.246 221.332 167.246 221.331 167.246C221.238 167.19 221.161 167.111 221.107 167.016C221.053 166.921 221.024 166.813 221.024 166.703V166.702V152.575V152.573V152.571C221.023 152.462 221.05 152.355 221.103 152.26C221.155 152.165 221.231 152.086 221.322 152.031L233.454 144.969L233.454 144.969C233.548 144.915 233.653 144.886 233.761 144.886C233.868 144.886 233.974 144.915 234.067 144.969C234.067 144.969 234.067 144.969 234.067 144.969L246.199 152.032Z" fill="#FE5E24" stroke="#FE5E24"/>
<path d="M285.926 166.702C285.925 167.256 286.07 167.8 286.345 168.279C286.62 168.759 287.015 169.157 287.492 169.434L299.627 176.497L299.627 176.497C300.103 176.773 300.643 176.919 301.192 176.919C301.741 176.919 302.281 176.773 302.757 176.497L302.757 176.497L314.896 169.437L314.897 169.437C315.372 169.158 315.766 168.759 316.04 168.279C316.313 167.799 316.458 167.256 316.458 166.702V166.702V152.575V152.574C316.457 152.021 316.312 151.478 316.039 150.999C315.765 150.52 315.372 150.12 314.898 149.841L314.896 149.84L302.757 142.78L302.757 142.78C302.281 142.504 301.741 142.359 301.192 142.359C300.643 142.359 300.103 142.504 299.627 142.78L299.627 142.78L287.492 149.84L287.491 149.841C287.015 150.119 286.621 150.518 286.347 150.998C286.072 151.477 285.927 152.021 285.926 152.574V152.575L285.926 166.702ZM285.926 166.702L286.292 166.702H285.926V166.702ZM313.63 152.032L313.631 152.033C313.726 152.088 313.806 152.167 313.861 152.263C313.916 152.358 313.946 152.466 313.947 152.577L313.94 166.701V166.701C313.939 166.812 313.91 166.92 313.856 167.016C313.801 167.111 313.723 167.19 313.629 167.246C313.629 167.246 313.629 167.246 313.629 167.246L301.498 174.309C301.405 174.363 301.299 174.391 301.192 174.391C301.085 174.391 300.979 174.363 300.886 174.309L288.764 167.246C288.763 167.246 288.763 167.246 288.763 167.246C288.669 167.19 288.592 167.111 288.538 167.016C288.484 166.921 288.455 166.813 288.456 166.703V166.702V152.575V152.573V152.571C288.454 152.462 288.482 152.355 288.534 152.26C288.587 152.165 288.662 152.086 288.753 152.031L300.886 144.969L300.886 144.969C300.979 144.915 301.085 144.886 301.192 144.886C301.299 144.886 301.405 144.915 301.498 144.969C301.498 144.969 301.498 144.969 301.498 144.969L313.63 152.032Z" fill="#FE5E24" stroke="#FE5E24"/>
<path d="M201.474 138.508C201.474 139.062 201.619 139.606 201.893 140.085C202.168 140.565 202.564 140.963 203.041 141.24L215.176 148.303L215.176 148.303C215.652 148.579 216.191 148.725 216.741 148.725C217.29 148.725 217.829 148.579 218.305 148.303L218.306 148.303L230.445 141.243L230.446 141.243C230.921 140.964 231.315 140.565 231.588 140.085C231.862 139.605 232.006 139.062 232.007 138.508V138.508V124.381V124.38C232.005 123.827 231.861 123.284 231.587 122.805C231.314 122.326 230.921 121.926 230.447 121.647L230.445 121.646L218.306 114.586L218.305 114.586C217.829 114.31 217.29 114.165 216.741 114.165C216.191 114.165 215.652 114.31 215.176 114.586L215.176 114.586L203.04 121.646L203.039 121.647C202.564 121.925 202.17 122.324 201.895 122.804C201.621 123.283 201.476 123.827 201.474 124.38V124.381L201.474 138.508ZM201.474 138.508L201.841 138.508H201.474V138.508ZM229.179 123.838L229.18 123.839C229.275 123.894 229.354 123.973 229.41 124.069C229.465 124.164 229.495 124.272 229.496 124.383L229.488 138.507V138.507C229.488 138.618 229.459 138.726 229.404 138.822C229.35 138.917 229.272 138.996 229.178 139.052C229.178 139.052 229.178 139.052 229.177 139.052L217.047 146.115C216.954 146.169 216.848 146.197 216.741 146.197C216.633 146.197 216.528 146.169 216.434 146.115L204.312 139.052C204.312 139.052 204.312 139.052 204.311 139.052C204.218 138.996 204.141 138.917 204.087 138.822C204.033 138.727 204.004 138.619 204.004 138.509V138.508V124.381V124.379V124.377C204.003 124.268 204.03 124.161 204.083 124.066C204.135 123.971 204.211 123.892 204.302 123.837L216.434 116.775L216.434 116.775C216.528 116.721 216.633 116.692 216.741 116.692C216.848 116.692 216.954 116.721 217.047 116.775C217.047 116.775 217.047 116.775 217.047 116.775L229.179 123.838Z" fill="#FE5E24" stroke="#FE5E24"/>
<path d="M234.995 138.118C234.995 138.672 235.139 139.216 235.414 139.696C235.689 140.175 236.085 140.574 236.561 140.85L248.696 147.914L248.697 147.914C249.173 148.19 249.712 148.335 250.261 148.335C250.811 148.335 251.35 148.19 251.826 147.914L251.826 147.914L263.966 140.854L263.967 140.853C264.442 140.574 264.835 140.175 265.109 139.695C265.383 139.216 265.527 138.672 265.528 138.119V138.119V123.992V123.991C265.526 123.438 265.382 122.895 265.108 122.415C264.834 121.936 264.441 121.537 263.967 121.257L263.966 121.256L251.826 114.197L251.826 114.196C251.35 113.92 250.811 113.775 250.261 113.775C249.712 113.775 249.173 113.92 248.697 114.196L248.696 114.197L236.561 121.256L236.56 121.257C236.085 121.536 235.691 121.935 235.416 122.414C235.142 122.894 234.997 123.437 234.995 123.991V123.992L234.995 138.118ZM234.995 138.118L235.362 138.119H234.995V138.118ZM262.699 123.449L262.701 123.45C262.796 123.504 262.875 123.583 262.93 123.679C262.986 123.774 263.015 123.882 263.016 123.993L263.009 138.118V138.118C263.009 138.228 262.98 138.336 262.925 138.432C262.871 138.527 262.792 138.607 262.699 138.662C262.698 138.662 262.698 138.662 262.698 138.662L250.568 145.725C250.475 145.779 250.369 145.808 250.261 145.808C250.154 145.808 250.048 145.779 249.955 145.725L237.833 138.663C237.833 138.662 237.832 138.662 237.832 138.662C237.739 138.607 237.661 138.528 237.607 138.433C237.553 138.337 237.525 138.229 237.525 138.119V138.119V123.992V123.99V123.988C237.524 123.879 237.551 123.771 237.604 123.676C237.656 123.582 237.732 123.503 237.823 123.447L249.955 116.385L249.955 116.385C250.048 116.331 250.154 116.302 250.261 116.302C250.369 116.302 250.475 116.331 250.568 116.385C250.568 116.385 250.568 116.385 250.568 116.385L262.699 123.449Z" fill="#FE5E24" stroke="#FE5E24"/>
<path d="M268.906 138.508C268.905 139.062 269.05 139.606 269.325 140.085C269.599 140.565 269.995 140.963 270.472 141.24L282.607 148.303L282.607 148.303C283.083 148.579 283.623 148.725 284.172 148.725C284.721 148.725 285.261 148.579 285.736 148.303L285.737 148.303L297.876 141.243L297.877 141.243C298.352 140.964 298.746 140.565 299.019 140.085C299.293 139.605 299.437 139.062 299.438 138.508V138.508V124.381V124.38C299.437 123.827 299.292 123.284 299.018 122.805C298.745 122.326 298.352 121.926 297.878 121.647L297.876 121.646L285.737 114.586L285.736 114.586C285.261 114.31 284.721 114.165 284.172 114.165C283.623 114.165 283.083 114.31 282.607 114.586L282.607 114.586L270.471 121.646L270.47 121.647C269.995 121.925 269.601 122.324 269.326 122.804C269.052 123.283 268.907 123.827 268.906 124.38V124.381L268.906 138.508ZM268.906 138.508L269.272 138.508H268.906V138.508ZM296.61 123.838L296.611 123.839C296.706 123.894 296.785 123.973 296.841 124.069C296.896 124.164 296.926 124.272 296.927 124.383L296.919 138.507V138.507C296.919 138.618 296.89 138.726 296.835 138.822C296.781 138.917 296.703 138.996 296.609 139.052C296.609 139.052 296.609 139.052 296.608 139.052L284.478 146.115C284.385 146.169 284.279 146.197 284.172 146.197C284.064 146.197 283.959 146.169 283.865 146.115L271.743 139.052C271.743 139.052 271.743 139.052 271.742 139.052C271.649 138.996 271.572 138.917 271.518 138.822C271.464 138.727 271.435 138.619 271.435 138.509V138.508V124.381V124.379V124.377C271.434 124.268 271.461 124.161 271.514 124.066C271.566 123.971 271.642 123.892 271.733 123.837L283.865 116.775L283.865 116.775C283.959 116.721 284.064 116.692 284.172 116.692C284.279 116.692 284.385 116.721 284.478 116.775C284.478 116.775 284.478 116.775 284.478 116.775L296.61 123.838Z" fill="#FE5E24" stroke="#FE5E24"/>
<path d="M302.426 138.508C302.426 139.062 302.57 139.606 302.845 140.085C303.12 140.565 303.516 140.963 303.992 141.24L316.127 148.303L316.128 148.303C316.604 148.579 317.143 148.725 317.692 148.725C318.242 148.725 318.781 148.579 319.257 148.303L319.257 148.303L331.397 141.243L331.398 141.243C331.873 140.964 332.266 140.565 332.54 140.085C332.814 139.605 332.958 139.062 332.959 138.508V138.508V124.381V124.38C332.957 123.827 332.813 123.284 332.539 122.805C332.265 122.326 331.872 121.926 331.398 121.647L331.397 121.646L319.257 114.586L319.257 114.586C318.781 114.31 318.242 114.165 317.692 114.165C317.143 114.165 316.604 114.31 316.128 114.586L316.127 114.586L303.992 121.646L303.991 121.647C303.516 121.925 303.121 122.324 302.847 122.804C302.573 123.283 302.428 123.827 302.426 124.38V124.381L302.426 138.508ZM302.426 138.508L302.793 138.508H302.426V138.508ZM330.13 123.838L330.132 123.839C330.227 123.894 330.306 123.973 330.361 124.069C330.417 124.164 330.446 124.272 330.447 124.383L330.44 138.507V138.507C330.44 138.618 330.411 138.726 330.356 138.822C330.302 138.917 330.223 138.996 330.13 139.052C330.129 139.052 330.129 139.052 330.129 139.052L317.999 146.115C317.906 146.169 317.8 146.197 317.692 146.197C317.585 146.197 317.479 146.169 317.386 146.115L305.264 139.052C305.264 139.052 305.263 139.052 305.263 139.052C305.17 138.996 305.092 138.917 305.038 138.822C304.984 138.727 304.956 138.619 304.956 138.509V138.508V124.381V124.379V124.377C304.955 124.268 304.982 124.161 305.035 124.066C305.087 123.971 305.163 123.892 305.254 123.837L317.386 116.775L317.386 116.775C317.479 116.721 317.585 116.692 317.692 116.692C317.8 116.692 317.905 116.721 317.999 116.775C317.999 116.775 317.999 116.775 317.999 116.775L330.13 123.838Z" fill="#FE5E24" stroke="#FE5E24"/>
<path d="M151.453 109.924C151.453 110.478 151.597 111.022 151.872 111.502C152.147 111.982 152.543 112.38 153.02 112.656L165.154 119.72L165.155 119.72C165.631 119.996 166.17 120.141 166.72 120.141C167.269 120.141 167.808 119.996 168.284 119.72L168.285 119.72L180.424 112.66L180.425 112.659C180.9 112.38 181.294 111.981 181.567 111.501C181.841 111.022 181.985 110.478 181.986 109.925V109.925V95.7977V95.7968C181.984 95.244 181.84 94.701 181.566 94.2216C181.293 93.7422 180.9 93.343 180.425 93.0636L180.424 93.0625L168.285 86.0028L168.284 86.0026C167.808 85.7265 167.269 85.5812 166.72 85.5812C166.17 85.5812 165.631 85.7265 165.155 86.0026L165.154 86.0028L153.019 93.0625L153.018 93.0631C152.543 93.3417 152.149 93.7407 151.874 94.2203C151.6 94.6999 151.455 95.2434 151.453 95.7968V95.7977L151.453 109.924ZM151.453 109.924L151.82 109.925H151.453V109.924ZM179.157 95.2549L179.159 95.2557C179.254 95.3104 179.333 95.3894 179.389 95.485C179.444 95.5803 179.474 95.6886 179.475 95.7991L179.467 109.924V109.924C179.467 110.035 179.438 110.143 179.383 110.238C179.329 110.334 179.251 110.413 179.157 110.468C179.157 110.468 179.157 110.468 179.156 110.468L167.026 117.531C166.933 117.585 166.827 117.614 166.72 117.614C166.612 117.614 166.506 117.585 166.413 117.531L154.291 110.469C154.291 110.469 154.29 110.468 154.29 110.468C154.197 110.413 154.119 110.334 154.066 110.239C154.011 110.144 153.983 110.035 153.983 109.925V109.925V95.7977V95.7959V95.794C153.982 95.6847 154.009 95.5772 154.062 95.4821C154.114 95.3877 154.19 95.3089 154.281 95.2531L166.413 88.1914L166.413 88.1914C166.506 88.1371 166.612 88.1086 166.72 88.1086C166.827 88.1086 166.933 88.1371 167.026 88.1914C167.026 88.1914 167.026 88.1914 167.026 88.1914L179.157 95.2549Z" fill="#FE5E24" stroke="#FE5E24"/>
<path d="M184.974 109.924C184.974 110.478 185.118 111.022 185.393 111.502C185.668 111.982 186.063 112.38 186.54 112.656L198.675 119.72L198.675 119.72C199.151 119.996 199.691 120.141 200.24 120.141C200.789 120.141 201.329 119.996 201.805 119.72L201.805 119.72L213.944 112.66L213.946 112.659C214.42 112.38 214.814 111.981 215.088 111.501C215.362 111.022 215.506 110.478 215.506 109.925V109.925V95.7977V95.7968C215.505 95.244 215.36 94.701 215.087 94.2216C214.813 93.7422 214.42 93.343 213.946 93.0636L213.944 93.0625L201.805 86.0028L201.805 86.0026C201.329 85.7265 200.789 85.5812 200.24 85.5812C199.691 85.5812 199.151 85.7265 198.675 86.0026L198.675 86.0028L186.54 93.0625L186.539 93.0631C186.064 93.3417 185.669 93.7407 185.395 94.2203C185.12 94.6999 184.975 95.2434 184.974 95.7968V95.7977L184.974 109.924ZM184.974 109.924L185.34 109.925H184.974V109.924ZM212.678 95.2549L212.68 95.2557C212.775 95.3104 212.854 95.3894 212.909 95.485C212.965 95.5803 212.994 95.6886 212.995 95.7991L212.988 109.924V109.924C212.987 110.035 212.959 110.143 212.904 110.238C212.849 110.334 212.771 110.413 212.677 110.468C212.677 110.468 212.677 110.468 212.677 110.468L200.547 117.531C200.453 117.585 200.348 117.614 200.24 117.614C200.133 117.614 200.027 117.585 199.934 117.531L187.812 110.469C187.811 110.469 187.811 110.468 187.811 110.468C187.718 110.413 187.64 110.334 187.586 110.239C187.532 110.144 187.504 110.035 187.504 109.925V109.925V95.7977V95.7959V95.794C187.503 95.6847 187.53 95.5772 187.583 95.4821C187.635 95.3877 187.71 95.3089 187.802 95.2531L199.934 88.1914L199.934 88.1914C200.027 88.1371 200.133 88.1086 200.24 88.1086C200.348 88.1086 200.453 88.1371 200.547 88.1914C200.547 88.1914 200.547 88.1914 200.547 88.1914L212.678 95.2549Z" fill="#FE5E24" stroke="#FE5E24"/>
<path d="M218.495 109.924C218.494 110.478 218.639 111.022 218.914 111.502C219.188 111.982 219.584 112.38 220.061 112.656L232.196 119.72L232.196 119.72C232.672 119.996 233.212 120.141 233.761 120.141C234.31 120.141 234.85 119.996 235.325 119.72L235.326 119.72L247.465 112.66L247.466 112.659C247.941 112.38 248.335 111.981 248.608 111.501C248.882 111.022 249.026 110.478 249.027 109.925V109.925V95.7977V95.7968C249.026 95.244 248.881 94.701 248.607 94.2216C248.334 93.7422 247.941 93.343 247.467 93.0636L247.465 93.0625L235.326 86.0028L235.325 86.0026C234.85 85.7265 234.31 85.5812 233.761 85.5812C233.212 85.5812 232.672 85.7265 232.196 86.0026L232.196 86.0028L220.06 93.0625L220.059 93.0631C219.584 93.3417 219.19 93.7407 218.915 94.2203C218.641 94.6999 218.496 95.2434 218.495 95.7968V95.7977L218.495 109.924ZM218.495 109.924L218.861 109.925H218.495V109.924ZM246.199 95.2549L246.2 95.2557C246.295 95.3104 246.374 95.3894 246.43 95.485C246.485 95.5803 246.515 95.6886 246.516 95.7991L246.508 109.924V109.924C246.508 110.035 246.479 110.143 246.424 110.238C246.37 110.334 246.292 110.413 246.198 110.468C246.198 110.468 246.198 110.468 246.197 110.468L234.067 117.531C233.974 117.585 233.868 117.614 233.761 117.614C233.653 117.614 233.548 117.585 233.454 117.531L221.332 110.469C221.332 110.469 221.332 110.468 221.331 110.468C221.238 110.413 221.161 110.334 221.107 110.239C221.053 110.144 221.024 110.035 221.024 109.925V109.925V95.7977V95.7959V95.794C221.023 95.6847 221.05 95.5772 221.103 95.4821C221.155 95.3877 221.231 95.3089 221.322 95.2531L233.454 88.1914L233.454 88.1914C233.548 88.1371 233.653 88.1086 233.761 88.1086C233.868 88.1086 233.974 88.1371 234.067 88.1914C234.067 88.1914 234.067 88.1914 234.067 88.1914L246.199 95.2549Z" fill="#FE5E24" stroke="#FE5E24"/>
<path d="M252.015 110.444C252.015 110.998 252.159 111.542 252.434 112.022C252.709 112.501 253.105 112.9 253.582 113.176L265.716 120.239L265.717 120.24C266.193 120.515 266.732 120.661 267.282 120.661C267.831 120.661 268.37 120.515 268.846 120.24L268.847 120.239L280.986 113.179L280.987 113.179C281.462 112.9 281.855 112.501 282.129 112.021C282.403 111.541 282.547 110.998 282.548 110.445V110.444V96.3173V96.3164C282.546 95.7635 282.402 95.2206 282.128 94.7412C281.854 94.2618 281.461 93.8625 280.987 93.5832L280.986 93.5821L268.847 86.5224L268.846 86.5222C268.37 86.2461 267.831 86.1008 267.282 86.1008C266.732 86.1008 266.193 86.2461 265.717 86.5222L265.716 86.5224L253.581 93.5821L253.58 93.5827C253.105 93.8613 252.711 94.2603 252.436 94.7399C252.162 95.2195 252.017 95.763 252.015 96.3164V96.3173L252.015 110.444ZM252.015 110.444L252.382 110.444H252.015V110.444ZM279.719 95.7745L279.721 95.7753C279.816 95.83 279.895 95.909 279.95 96.0046C280.006 96.0999 280.036 96.2081 280.036 96.3187L280.029 110.443V110.444C280.029 110.554 280 110.662 279.945 110.758C279.891 110.853 279.812 110.932 279.719 110.988C279.718 110.988 279.718 110.988 279.718 110.988L267.588 118.051C267.495 118.105 267.389 118.133 267.282 118.133C267.174 118.133 267.068 118.105 266.975 118.051L254.853 110.988C254.853 110.988 254.852 110.988 254.852 110.988C254.759 110.933 254.681 110.853 254.628 110.759C254.573 110.663 254.545 110.555 254.545 110.445V110.444V96.3173V96.3155V96.3136C254.544 96.2043 254.571 96.0968 254.624 96.0016C254.676 95.9073 254.752 95.8285 254.843 95.7727L266.975 88.711L266.975 88.711C267.068 88.6567 267.174 88.6282 267.282 88.6282C267.389 88.6282 267.495 88.6567 267.588 88.711C267.588 88.711 267.588 88.711 267.588 88.711L279.719 95.7745Z" fill="#FE5E24" stroke="#FE5E24"/>
<path d="M285.926 109.924C285.925 110.478 286.07 111.022 286.345 111.502C286.62 111.982 287.015 112.38 287.492 112.656L299.627 119.72L299.627 119.72C300.103 119.996 300.643 120.141 301.192 120.141C301.741 120.141 302.281 119.996 302.757 119.72L302.757 119.72L314.896 112.66L314.897 112.659C315.372 112.38 315.766 111.981 316.04 111.501C316.313 111.022 316.458 110.478 316.458 109.925V109.925V95.7977V95.7968C316.457 95.244 316.312 94.701 316.039 94.2216C315.765 93.7422 315.372 93.343 314.898 93.0636L314.896 93.0625L302.757 86.0028L302.757 86.0026C302.281 85.7265 301.741 85.5812 301.192 85.5812C300.643 85.5812 300.103 85.7265 299.627 86.0026L299.627 86.0028L287.492 93.0625L287.491 93.0631C287.015 93.3417 286.621 93.7407 286.347 94.2203C286.072 94.6999 285.927 95.2434 285.926 95.7968V95.7977L285.926 109.924ZM285.926 109.924L286.292 109.925H285.926V109.924ZM313.63 95.2549L313.631 95.2557C313.726 95.3104 313.806 95.3894 313.861 95.485C313.916 95.5803 313.946 95.6886 313.947 95.7991L313.94 109.924V109.924C313.939 110.035 313.91 110.143 313.856 110.238C313.801 110.334 313.723 110.413 313.629 110.468C313.629 110.468 313.629 110.468 313.629 110.468L301.498 117.531C301.405 117.585 301.299 117.614 301.192 117.614C301.085 117.614 300.979 117.585 300.886 117.531L288.764 110.469C288.763 110.469 288.763 110.468 288.763 110.468C288.669 110.413 288.592 110.334 288.538 110.239C288.484 110.144 288.455 110.035 288.456 109.925V109.925V95.7977V95.7959V95.794C288.454 95.6847 288.482 95.5772 288.534 95.4821C288.587 95.3877 288.662 95.3089 288.753 95.2531L300.886 88.1914L300.886 88.1914C300.979 88.1371 301.085 88.1086 301.192 88.1086C301.299 88.1086 301.405 88.1371 301.498 88.1914C301.498 88.1914 301.498 88.1914 301.498 88.1914L313.63 95.2549Z" fill="#FE5E24" stroke="#FE5E24"/>
<path d="M319.446 110.444C319.446 110.998 319.59 111.542 319.865 112.022C320.14 112.501 320.536 112.9 321.013 113.176L333.147 120.239L333.148 120.24C333.624 120.515 334.163 120.661 334.713 120.661C335.262 120.661 335.801 120.515 336.277 120.24L336.278 120.239L348.417 113.179L348.418 113.179C348.893 112.9 349.287 112.501 349.56 112.021C349.834 111.541 349.978 110.998 349.979 110.445V110.444V96.3173V96.3164C349.977 95.7635 349.833 95.2206 349.559 94.7412C349.286 94.2618 348.893 93.8625 348.418 93.5832L348.417 93.5821L336.278 86.5224L336.277 86.5222C335.801 86.2461 335.262 86.1008 334.713 86.1008C334.163 86.1008 333.624 86.2461 333.148 86.5222L333.148 86.5224L321.012 93.5821L321.011 93.5827C320.536 93.8613 320.142 94.2603 319.867 94.7399C319.593 95.2195 319.448 95.763 319.446 96.3164V96.3173L319.446 110.444ZM319.446 110.444L319.813 110.444H319.446V110.444ZM347.151 95.7745L347.152 95.7753C347.247 95.83 347.326 95.909 347.382 96.0046C347.437 96.0999 347.467 96.2081 347.468 96.3187L347.46 110.443V110.444C347.46 110.554 347.431 110.662 347.376 110.758C347.322 110.853 347.244 110.932 347.15 110.988C347.15 110.988 347.15 110.988 347.149 110.988L335.019 118.051C334.926 118.105 334.82 118.133 334.713 118.133C334.605 118.133 334.499 118.105 334.406 118.051L322.284 110.988C322.284 110.988 322.283 110.988 322.283 110.988C322.19 110.933 322.113 110.853 322.059 110.759C322.004 110.663 321.976 110.555 321.976 110.445V110.444V96.3173V96.3155V96.3136C321.975 96.2043 322.002 96.0968 322.055 96.0016C322.107 95.9073 322.183 95.8285 322.274 95.7727L334.406 88.711L334.406 88.711C334.499 88.6567 334.605 88.6282 334.713 88.6282C334.82 88.6282 334.926 88.6567 335.019 88.711C335.019 88.711 335.019 88.711 335.019 88.711L347.151 95.7745Z" fill="#FE5E24" stroke="#FE5E24"/>
<path d="M352.967 110.444C352.967 110.998 353.111 111.542 353.386 112.022C353.661 112.501 354.057 112.9 354.533 113.176L366.668 120.239L366.669 120.24C367.145 120.515 367.684 120.661 368.233 120.661C368.783 120.661 369.322 120.515 369.798 120.24L369.798 120.239L381.938 113.179L381.939 113.179C382.414 112.9 382.807 112.501 383.081 112.021C383.355 111.541 383.499 110.998 383.5 110.445V110.444V96.3173V96.3164C383.498 95.7635 383.353 95.2206 383.08 94.7412C382.806 94.2618 382.413 93.8625 381.939 93.5832L381.938 93.5821L369.798 86.5224L369.798 86.5222C369.322 86.2461 368.783 86.1008 368.233 86.1008C367.684 86.1008 367.145 86.2461 366.669 86.5222L366.668 86.5224L354.533 93.5821L354.532 93.5827C354.057 93.8613 353.662 94.2603 353.388 94.7399C353.114 95.2195 352.969 95.763 352.967 96.3164V96.3173L352.967 110.444ZM352.967 110.444L353.334 110.444H352.967V110.444ZM380.671 95.7745L380.673 95.7753C380.768 95.83 380.847 95.909 380.902 96.0046C380.958 96.0999 380.987 96.2081 380.988 96.3187L380.981 110.443V110.444C380.981 110.554 380.952 110.662 380.897 110.758C380.843 110.853 380.764 110.932 380.671 110.988C380.67 110.988 380.67 110.988 380.67 110.988L368.54 118.051C368.447 118.105 368.341 118.133 368.233 118.133C368.126 118.133 368.02 118.105 367.927 118.051L355.805 110.988C355.805 110.988 355.804 110.988 355.804 110.988C355.711 110.933 355.633 110.853 355.579 110.759C355.525 110.663 355.497 110.555 355.497 110.445V110.444V96.3173V96.3155V96.3136C355.496 96.2043 355.523 96.0968 355.576 96.0016C355.628 95.9073 355.704 95.8285 355.795 95.7727L367.927 88.711L367.927 88.711C368.02 88.6567 368.126 88.6282 368.233 88.6282C368.341 88.6282 368.446 88.6567 368.54 88.711C368.54 88.711 368.54 88.711 368.54 88.711L380.671 95.7745Z" fill="#FE5E24" stroke="#FE5E24"/>
<path d="M369.468 138.508C369.467 139.062 369.612 139.606 369.886 140.085C370.161 140.565 370.557 140.963 371.034 141.24L383.169 148.303L383.169 148.303C383.645 148.579 384.184 148.725 384.734 148.725C385.283 148.725 385.823 148.579 386.298 148.303L386.299 148.303L398.438 141.243L398.439 141.243C398.914 140.964 399.308 140.565 399.581 140.085C399.855 139.605 399.999 139.062 400 138.508V138.508V124.381V124.38C399.998 123.827 399.854 123.284 399.58 122.805C399.307 122.326 398.914 121.926 398.44 121.647L398.438 121.646L386.299 114.586L386.298 114.586C385.823 114.31 385.283 114.165 384.734 114.165C384.184 114.165 383.645 114.31 383.169 114.586L383.169 114.586L371.033 121.646L371.032 121.647C370.557 121.925 370.163 122.324 369.888 122.804C369.614 123.283 369.469 123.827 369.468 124.38V124.381L369.468 138.508ZM369.468 138.508L369.834 138.508H369.468V138.508ZM397.172 123.838L397.173 123.839C397.268 123.894 397.347 123.973 397.403 124.069C397.458 124.164 397.488 124.272 397.489 124.383L397.481 138.507V138.507C397.481 138.618 397.452 138.726 397.397 138.822C397.343 138.917 397.265 138.996 397.171 139.052C397.171 139.052 397.171 139.052 397.17 139.052L385.04 146.115C384.947 146.169 384.841 146.197 384.734 146.197C384.626 146.197 384.521 146.169 384.427 146.115L372.305 139.052C372.305 139.052 372.305 139.052 372.304 139.052C372.211 138.996 372.134 138.917 372.08 138.822C372.026 138.727 371.997 138.619 371.997 138.509V138.508V124.381V124.379V124.377C371.996 124.268 372.023 124.161 372.076 124.066C372.128 123.971 372.204 123.892 372.295 123.837L384.427 116.775L384.427 116.775C384.521 116.721 384.626 116.692 384.734 116.692C384.841 116.692 384.947 116.721 385.04 116.775C385.04 116.775 385.04 116.775 385.04 116.775L397.172 123.838Z" fill="#FE5E24" stroke="#FE5E24"/>
<path d="M352.967 166.702C352.967 167.256 353.111 167.8 353.386 168.279C353.661 168.759 354.057 169.157 354.533 169.434L366.668 176.497L366.669 176.497C367.145 176.773 367.684 176.919 368.233 176.919C368.783 176.919 369.322 176.773 369.798 176.497L369.798 176.497L381.938 169.437L381.939 169.437C382.414 169.158 382.807 168.759 383.081 168.279C383.355 167.799 383.499 167.256 383.5 166.702V166.702V152.575V152.574C383.498 152.021 383.353 151.478 383.08 150.999C382.806 150.52 382.413 150.12 381.939 149.841L381.938 149.84L369.798 142.78L369.798 142.78C369.322 142.504 368.783 142.359 368.233 142.359C367.684 142.359 367.145 142.504 366.669 142.78L366.668 142.78L354.533 149.84L354.532 149.841C354.057 150.119 353.662 150.518 353.388 150.998C353.114 151.477 352.969 152.021 352.967 152.574V152.575L352.967 166.702ZM352.967 166.702L353.334 166.702H352.967V166.702ZM380.671 152.032L380.673 152.033C380.768 152.088 380.847 152.167 380.902 152.263C380.958 152.358 380.987 152.466 380.988 152.577L380.981 166.701V166.701C380.981 166.812 380.952 166.92 380.897 167.016C380.843 167.111 380.764 167.19 380.671 167.246C380.67 167.246 380.67 167.246 380.67 167.246L368.54 174.309C368.447 174.363 368.341 174.391 368.233 174.391C368.126 174.391 368.02 174.363 367.927 174.309L355.805 167.246C355.805 167.246 355.804 167.246 355.804 167.246C355.711 167.19 355.633 167.111 355.579 167.016C355.525 166.921 355.497 166.813 355.497 166.703V166.702V152.575V152.573V152.571C355.496 152.462 355.523 152.355 355.576 152.26C355.628 152.165 355.704 152.086 355.795 152.031L367.927 144.969L367.927 144.969C368.02 144.915 368.126 144.886 368.233 144.886C368.341 144.886 368.446 144.915 368.54 144.969C368.54 144.969 368.54 144.969 368.54 144.969L380.671 152.032Z" fill="#FE5E24" stroke="#FE5E24"/>
<path d="M117.933 110.054C117.932 110.608 118.077 111.152 118.352 111.632C118.626 112.112 119.022 112.51 119.499 112.786L131.634 119.85L131.634 119.85C132.11 120.126 132.65 120.271 133.199 120.271C133.748 120.271 134.288 120.126 134.763 119.85L134.764 119.85L146.903 112.79L146.904 112.789C147.379 112.51 147.773 112.111 148.046 111.631C148.32 111.152 148.465 110.608 148.465 110.055V110.055V95.9277V95.9268C148.464 95.3739 148.319 94.8309 148.045 94.3515C147.772 93.8721 147.379 93.4729 146.905 93.1935L146.903 93.1924L134.764 86.1327L134.763 86.1325C134.288 85.8565 133.748 85.7111 133.199 85.7111C132.65 85.7111 132.11 85.8565 131.634 86.1325L131.634 86.1327L119.498 93.1924L119.497 93.1931C119.022 93.4716 118.628 93.8707 118.354 94.3502C118.079 94.8298 117.934 95.3733 117.933 95.9267V95.9277L117.933 110.054ZM117.933 110.054L118.299 110.055H117.933V110.054ZM145.637 95.3848L145.638 95.3857C145.733 95.4404 145.812 95.5194 145.868 95.615C145.923 95.7102 145.953 95.8185 145.954 95.9291L145.946 110.054V110.054C145.946 110.164 145.917 110.273 145.862 110.368C145.808 110.463 145.73 110.543 145.636 110.598C145.636 110.598 145.636 110.598 145.636 110.598L133.505 117.661C133.412 117.715 133.306 117.744 133.199 117.744C133.091 117.744 132.986 117.715 132.892 117.661L120.77 110.599C120.77 110.599 120.77 110.598 120.769 110.598C120.676 110.543 120.599 110.464 120.545 110.369C120.491 110.274 120.462 110.165 120.462 110.055V110.055V95.9277V95.9258V95.9239C120.461 95.8147 120.488 95.7071 120.541 95.612C120.594 95.5177 120.669 95.4389 120.76 95.383L132.892 88.3214L132.892 88.3214C132.986 88.2671 133.091 88.2386 133.199 88.2386C133.306 88.2386 133.412 88.2671 133.505 88.3214C133.505 88.3214 133.505 88.3214 133.505 88.3214L145.637 95.3848Z" fill="#FE5E24" stroke="#FE5E24"/>
<path d="M50.8913 110.444C50.8908 110.998 51.0353 111.542 51.3102 112.022C51.5851 112.501 51.9808 112.9 52.4575 113.176L64.5923 120.239L64.5928 120.24C65.0687 120.515 65.6082 120.661 66.1575 120.661C66.7067 120.661 67.2463 120.515 67.7221 120.24L67.7225 120.239L79.8616 113.179L79.8629 113.179C80.3377 112.9 80.7314 112.501 81.005 112.021C81.2788 111.541 81.4232 110.998 81.4237 110.445V110.444V96.3173V96.3164C81.4222 95.7635 81.2776 95.2206 81.004 94.7412C80.7305 94.2618 80.3374 93.8625 79.8633 93.5832L79.8616 93.5821L67.7225 86.5224L67.7221 86.5222C67.2463 86.2461 66.7067 86.1008 66.1575 86.1008C65.6082 86.1008 65.0687 86.2461 64.5928 86.5222L64.5924 86.5224L52.4571 93.5821L52.456 93.5827C51.9809 93.8613 51.5866 94.2603 51.3121 94.7399C51.0377 95.2195 50.8927 95.763 50.8913 96.3164V96.3173L50.8913 110.444ZM50.8913 110.444L51.2577 110.444H50.8913V110.444ZM78.5954 95.7745L78.5969 95.7753C78.6919 95.83 78.771 95.909 78.8265 96.0046C78.8819 96.0999 78.9115 96.2081 78.9124 96.3187L78.9051 110.443V110.444C78.9046 110.554 78.8758 110.662 78.8211 110.758C78.7666 110.853 78.6885 110.932 78.5947 110.988C78.5944 110.988 78.5944 110.988 78.5942 110.988L66.4639 118.051C66.3706 118.105 66.2649 118.133 66.1575 118.133C66.05 118.133 65.9443 118.105 65.8511 118.051L53.729 110.988C53.7287 110.988 53.7283 110.988 53.728 110.988C53.6349 110.933 53.5574 110.853 53.5035 110.759C53.4493 110.663 53.4209 110.555 53.421 110.445V110.444V96.3173V96.3155V96.3136C53.4199 96.2043 53.4471 96.0968 53.4999 96.0016C53.5522 95.9073 53.6277 95.8285 53.7188 95.7727L65.851 88.711L65.8511 88.711C65.9443 88.6567 66.05 88.6282 66.1575 88.6282C66.2649 88.6282 66.3706 88.6567 66.4638 88.711C66.4639 88.711 66.4639 88.711 66.4639 88.711L78.5954 95.7745Z" fill="#FE5E24" stroke="#FE5E24"/>
<path d="M67.9115 138.508C67.9111 139.062 68.0555 139.606 68.3304 140.085C68.6054 140.565 69.001 140.963 69.4777 141.24L81.6126 148.303L81.613 148.303C82.0889 148.579 82.6285 148.725 83.1777 148.725C83.7269 148.725 84.2665 148.579 84.7424 148.303L84.7427 148.303L96.8819 141.243L96.8831 141.243C97.3579 140.964 97.7517 140.565 98.0252 140.085C98.2991 139.605 98.4434 139.062 98.4439 138.508V138.508V124.381V124.38C98.4424 123.827 98.2978 123.284 98.0243 122.805C97.7507 122.326 97.3577 121.926 96.8836 121.647L96.8819 121.646L84.7427 114.586L84.7424 114.586C84.2665 114.31 83.7269 114.165 83.1777 114.165C82.6285 114.165 82.0889 114.31 81.613 114.586L81.6126 114.586L69.4773 121.646L69.4762 121.647C69.0011 121.925 68.6068 122.324 68.3324 122.804C68.058 123.283 67.9129 123.827 67.9115 124.38V124.381L67.9115 138.508ZM67.9115 138.508L68.2779 138.508H67.9115V138.508ZM95.6156 123.838L95.6171 123.839C95.7121 123.894 95.7912 123.973 95.8467 124.069C95.9021 124.164 95.9317 124.272 95.9327 124.383L95.9253 138.507V138.507C95.9249 138.618 95.896 138.726 95.8413 138.822C95.7868 138.917 95.7087 138.996 95.6149 139.052C95.6146 139.052 95.6146 139.052 95.6144 139.052L83.4841 146.115C83.3908 146.169 83.2852 146.197 83.1777 146.197C83.0702 146.197 82.9646 146.169 82.8713 146.115L70.7492 139.052C70.7489 139.052 70.7486 139.052 70.7483 139.052C70.6551 138.996 70.5776 138.917 70.5237 138.822C70.4696 138.727 70.4411 138.619 70.4413 138.509V138.508V124.381V124.379V124.377C70.4401 124.268 70.4674 124.161 70.5201 124.066C70.5724 123.971 70.6479 123.892 70.739 123.837L82.8713 116.775L82.8713 116.775C82.9646 116.721 83.0703 116.692 83.1777 116.692C83.2852 116.692 83.3908 116.721 83.4841 116.775C83.4841 116.775 83.4841 116.775 83.4841 116.775L95.6156 123.838Z" fill="#FE5E24" stroke="#FE5E24"/>
<path d="M84.4119 110.444C84.4115 110.998 84.5559 111.542 84.8308 112.022C85.1057 112.501 85.5014 112.9 85.9781 113.176L98.113 120.239L98.1134 120.24C98.5893 120.515 99.1288 120.661 99.6781 120.661C100.227 120.661 100.767 120.515 101.243 120.24L101.243 120.239L113.382 113.179L113.383 113.179C113.858 112.9 114.252 112.501 114.526 112.021C114.799 111.541 114.944 110.998 114.944 110.445V110.444V96.3173V96.3164C114.943 95.7635 114.798 95.2206 114.525 94.7412C114.251 94.2618 113.858 93.8625 113.384 93.5832L113.382 93.5821L101.243 86.5224L101.243 86.5222C100.767 86.2461 100.227 86.1008 99.6781 86.1008C99.1288 86.1008 98.5893 86.2461 98.1134 86.5222L98.113 86.5224L85.9777 93.5821L85.9766 93.5827C85.5015 93.8613 85.1072 94.2603 84.8328 94.7399C84.5583 95.2195 84.4133 95.763 84.4119 96.3164V96.3173L84.4119 110.444ZM84.4119 110.444L84.7783 110.444H84.4119V110.444ZM112.116 95.7745L112.117 95.7753C112.212 95.83 112.292 95.909 112.347 96.0046C112.403 96.0999 112.432 96.2081 112.433 96.3187L112.426 110.443V110.444C112.425 110.554 112.396 110.662 112.342 110.758C112.287 110.853 112.209 110.932 112.115 110.988C112.115 110.988 112.115 110.988 112.115 110.988L99.9845 118.051C99.8912 118.105 99.7856 118.133 99.6781 118.133C99.5706 118.133 99.465 118.105 99.3717 118.051L87.2496 110.988C87.2493 110.988 87.249 110.988 87.2486 110.988C87.1555 110.933 87.078 110.853 87.0241 110.759C86.97 110.663 86.9415 110.555 86.9417 110.445V110.444V96.3173V96.3155V96.3136C86.9405 96.2043 86.9678 96.0968 87.0205 96.0016C87.0728 95.9073 87.1483 95.8285 87.2394 95.7727L99.3717 88.711L99.3717 88.711C99.465 88.6567 99.5706 88.6282 99.6781 88.6282C99.7855 88.6282 99.8912 88.6567 99.9845 88.711C99.9845 88.711 99.9845 88.711 99.9845 88.711L112.116 95.7745Z" fill="#FE5E24" stroke="#FE5E24"/>
<path d="M168.344 81.8606C168.343 82.4143 168.488 82.9584 168.763 83.4381C169.037 83.9177 169.433 84.316 169.91 84.5925L182.045 91.6558L182.045 91.656C182.521 91.932 183.061 92.0774 183.61 92.0774C184.159 92.0774 184.699 91.932 185.174 91.656L185.175 91.6558L197.314 84.596L197.315 84.5952C197.79 84.3165 198.184 83.9172 198.457 83.4376C198.731 82.9579 198.876 82.4143 198.876 81.861V81.8608V67.7338V67.7329C198.875 67.18 198.73 66.6371 198.456 66.1577C198.183 65.6783 197.79 65.279 197.316 64.9997L197.314 64.9986L185.175 57.9389L185.174 57.9387C184.699 57.6626 184.159 57.5173 183.61 57.5173C183.061 57.5173 182.521 57.6626 182.045 57.9387L182.045 57.9389L169.909 64.9986L169.908 64.9992C169.433 65.2778 169.039 65.6768 168.764 66.1564C168.49 66.636 168.345 67.1795 168.344 67.7329V67.7338L168.344 81.8606ZM168.344 81.8606L168.71 81.8608H168.344V81.8606ZM196.048 67.191L196.049 67.1918C196.144 67.2465 196.223 67.3255 196.279 67.4211C196.334 67.5164 196.364 67.6246 196.365 67.7352L196.357 81.8598V81.8601C196.357 81.9706 196.328 82.0787 196.273 82.1743C196.219 82.2696 196.141 82.3488 196.047 82.4042C196.047 82.4042 196.047 82.4042 196.047 82.4045L183.916 89.4672C183.823 89.5214 183.717 89.5498 183.61 89.5498C183.502 89.5498 183.397 89.5214 183.303 89.4672L171.181 82.4049C171.181 82.4047 171.181 82.4045 171.18 82.4042C171.087 82.3491 171.01 82.2699 170.956 82.175C170.902 82.0797 170.873 81.9713 170.873 81.8613V81.8608V67.7338V67.732V67.7301C170.872 67.6208 170.899 67.5133 170.952 67.4181C171.005 67.3238 171.08 67.245 171.171 67.1892L183.303 60.1275L183.303 60.1275C183.397 60.0732 183.502 60.0447 183.61 60.0447C183.717 60.0447 183.823 60.0732 183.916 60.1275C183.916 60.1275 183.916 60.1275 183.916 60.1275L196.048 67.191Z" fill="#FE5E24" stroke="#FE5E24"/>
<path d="M201.864 82.3806C201.864 82.9343 202.008 83.4785 202.283 83.9581C202.558 84.4378 202.954 84.8361 203.43 85.1126L215.565 92.1758L215.566 92.1761C216.042 92.4521 216.581 92.5974 217.13 92.5974C217.68 92.5974 218.219 92.4521 218.695 92.1761L218.695 92.1758L230.835 85.116L230.836 85.1153C231.311 84.8366 231.704 84.4373 231.978 83.9577C232.252 83.478 232.396 82.9343 232.397 82.3811V82.3809V68.2539V68.253C232.395 67.7001 232.251 67.1571 231.977 66.6778C231.703 66.1984 231.31 65.7991 230.836 65.5198L230.835 65.5187L218.695 58.4589L218.695 58.4587C218.219 58.1827 217.68 58.0374 217.13 58.0374C216.581 58.0374 216.042 58.1827 215.566 58.4587L215.565 58.459L203.43 65.5187L203.429 65.5193C202.954 65.7979 202.56 66.1969 202.285 66.6765C202.011 67.156 201.866 67.6995 201.864 68.253V68.2539L201.864 82.3806ZM201.864 82.3806L202.231 82.3809H201.864V82.3806ZM229.568 67.7111L229.57 67.7119C229.665 67.7666 229.744 67.8456 229.799 67.9412C229.855 68.0364 229.884 68.1447 229.885 68.2553L229.878 82.3799V82.3801C229.878 82.4907 229.849 82.5988 229.794 82.6944C229.74 82.7897 229.661 82.8689 229.568 82.9243C229.567 82.9243 229.567 82.9243 229.567 82.9245L217.437 89.9873C217.344 90.0415 217.238 90.0699 217.13 90.0699C217.023 90.0699 216.917 90.0415 216.824 89.9873L204.702 82.925C204.702 82.9248 204.701 82.9245 204.701 82.9243C204.608 82.8691 204.53 82.79 204.476 82.6951C204.422 82.5998 204.394 82.4914 204.394 82.3814V82.3809V68.2539V68.252V68.2502C204.393 68.1409 204.42 68.0334 204.473 67.9382C204.525 67.8439 204.601 67.7651 204.692 67.7093L216.824 60.6476L216.824 60.6476C216.917 60.5933 217.023 60.5648 217.13 60.5648C217.238 60.5648 217.344 60.5933 217.437 60.6476C217.437 60.6476 217.437 60.6476 217.437 60.6476L229.568 67.7111Z" fill="#FE5E24" stroke="#FE5E24"/>
<path d="M134.823 81.9907C134.822 82.5444 134.967 83.0886 135.242 83.5683C135.517 84.0479 135.912 84.4462 136.389 84.7227L148.524 91.786L148.524 91.7862C149 92.0622 149.54 92.2075 150.089 92.2075C150.638 92.2075 151.178 92.0622 151.654 91.7862L151.654 91.786L163.793 84.7261L163.794 84.7254C164.269 84.4467 164.663 84.0474 164.937 83.5678C165.21 83.0881 165.355 82.5444 165.355 81.9912V81.991V67.864V67.8631C165.354 67.3102 165.209 66.7673 164.936 66.2879C164.662 65.8085 164.269 65.4092 163.795 65.1299L163.793 65.1288L151.654 58.0691L151.654 58.0688C151.178 57.7928 150.638 57.6475 150.089 57.6475C149.54 57.6475 149 57.7928 148.524 58.0688L148.524 58.0691L136.389 65.1288L136.387 65.1294C135.912 65.408 135.518 65.807 135.244 66.2866C134.969 66.7661 134.824 67.3096 134.823 67.8631V67.864L134.823 81.9907ZM134.823 81.9907L135.189 81.991H134.823V81.9907ZM162.527 67.3212L162.528 67.322C162.623 67.3767 162.703 67.4557 162.758 67.5513C162.813 67.6465 162.843 67.7548 162.844 67.8654L162.837 81.99V81.9903C162.836 82.1008 162.807 82.2089 162.753 82.3045C162.698 82.3998 162.62 82.479 162.526 82.5344C162.526 82.5344 162.526 82.5344 162.526 82.5346L150.395 89.5974C150.302 89.6516 150.196 89.68 150.089 89.68C149.981 89.68 149.876 89.6516 149.783 89.5974L137.66 82.5351C137.66 82.5349 137.66 82.5346 137.66 82.5344C137.566 82.4792 137.489 82.4001 137.435 82.3052C137.381 82.2099 137.352 82.1015 137.353 81.9915V81.991V67.864V67.8621V67.8603C137.351 67.751 137.379 67.6435 137.431 67.5483C137.484 67.454 137.559 67.3752 137.65 67.3194L149.783 60.2577L149.783 60.2577C149.876 60.2034 149.982 60.1749 150.089 60.1749C150.196 60.1749 150.302 60.2034 150.395 60.2577C150.395 60.2577 150.395 60.2577 150.395 60.2577L162.527 67.3212Z" fill="#FE5E24" stroke="#FE5E24"/>
<path d="M118.062 54.1867C118.062 54.7404 118.207 55.2846 118.481 55.7642C118.756 56.2439 119.152 56.6422 119.629 56.9187L131.764 63.9819L131.764 63.9822C132.24 64.2582 132.779 64.4035 133.329 64.4035C133.878 64.4035 134.417 64.2582 134.893 63.9822L134.894 63.9819L147.033 56.9221L147.034 56.9214C147.509 56.6427 147.903 56.2434 148.176 55.7637C148.45 55.2841 148.594 54.7404 148.595 54.1872V54.187V40.06V40.0591C148.593 39.5062 148.449 38.9632 148.175 38.4839C147.902 38.0045 147.509 37.6052 147.035 37.3258L147.033 37.3248L134.894 30.265L134.893 30.2648C134.417 29.9888 133.878 29.8434 133.329 29.8434C132.779 29.8434 132.24 29.9888 131.764 30.2648L131.764 30.2651L119.628 37.3248L119.627 37.3254C119.152 37.604 118.758 38.003 118.483 38.4826C118.209 38.9621 118.064 39.5056 118.062 40.0591V40.06L118.062 54.1867ZM118.062 54.1867L118.429 54.187H118.062V54.1867ZM145.767 39.5172L145.768 39.518C145.863 39.5727 145.942 39.6517 145.998 39.7473C146.053 39.8425 146.083 39.9508 146.084 40.0614L146.076 54.186V54.1862C146.076 54.2968 146.047 54.4049 145.992 54.5005C145.938 54.5958 145.86 54.675 145.766 54.7304C145.766 54.7304 145.766 54.7304 145.765 54.7306L133.635 61.7934C133.542 61.8475 133.436 61.876 133.329 61.876C133.221 61.876 133.116 61.8475 133.022 61.7934L120.9 54.7311C120.9 54.7309 120.9 54.7306 120.899 54.7304C120.806 54.6752 120.729 54.5961 120.675 54.5012C120.621 54.4059 120.592 54.2975 120.592 54.1875V54.187V40.06V40.0581V40.0562C120.591 39.947 120.618 39.8395 120.671 39.7443C120.723 39.65 120.799 39.5712 120.89 39.5154L133.022 32.4537L133.022 32.4537C133.116 32.3994 133.221 32.3709 133.329 32.3709C133.436 32.3709 133.542 32.3994 133.635 32.4537C133.635 32.4537 133.635 32.4537 133.635 32.4537L145.767 39.5172Z" fill="#FE5E24" stroke="#FE5E24"/>
<path d="M218.495 53.1473C218.494 53.701 218.639 54.2451 218.914 54.7248C219.188 55.2045 219.584 55.6028 220.061 55.8793L232.196 62.9425L232.196 62.9428C232.672 63.2187 233.212 63.3641 233.761 63.3641C234.31 63.3641 234.85 63.2187 235.325 62.9428L235.326 62.9425L247.465 55.8827L247.466 55.882C247.941 55.6033 248.335 55.204 248.608 54.7243C248.882 54.2446 249.026 53.701 249.027 53.1478V53.1475V39.0206V39.0197C249.026 38.4668 248.881 37.9238 248.607 37.4444C248.334 36.965 247.941 36.5658 247.467 36.2864L247.465 36.2853L235.326 29.2256L235.325 29.2254C234.85 28.9494 234.31 28.804 233.761 28.804C233.212 28.804 232.672 28.9494 232.196 29.2254L232.196 29.2256L220.06 36.2853L220.059 36.286C219.584 36.5645 219.19 36.9636 218.915 37.4431C218.641 37.9227 218.496 38.4662 218.495 39.0196V39.0206L218.495 53.1473ZM218.495 53.1473L218.861 53.1475H218.495V53.1473ZM246.199 38.4777L246.2 38.4786C246.295 38.5333 246.374 38.6123 246.43 38.7079C246.485 38.8031 246.515 38.9114 246.516 39.022L246.508 53.1466V53.1468C246.508 53.2574 246.479 53.3654 246.424 53.461C246.37 53.5564 246.292 53.6356 246.198 53.691C246.198 53.691 246.198 53.691 246.197 53.6912L234.067 60.754C233.974 60.8081 233.868 60.8366 233.761 60.8366C233.653 60.8366 233.548 60.8081 233.454 60.754L221.332 53.6917C221.332 53.6914 221.332 53.6912 221.331 53.691C221.238 53.6358 221.161 53.5566 221.107 53.4618C221.053 53.3664 221.024 53.2581 221.024 53.148V53.1475V39.0206V39.0187V39.0168C221.023 38.9076 221.05 38.8 221.103 38.7049C221.155 38.6106 221.231 38.5317 221.322 38.4759L233.454 31.4143L233.454 31.4143C233.548 31.36 233.653 31.3315 233.761 31.3315C233.868 31.3315 233.974 31.36 234.067 31.4143C234.067 31.4143 234.067 31.4143 234.067 31.4143L246.199 38.4777Z" fill="#FE5E24" stroke="#FE5E24"/>
<path d="M67.7815 82.3806C67.7811 82.9343 67.9256 83.4785 68.2005 83.9581C68.4754 84.4378 68.8711 84.8361 69.3477 85.1126L81.4826 92.1758L81.4831 92.1761C81.959 92.4521 82.4985 92.5974 83.0477 92.5974C83.597 92.5974 84.1365 92.4521 84.6124 92.1761L84.6128 92.1758L96.7519 85.116L96.7531 85.1153C97.228 84.8366 97.6217 84.4373 97.8953 83.9577C98.1691 83.478 98.3135 82.9343 98.3139 82.3811V82.3809V68.2539V68.253C98.3125 67.7001 98.1679 67.1571 97.8943 66.6778C97.6207 66.1984 97.2277 65.7991 96.7536 65.5198L96.7519 65.5187L84.6128 58.4589L84.6124 58.4587C84.1365 58.1827 83.597 58.0374 83.0477 58.0374C82.4985 58.0374 81.959 58.1827 81.4831 58.4587L81.4827 58.459L69.3473 65.5187L69.3463 65.5193C68.8711 65.7979 68.4769 66.1969 68.2024 66.6765C67.928 67.156 67.7829 67.6995 67.7815 68.253V68.2539L67.7815 82.3806ZM67.7815 82.3806L68.1479 82.3809H67.7815V82.3806ZM95.4857 67.7111L95.4871 67.7119C95.5821 67.7666 95.6613 67.8456 95.7167 67.9412C95.7722 68.0364 95.8017 68.1447 95.8027 68.2553L95.7954 82.3799V82.3801C95.7949 82.4907 95.7661 82.5988 95.7114 82.6944C95.6569 82.7897 95.5787 82.8689 95.4849 82.9243C95.4847 82.9243 95.4847 82.9243 95.4844 82.9245L83.3541 89.9873C83.2609 90.0415 83.1552 90.0699 83.0477 90.0699C82.9403 90.0699 82.8346 90.0415 82.7413 89.9873L70.6192 82.925C70.6189 82.9248 70.6186 82.9245 70.6183 82.9243C70.5251 82.8691 70.4477 82.79 70.3937 82.6951C70.3396 82.5998 70.3112 82.4914 70.3113 82.3814V82.3809V68.2539V68.252V68.2502C70.3102 68.1409 70.3374 68.0334 70.3902 67.9382C70.4425 67.8439 70.5179 67.7651 70.6091 67.7093L82.7413 60.6476L82.7413 60.6476C82.8346 60.5933 82.9403 60.5648 83.0477 60.5648C83.1552 60.5648 83.2609 60.5933 83.3541 60.6476C83.3541 60.6476 83.3541 60.6476 83.3541 60.6476L95.4857 67.7111Z" fill="#FE5E24" stroke="#FE5E24"/>
<path d="M1 82.3806C0.999583 82.9343 1.14405 83.4785 1.41895 83.9581C1.69386 84.4378 2.08953 84.8361 2.5662 85.1126L14.7011 92.1758L14.7015 92.1761C15.1774 92.4521 15.717 92.5974 16.2662 92.5974C16.8154 92.5974 17.355 92.4521 17.8309 92.1761L17.8312 92.1758L29.9704 85.116L29.9716 85.1153C30.4464 84.8366 30.8402 84.4373 31.1137 83.9577C31.3876 83.478 31.5319 82.9343 31.5324 82.3811V82.3809V68.2539V68.253C31.5309 67.7001 31.3863 67.1571 31.1128 66.6778C30.8392 66.1984 30.4462 65.7991 29.9721 65.5198L29.9704 65.5187L17.8312 58.4589L17.8309 58.4587C17.355 58.1827 16.8154 58.0374 16.2662 58.0374C15.717 58.0374 15.1774 58.1827 14.7015 58.4587L14.7011 58.459L2.5658 65.5187L2.56472 65.5193C2.08961 65.7979 1.69531 66.1969 1.42088 66.6765C1.14646 67.156 1.0014 67.6995 1 68.253V68.2539L1 82.3806ZM1 82.3806L1.36639 82.3809H1V82.3806ZM28.7041 67.7111L28.7056 67.7119C28.8006 67.7666 28.8797 67.8456 28.9352 67.9412C28.9906 68.0364 29.0202 68.1447 29.0212 68.2553L29.0138 82.3799V82.3801C29.0134 82.4907 28.9845 82.5988 28.9298 82.6944C28.8754 82.7897 28.7972 82.8689 28.7034 82.9243C28.7031 82.9243 28.7031 82.9243 28.7029 82.9245L16.5726 89.9873C16.4793 90.0415 16.3737 90.0699 16.2662 90.0699C16.1587 90.0699 16.0531 90.0415 15.9598 89.9873L3.83771 82.925C3.83739 82.9248 3.83707 82.9245 3.83675 82.9243C3.74359 82.8691 3.66611 82.79 3.61221 82.6951C3.55808 82.5998 3.52962 82.4914 3.52977 82.3814V82.3809V68.2539V68.252V68.2502C3.52865 68.1409 3.55588 68.0334 3.60862 67.9382C3.66091 67.8439 3.73639 67.7651 3.82755 67.7093L15.9598 60.6476L15.9598 60.6476C16.0531 60.5933 16.1588 60.5648 16.2662 60.5648C16.3737 60.5648 16.4793 60.5933 16.5726 60.6476C16.5726 60.6476 16.5726 60.6476 16.5726 60.6476L28.7041 67.7111Z" fill="#FE5E24" stroke="#FE5E24"/>
<path d="M51.1512 54.1867C51.1508 54.7404 51.2952 55.2846 51.5701 55.7642C51.845 56.2439 52.2407 56.6422 52.7174 56.9187L64.8522 63.9819L64.8527 63.9822C65.3286 64.2582 65.8681 64.4035 66.4174 64.4035C66.9666 64.4035 67.5062 64.2582 67.982 63.9822L67.9824 63.9819L80.1215 56.9221L80.1228 56.9214C80.5976 56.6427 80.9914 56.2434 81.2649 55.7637C81.5387 55.2841 81.6831 54.7404 81.6836 54.1872V54.187V40.06V40.0591C81.6821 39.5062 81.5375 38.9632 81.2639 38.4839C80.9904 38.0045 80.5974 37.6052 80.1233 37.3258L80.1215 37.3248L67.9824 30.265L67.9821 30.2648C67.5062 29.9888 66.9666 29.8434 66.4174 29.8434C65.8681 29.8434 65.3286 29.9888 64.8527 30.2648L64.8523 30.2651L52.717 37.3248L52.7159 37.3254C52.2408 37.604 51.8465 38.003 51.5721 38.4826C51.2976 38.9621 51.1526 39.5056 51.1512 40.0591V40.06L51.1512 54.1867ZM51.1512 54.1867L51.5176 54.187H51.1512V54.1867ZM78.8553 39.5172L78.8568 39.518C78.9518 39.5727 79.0309 39.6517 79.0864 39.7473C79.1418 39.8425 79.1714 39.9508 79.1724 40.0614L79.165 54.186V54.1862C79.1645 54.2968 79.1357 54.4049 79.081 54.5005C79.0265 54.5958 78.9484 54.675 78.8546 54.7304C78.8543 54.7304 78.8543 54.7304 78.8541 54.7306L66.7238 61.7934C66.6305 61.8475 66.5249 61.876 66.4174 61.876C66.3099 61.876 66.2042 61.8475 66.111 61.7934L53.9889 54.7311C53.9886 54.7309 53.9883 54.7306 53.9879 54.7304C53.8948 54.6752 53.8173 54.5961 53.7634 54.5012C53.7093 54.4059 53.6808 54.2975 53.681 54.1875V54.187V40.06V40.0581V40.0562C53.6798 39.947 53.7071 39.8395 53.7598 39.7443C53.8121 39.65 53.8876 39.5712 53.9787 39.5154L66.111 32.4537L66.111 32.4537C66.2042 32.3994 66.3099 32.3709 66.4174 32.3709C66.5248 32.3709 66.6305 32.3994 66.7238 32.4537C66.7238 32.4537 66.7238 32.4537 66.7238 32.4537L78.8553 39.5172Z" fill="#FE5E24" stroke="#FE5E24"/>
<path d="M101.302 82.3806C101.302 82.9343 101.446 83.4785 101.721 83.9581C101.996 84.4378 102.392 84.8361 102.868 85.1126L115.003 92.1758L115.004 92.1761C115.48 92.4521 116.019 92.5974 116.568 92.5974C117.118 92.5974 117.657 92.4521 118.133 92.1761L118.133 92.1758L130.273 85.116L130.274 85.1153C130.749 84.8366 131.142 84.4373 131.416 83.9577C131.69 83.478 131.834 82.9343 131.835 82.3811V82.3809V68.2539V68.253C131.833 67.7001 131.688 67.1571 131.415 66.6778C131.141 66.1984 130.748 65.7991 130.274 65.5198L130.273 65.5187L118.133 58.4589L118.133 58.4587C117.657 58.1827 117.118 58.0374 116.568 58.0374C116.019 58.0374 115.48 58.1827 115.004 58.4587L115.003 58.459L102.868 65.5187L102.867 65.5193C102.392 65.7979 101.997 66.1969 101.723 66.6765C101.449 67.156 101.304 67.6995 101.302 68.253V68.2539L101.302 82.3806ZM101.302 82.3806L101.669 82.3809H101.302V82.3806ZM129.006 67.7111L129.008 67.7119C129.103 67.7666 129.182 67.8456 129.237 67.9412C129.293 68.0364 129.322 68.1447 129.323 68.2553L129.316 82.3799V82.3801C129.316 82.4907 129.287 82.5988 129.232 82.6944C129.178 82.7897 129.099 82.8689 129.006 82.9243C129.005 82.9243 129.005 82.9243 129.005 82.9245L116.875 89.9873C116.781 90.0415 116.676 90.0699 116.568 90.0699C116.461 90.0699 116.355 90.0415 116.262 89.9873L104.14 82.925C104.14 82.9248 104.139 82.9245 104.139 82.9243C104.046 82.8691 103.968 82.79 103.914 82.6951C103.86 82.5998 103.832 82.4914 103.832 82.3814V82.3809V68.2539V68.252V68.2502C103.831 68.1409 103.858 68.0334 103.911 67.9382C103.963 67.8439 104.039 67.7651 104.13 67.7093L116.262 60.6476L116.262 60.6476C116.355 60.5933 116.461 60.5648 116.568 60.5648C116.676 60.5648 116.781 60.5933 116.875 60.6476C116.875 60.6476 116.875 60.6476 116.875 60.6476L129.006 67.7111Z" fill="#FE5E24" stroke="#FE5E24"/>
<path d="M302.816 81.341C302.816 81.8947 302.96 82.4388 303.235 82.9185C303.51 83.3981 303.905 83.7964 304.382 84.0729L316.517 91.1362L316.517 91.1364C316.993 91.4124 317.533 91.5578 318.082 91.5578C318.631 91.5578 319.171 91.4124 319.647 91.1364L319.647 91.1362L331.786 84.0764L331.788 84.0756C332.262 83.7969 332.656 83.3977 332.93 82.918C333.204 82.4383 333.348 81.8947 333.348 81.3415V81.3412V67.2142V67.2133C333.347 66.6605 333.202 66.1175 332.929 65.6381C332.655 65.1587 332.262 64.7595 331.788 64.4801L331.786 64.479L319.647 57.4193L319.647 57.4191C319.171 57.143 318.631 56.9977 318.082 56.9977C317.533 56.9977 316.993 57.143 316.517 57.4191L316.517 57.4193L304.382 64.479L304.381 64.4796C303.906 64.7582 303.511 65.1572 303.237 65.6368C302.962 66.1164 302.817 66.6599 302.816 67.2133V67.2142L302.816 81.341ZM302.816 81.341L303.182 81.3412H302.816V81.341ZM330.52 66.6714L330.522 66.6722C330.617 66.7269 330.696 66.806 330.751 66.9015C330.807 66.9968 330.836 67.1051 330.837 67.2156L330.83 81.3402V81.3405C330.829 81.451 330.8 81.5591 330.746 81.6547C330.691 81.75 330.613 81.8292 330.519 81.8846C330.519 81.8846 330.519 81.8846 330.519 81.8849L318.389 88.9476C318.295 89.0018 318.19 89.0302 318.082 89.0302C317.975 89.0302 317.869 89.0018 317.776 88.9476L305.654 81.8853C305.653 81.8851 305.653 81.8849 305.653 81.8846C305.56 81.8295 305.482 81.7503 305.428 81.6554C305.374 81.5601 305.346 81.4518 305.346 81.3417V81.3412V67.2142V67.2124V67.2105C305.345 67.1012 305.372 66.9937 305.425 66.8986C305.477 66.8042 305.552 66.7254 305.643 66.6696L317.776 59.6079L317.776 59.6079C317.869 59.5536 317.975 59.5251 318.082 59.5251C318.19 59.5251 318.295 59.5536 318.389 59.6079C318.389 59.6079 318.389 59.6079 318.389 59.6079L330.52 66.6714Z" fill="#FE5E24" stroke="#FE5E24"/>
<path d="M336.337 81.8606C336.336 82.4143 336.481 82.9584 336.756 83.4381C337.031 83.9177 337.426 84.316 337.903 84.5925L350.038 91.6558L350.038 91.656C350.514 91.932 351.054 92.0774 351.603 92.0774C352.152 92.0774 352.692 91.932 353.168 91.656L353.168 91.6558L365.307 84.596L365.308 84.5952C365.783 84.3165 366.177 83.9172 366.45 83.4376C366.724 82.9579 366.869 82.4143 366.869 81.861V81.8608V67.7338V67.7329C366.868 67.18 366.723 66.6371 366.449 66.1577C366.176 65.6783 365.783 65.279 365.309 64.9997L365.307 64.9986L353.168 57.9389L353.168 57.9387C352.692 57.6626 352.152 57.5173 351.603 57.5173C351.054 57.5173 350.514 57.6626 350.038 57.9387L350.038 57.9389L337.902 64.9986L337.901 64.9992C337.426 65.2778 337.032 65.6768 336.758 66.1564C336.483 66.636 336.338 67.1795 336.337 67.7329V67.7338L336.337 81.8606ZM336.337 81.8606L336.703 81.8608H336.337V81.8606ZM364.041 67.191L364.042 67.1918C364.137 67.2465 364.216 67.3255 364.272 67.4211C364.327 67.5164 364.357 67.6246 364.358 67.7352L364.351 81.8598V81.8601C364.35 81.9706 364.321 82.0787 364.267 82.1743C364.212 82.2696 364.134 82.3488 364.04 82.4042C364.04 82.4042 364.04 82.4042 364.04 82.4045L351.909 89.4672C351.816 89.5214 351.71 89.5498 351.603 89.5498C351.495 89.5498 351.39 89.5214 351.297 89.4672L339.174 82.4049C339.174 82.4047 339.174 82.4045 339.173 82.4042C339.08 82.3491 339.003 82.2699 338.949 82.175C338.895 82.0797 338.866 81.9713 338.866 81.8613V81.8608V67.7338V67.732V67.7301C338.865 67.6208 338.893 67.5133 338.945 67.4181C338.998 67.3238 339.073 67.245 339.164 67.1892L351.296 60.1275L351.297 60.1275C351.39 60.0732 351.495 60.0447 351.603 60.0447C351.71 60.0447 351.816 60.0732 351.909 60.1275C351.909 60.1275 351.909 60.1275 351.909 60.1275L364.041 67.191Z" fill="#FE5E24" stroke="#FE5E24"/>
<path d="M319.576 53.1473C319.576 53.701 319.72 54.2451 319.995 54.7248C320.27 55.2045 320.666 55.6028 321.143 55.8793L333.277 62.9425L333.278 62.9428C333.754 63.2187 334.293 63.3641 334.843 63.3641C335.392 63.3641 335.931 63.2187 336.407 62.9428L336.408 62.9425L348.547 55.8827L348.548 55.882C349.023 55.6033 349.417 55.204 349.69 54.7243C349.964 54.2446 350.108 53.701 350.109 53.1478V53.1475V39.0206V39.0197C350.107 38.4668 349.963 37.9238 349.689 37.4444C349.416 36.965 349.023 36.5658 348.548 36.2864L348.547 36.2853L336.408 29.2256L336.407 29.2254C335.931 28.9494 335.392 28.804 334.843 28.804C334.293 28.804 333.754 28.9494 333.278 29.2254L333.278 29.2256L321.142 36.2853L321.141 36.286C320.666 36.5645 320.272 36.9636 319.997 37.4431C319.723 37.9227 319.578 38.4662 319.576 39.0196V39.0206L319.576 53.1473ZM319.576 53.1473L319.943 53.1475H319.576V53.1473ZM347.281 38.4777L347.282 38.4786C347.377 38.5333 347.456 38.6123 347.512 38.7079C347.567 38.8031 347.597 38.9114 347.598 39.022L347.59 53.1466V53.1468C347.59 53.2574 347.561 53.3654 347.506 53.461C347.452 53.5564 347.374 53.6356 347.28 53.691C347.28 53.691 347.28 53.691 347.279 53.6912L335.149 60.754C335.056 60.8081 334.95 60.8366 334.843 60.8366C334.735 60.8366 334.629 60.8081 334.536 60.754L322.414 53.6917C322.414 53.6914 322.413 53.6912 322.413 53.691C322.32 53.6358 322.243 53.5566 322.189 53.4618C322.134 53.3664 322.106 53.2581 322.106 53.148V53.1475V39.0206V39.0187V39.0168C322.105 38.9076 322.132 38.8 322.185 38.7049C322.237 38.6106 322.313 38.5317 322.404 38.4759L334.536 31.4143L334.536 31.4143C334.629 31.36 334.735 31.3315 334.843 31.3315C334.95 31.3315 335.056 31.36 335.149 31.4143C335.149 31.4143 335.149 31.4143 335.149 31.4143L347.281 38.4777Z" fill="#FE5E24" stroke="#FE5E24"/>
<path d="M353.097 54.5764C353.097 55.1301 353.241 55.6742 353.516 56.1539C353.791 56.6336 354.187 57.0319 354.663 57.3083L366.798 64.3716L366.799 64.3718C367.274 64.6478 367.814 64.7932 368.363 64.7932C368.912 64.7932 369.452 64.6478 369.928 64.3718L369.928 64.3716L382.067 57.3118L382.069 57.311C382.543 57.0324 382.937 56.6331 383.211 56.1534C383.485 55.6737 383.629 55.1301 383.629 54.5769V54.5766V40.4496V40.4487C383.628 39.8959 383.483 39.3529 383.21 38.8735C382.936 38.3941 382.543 37.9949 382.069 37.7155L382.067 37.7144L369.928 30.6547L369.928 30.6545C369.452 30.3784 368.912 30.2331 368.363 30.2331C367.814 30.2331 367.274 30.3784 366.799 30.6545L366.798 30.6547L354.663 37.7144L354.662 37.7151C354.187 37.9936 353.792 38.3926 353.518 38.8722C353.243 39.3518 353.098 39.8953 353.097 40.4487V40.4496L353.097 54.5764ZM353.097 54.5764L353.463 54.5766H353.097V54.5764ZM380.801 39.9068L380.803 39.9076C380.898 39.9623 380.977 40.0414 381.032 40.137C381.088 40.2322 381.117 40.3405 381.118 40.451L381.111 54.5756V54.5759C381.11 54.6864 381.082 54.7945 381.027 54.8901C380.972 54.9855 380.894 55.0646 380.8 55.12C380.8 55.12 380.8 55.12 380.8 55.1203L368.67 62.183C368.576 62.2372 368.471 62.2656 368.363 62.2656C368.256 62.2656 368.15 62.2372 368.057 62.183L355.935 55.1208C355.934 55.1205 355.934 55.1203 355.934 55.12C355.841 55.0649 355.763 54.9857 355.709 54.8909C355.655 54.7955 355.627 54.6872 355.627 54.5771V54.5766V40.4496V40.4478V40.4459C355.626 40.3366 355.653 40.2291 355.706 40.134C355.758 40.0396 355.833 39.9608 355.925 39.905L368.057 32.8434L368.057 32.8433C368.15 32.789 368.256 32.7605 368.363 32.7605C368.471 32.7605 368.576 32.789 368.67 32.8433C368.67 32.8433 368.67 32.8433 368.67 32.8433L380.801 39.9068Z" fill="#FE5E24" stroke="#FE5E24"/>
<path d="M368.428 25.3433C368.428 25.897 368.572 26.4411 368.847 26.9208C369.122 27.4005 369.518 27.7988 369.994 28.0752L382.129 35.1385L382.13 35.1387C382.606 35.4147 383.145 35.5601 383.694 35.5601C384.244 35.5601 384.783 35.4147 385.259 35.1387L385.259 35.1385L397.399 28.0787L397.4 28.0779C397.875 27.7993 398.268 27.4 398.542 26.9203C398.816 26.4406 398.96 25.897 398.961 25.3438V25.3435V11.2165V11.2156C398.959 10.6628 398.815 10.1198 398.541 9.64041C398.267 9.16101 397.874 8.76178 397.4 8.4824L397.399 8.48133L385.259 1.42159L385.259 1.42139C384.783 1.14535 384.244 1 383.694 1C383.145 1 382.606 1.14535 382.13 1.42139L382.129 1.42162L369.994 8.48133L369.993 8.48196C369.518 8.76053 369.124 9.15954 368.849 9.63911C368.575 10.1187 368.43 10.6622 368.428 11.2156V11.2165L368.428 25.3433ZM368.428 25.3433L368.795 25.3435H368.428V25.3433ZM396.132 10.6737L396.134 10.6745C396.229 10.7292 396.308 10.8083 396.363 10.9039C396.419 10.9991 396.448 11.1074 396.449 11.2179L396.442 25.3426V25.3428C396.442 25.4533 396.413 25.5614 396.358 25.657C396.304 25.7524 396.225 25.8315 396.132 25.8869C396.131 25.8869 396.131 25.8869 396.131 25.8872L384.001 32.9499C383.908 33.0041 383.802 33.0325 383.694 33.0325C383.587 33.0325 383.481 33.0041 383.388 32.9499L371.266 25.8877C371.266 25.8874 371.265 25.8872 371.265 25.8869C371.172 25.8318 371.094 25.7526 371.04 25.6578C370.986 25.5624 370.958 25.4541 370.958 25.344V25.3435V11.2165V11.2147V11.2128C370.957 11.1036 370.984 10.996 371.037 10.9009C371.089 10.8066 371.165 10.7277 371.256 10.6719L383.388 3.61027L383.388 3.61024C383.481 3.55595 383.587 3.52744 383.694 3.52744C383.802 3.52744 383.908 3.55595 384.001 3.61024C384.001 3.61024 384.001 3.61024 384.001 3.61024L396.132 10.6737Z" fill="#FE5E24" stroke="#FE5E24"/>
<path d="M235.385 81.8606C235.385 82.4143 235.529 82.9584 235.804 83.4381C236.079 83.9177 236.474 84.316 236.951 84.5925L249.086 91.6558L249.086 91.656C249.562 91.932 250.102 92.0774 250.651 92.0774C251.2 92.0774 251.74 91.932 252.216 91.656L252.216 91.6558L264.355 84.596L264.357 84.5952C264.831 84.3165 265.225 83.9172 265.499 83.4376C265.773 82.9579 265.917 82.4143 265.917 81.861V81.8608V67.7338V67.7329C265.916 67.18 265.771 66.6371 265.498 66.1577C265.224 65.6783 264.831 65.279 264.357 64.9997L264.355 64.9986L252.216 57.9389L252.216 57.9387C251.74 57.6626 251.2 57.5173 250.651 57.5173C250.102 57.5173 249.562 57.6626 249.086 57.9387L249.086 57.9389L236.951 64.9986L236.95 64.9992C236.475 65.2778 236.08 65.6768 235.806 66.1564C235.531 66.636 235.386 67.1795 235.385 67.7329V67.7338L235.385 81.8606ZM235.385 81.8606L235.751 81.8608H235.385V81.8606ZM263.089 67.191L263.091 67.1918C263.186 67.2465 263.265 67.3255 263.32 67.4211C263.376 67.5164 263.405 67.6246 263.406 67.7352L263.399 81.8598V81.8601C263.398 81.9706 263.369 82.0787 263.315 82.1743C263.26 82.2696 263.182 82.3488 263.088 82.4042C263.088 82.4042 263.088 82.4042 263.088 82.4045L250.958 89.4672C250.864 89.5214 250.759 89.5498 250.651 89.5498C250.544 89.5498 250.438 89.5214 250.345 89.4672L238.223 82.4049C238.222 82.4047 238.222 82.4045 238.222 82.4042C238.129 82.3491 238.051 82.2699 237.997 82.175C237.943 82.0797 237.915 81.9713 237.915 81.8613V81.8608V67.7338V67.732V67.7301C237.914 67.6208 237.941 67.5133 237.994 67.4181C238.046 67.3238 238.121 67.245 238.213 67.1892L250.345 60.1275L250.345 60.1275C250.438 60.0732 250.544 60.0447 250.651 60.0447C250.759 60.0447 250.864 60.0732 250.958 60.1275C250.958 60.1275 250.958 60.1275 250.958 60.1275L263.089 67.191Z" fill="#FE5E24" stroke="#FE5E24"/>
<path d="M268.906 81.8606C268.905 82.4143 269.05 82.9584 269.325 83.4381C269.599 83.9177 269.995 84.316 270.472 84.5925L282.607 91.6558L282.607 91.656C283.083 91.932 283.623 92.0774 284.172 92.0774C284.721 92.0774 285.261 91.932 285.736 91.656L285.737 91.6558L297.876 84.596L297.877 84.5952C298.352 84.3165 298.746 83.9172 299.019 83.4376C299.293 82.9579 299.437 82.4143 299.438 81.861V81.8608V67.7338V67.7329C299.437 67.18 299.292 66.6371 299.018 66.1577C298.745 65.6783 298.352 65.279 297.878 64.9997L297.876 64.9986L285.737 57.9389L285.736 57.9387C285.261 57.6626 284.721 57.5173 284.172 57.5173C283.623 57.5173 283.083 57.6626 282.607 57.9387L282.607 57.9389L270.471 64.9986L270.47 64.9992C269.995 65.2778 269.601 65.6768 269.326 66.1564C269.052 66.636 268.907 67.1795 268.906 67.7329V67.7338L268.906 81.8606ZM268.906 81.8606L269.272 81.8608H268.906V81.8606ZM296.61 67.191L296.611 67.1918C296.706 67.2465 296.785 67.3255 296.841 67.4211C296.896 67.5164 296.926 67.6246 296.927 67.7352L296.919 81.8598V81.8601C296.919 81.9706 296.89 82.0787 296.835 82.1743C296.781 82.2696 296.703 82.3488 296.609 82.4042C296.609 82.4042 296.609 82.4042 296.608 82.4045L284.478 89.4672C284.385 89.5214 284.279 89.5498 284.172 89.5498C284.064 89.5498 283.959 89.5214 283.865 89.4672L271.743 82.4049C271.743 82.4047 271.743 82.4045 271.742 82.4042C271.649 82.3491 271.572 82.2699 271.518 82.175C271.464 82.0797 271.435 81.9713 271.435 81.8613V81.8608V67.7338V67.732V67.7301C271.434 67.6208 271.461 67.5133 271.514 67.4181C271.566 67.3238 271.642 67.245 271.733 67.1892L283.865 60.1275L283.865 60.1275C283.959 60.0732 284.064 60.0447 284.172 60.0447C284.279 60.0447 284.385 60.0732 284.478 60.1275C284.478 60.1275 284.478 60.1275 284.478 60.1275L296.61 67.191Z" fill="#FE5E24" stroke="#FE5E24"/>
</svg>
