<svg width="400" height="158" viewBox="0 0 400 158" fill="none" xmlns="http://www.w3.org/2000/svg">
<path d="M101.742 115.343C101.742 115.897 101.886 116.441 102.161 116.921C102.436 117.4 102.832 117.799 103.308 118.075L115.443 125.138L115.444 125.139C115.92 125.415 116.459 125.56 117.008 125.56C117.558 125.56 118.097 125.415 118.573 125.139L118.573 125.138L130.712 118.079L130.714 118.078C131.189 117.799 131.582 117.4 131.856 116.92C132.13 116.441 132.274 115.897 132.274 115.344V115.344V101.217V101.216C132.273 100.663 132.128 100.12 131.855 99.6404C131.581 99.161 131.188 98.7618 130.714 98.4824L130.712 98.4813L118.573 91.4216L118.573 91.4214C118.097 91.1453 117.558 91 117.008 91C116.459 91 115.92 91.1453 115.444 91.4214L115.443 91.4216L103.308 98.4813L103.307 98.482C102.832 98.7605 102.437 99.1595 102.163 99.6391C101.889 100.119 101.743 100.662 101.742 101.216V101.217L101.742 115.343ZM101.742 115.343L102.108 115.344H101.742V115.343ZM129.446 100.674L129.448 100.675C129.543 100.729 129.622 100.808 129.677 100.904C129.733 100.999 129.762 101.107 129.763 101.218L129.756 115.343V115.343C129.755 115.453 129.727 115.561 129.672 115.657C129.617 115.752 129.539 115.832 129.445 115.887C129.445 115.887 129.445 115.887 129.445 115.887L117.315 122.95C117.221 123.004 117.116 123.033 117.008 123.033C116.901 123.033 116.795 123.004 116.702 122.95L104.58 115.888C104.579 115.887 104.579 115.887 104.579 115.887C104.486 115.832 104.408 115.753 104.354 115.658C104.3 115.562 104.272 115.454 104.272 115.344V115.344V101.217V101.215V101.213C104.271 101.104 104.298 100.996 104.351 100.901C104.403 100.807 104.478 100.728 104.57 100.672L116.702 93.6103L116.702 93.6102C116.795 93.556 116.901 93.5274 117.008 93.5274C117.116 93.5274 117.221 93.556 117.315 93.6102C117.315 93.6102 117.315 93.6102 117.315 93.6102L129.446 100.674Z" fill="#FE5E24" stroke="#FE5E24"/>
<path d="M84.7219 145.568C84.7214 146.122 84.8659 146.666 85.1408 147.146C85.4157 147.625 85.8114 148.024 86.2881 148.3L98.4229 155.363L98.4234 155.364C98.8993 155.64 99.4388 155.785 99.9881 155.785C100.537 155.785 101.077 155.64 101.553 155.364L101.553 155.363L113.692 148.304L113.693 148.303C114.168 148.024 114.562 147.625 114.836 147.145C115.109 146.666 115.254 146.122 115.254 145.569V145.569V131.442V131.441C115.253 130.888 115.108 130.345 114.835 129.865C114.561 129.386 114.168 128.987 113.694 128.707L113.692 128.706L101.553 121.647L101.553 121.646C101.077 121.37 100.537 121.225 99.9881 121.225C99.4388 121.225 98.8993 121.37 98.4234 121.646L98.423 121.647L86.2877 128.706L86.2866 128.707C85.8115 128.986 85.4172 129.385 85.1427 129.864C84.8683 130.344 84.7233 130.887 84.7219 131.441V131.442L84.7219 145.568ZM84.7219 145.568L85.0883 145.569H84.7219V145.568ZM112.426 130.899L112.427 130.9C112.522 130.954 112.602 131.033 112.657 131.129C112.713 131.224 112.742 131.332 112.743 131.443L112.736 145.568V145.568C112.735 145.678 112.706 145.786 112.652 145.882C112.597 145.977 112.519 146.057 112.425 146.112C112.425 146.112 112.425 146.112 112.425 146.112L100.294 153.175C100.201 153.229 100.096 153.258 99.9881 153.258C99.8806 153.258 99.7749 153.229 99.6817 153.175L87.5596 146.113C87.5593 146.112 87.5589 146.112 87.5586 146.112C87.4655 146.057 87.388 145.978 87.3341 145.883C87.2799 145.787 87.2515 145.679 87.2516 145.569V145.569V131.442V131.44V131.438C87.2505 131.329 87.2777 131.221 87.3305 131.126C87.3828 131.032 87.4583 130.953 87.5494 130.897L99.6816 123.835L99.6817 123.835C99.7749 123.781 99.8806 123.752 99.9881 123.752C100.096 123.752 100.201 123.781 100.294 123.835C100.294 123.835 100.294 123.835 100.294 123.835L112.426 130.899Z" fill="#FE5E24" stroke="#FE5E24"/>
<path d="M36 134.568C35.9996 135.122 36.144 135.666 36.4189 136.146C36.6939 136.625 37.0895 137.024 37.5662 137.3L49.7011 144.363L49.7015 144.364C50.1774 144.64 50.717 144.785 51.2662 144.785C51.8154 144.785 52.355 144.64 52.8309 144.364L52.8312 144.363L64.9704 137.304L64.9716 137.303C65.4464 137.024 65.8402 136.625 66.1137 136.145C66.3876 135.666 66.5319 135.122 66.5324 134.569V134.569V120.442V120.441C66.5309 119.888 66.3863 119.345 66.1128 118.865C65.8392 118.386 65.4462 117.987 64.9721 117.707L64.9704 117.706L52.8312 110.647L52.8309 110.646C52.355 110.37 51.8154 110.225 51.2662 110.225C50.717 110.225 50.1774 110.37 49.7015 110.646L49.7011 110.647L37.5658 117.706L37.5647 117.707C37.0896 117.986 36.6953 118.385 36.4209 118.864C36.1465 119.344 36.0014 119.887 36 120.441V120.442L36 134.568ZM36 134.568L36.3664 134.569H36V134.568ZM63.7041 119.899L63.7056 119.9C63.8006 119.954 63.8797 120.033 63.9352 120.129C63.9906 120.224 64.0202 120.332 64.0212 120.443L64.0138 134.568V134.568C64.0134 134.678 63.9845 134.786 63.9298 134.882C63.8754 134.977 63.7972 135.057 63.7034 135.112C63.7031 135.112 63.7031 135.112 63.7029 135.112L51.5726 142.175C51.4793 142.229 51.3737 142.258 51.2662 142.258C51.1587 142.258 51.0531 142.229 50.9598 142.175L38.8377 135.113C38.8374 135.112 38.8371 135.112 38.8368 135.112C38.7436 135.057 38.6661 134.978 38.6122 134.883C38.5581 134.787 38.5296 134.679 38.5298 134.569V134.569V120.442V120.44V120.438C38.5286 120.329 38.5559 120.221 38.6086 120.126C38.6609 120.032 38.7364 119.953 38.8275 119.897L50.9598 112.835L50.9598 112.835C51.0531 112.781 51.1588 112.752 51.2662 112.752C51.3737 112.752 51.4793 112.781 51.5726 112.835C51.5726 112.835 51.5726 112.835 51.5726 112.835L63.7041 119.899Z" fill="#FE5E24" stroke="#FE5E24"/>
<path d="M135 115.343C135 115.897 135.144 116.441 135.419 116.921C135.694 117.4 136.09 117.799 136.566 118.075L148.701 125.138L148.702 125.139C149.177 125.415 149.717 125.56 150.266 125.56C150.815 125.56 151.355 125.415 151.831 125.139L151.831 125.138L163.97 118.079L163.972 118.078C164.446 117.799 164.84 117.4 165.114 116.92C165.388 116.441 165.532 115.897 165.532 115.344V115.344V101.217V101.216C165.531 100.663 165.386 100.12 165.113 99.6404C164.839 99.161 164.446 98.7618 163.972 98.4824L163.97 98.4813L151.831 91.4216L151.831 91.4214C151.355 91.1453 150.815 91 150.266 91C149.717 91 149.177 91.1453 148.702 91.4214L148.701 91.4216L136.566 98.4813L136.565 98.482C136.09 98.7605 135.695 99.1595 135.421 99.6391C135.146 100.119 135.001 100.662 135 101.216V101.217L135 115.343ZM135 115.343L135.366 115.344H135V115.343ZM162.704 100.674L162.706 100.675C162.801 100.729 162.88 100.808 162.935 100.904C162.991 100.999 163.02 101.107 163.021 101.218L163.014 115.343V115.343C163.013 115.453 162.985 115.561 162.93 115.657C162.875 115.752 162.797 115.832 162.703 115.887C162.703 115.887 162.703 115.887 162.703 115.887L150.573 122.95C150.479 123.004 150.374 123.033 150.266 123.033C150.159 123.033 150.053 123.004 149.96 122.95L137.838 115.888C137.837 115.887 137.837 115.887 137.837 115.887C137.744 115.832 137.666 115.753 137.612 115.658C137.558 115.562 137.53 115.454 137.53 115.344V115.344V101.217V101.215V101.213C137.529 101.104 137.556 100.996 137.609 100.901C137.661 100.807 137.736 100.728 137.828 100.672L149.96 93.6103L149.96 93.6102C150.053 93.556 150.159 93.5274 150.266 93.5274C150.374 93.5274 150.479 93.556 150.573 93.6102C150.573 93.6102 150.573 93.6102 150.573 93.6102L162.704 100.674Z" fill="#FE5E24" stroke="#FE5E24"/>
<path d="M151.5 146.568C151.5 147.122 151.645 147.666 151.919 148.146C152.194 148.625 152.59 149.024 153.067 149.3L165.202 156.363L165.202 156.364C165.678 156.64 166.217 156.785 166.767 156.785C167.316 156.785 167.855 156.64 168.331 156.364L168.332 156.363L180.471 149.304L180.472 149.303C180.947 149.024 181.341 148.625 181.614 148.145C181.888 147.666 182.032 147.122 182.033 146.569V146.569V132.442V132.441C182.031 131.888 181.887 131.345 181.613 130.865C181.34 130.386 180.947 129.987 180.473 129.707L180.471 129.706L168.332 122.647L168.331 122.646C167.855 122.37 167.316 122.225 166.767 122.225C166.217 122.225 165.678 122.37 165.202 122.646L165.202 122.647L153.066 129.706L153.065 129.707C152.59 129.986 152.196 130.385 151.921 130.864C151.647 131.344 151.502 131.887 151.5 132.441V132.442L151.5 146.568ZM151.5 146.568L151.867 146.569H151.5V146.568ZM179.205 131.899L179.206 131.9C179.301 131.954 179.38 132.033 179.436 132.129C179.491 132.224 179.521 132.332 179.522 132.443L179.514 146.568V146.568C179.514 146.678 179.485 146.786 179.43 146.882C179.376 146.977 179.298 147.057 179.204 147.112C179.204 147.112 179.204 147.112 179.203 147.112L167.073 154.175C166.98 154.229 166.874 154.258 166.767 154.258C166.659 154.258 166.554 154.229 166.46 154.175L154.338 147.113C154.338 147.112 154.338 147.112 154.337 147.112C154.244 147.057 154.167 146.978 154.113 146.883C154.059 146.787 154.03 146.679 154.03 146.569V146.569V132.442V132.44V132.438C154.029 132.329 154.056 132.221 154.109 132.126C154.161 132.032 154.237 131.953 154.328 131.897L166.46 124.835L166.46 124.835C166.554 124.781 166.659 124.752 166.767 124.752C166.874 124.752 166.98 124.781 167.073 124.835C167.073 124.835 167.073 124.835 167.073 124.835L179.205 131.899Z" fill="#FE5E24" stroke="#FE5E24"/>
<path d="M185.021 146.568C185.021 147.122 185.165 147.666 185.44 148.146C185.715 148.625 186.111 149.024 186.587 149.3L198.722 156.363L198.723 156.364C199.199 156.64 199.738 156.785 200.287 156.785C200.837 156.785 201.376 156.64 201.852 156.364L201.852 156.363L213.991 149.304L213.993 149.303C214.468 149.024 214.861 148.625 215.135 148.145C215.409 147.666 215.553 147.122 215.554 146.569V146.569V132.442V132.441C215.552 131.888 215.407 131.345 215.134 130.865C214.86 130.386 214.467 129.987 213.993 129.707L213.991 129.706L201.852 122.647L201.852 122.646C201.376 122.37 200.837 122.225 200.287 122.225C199.738 122.225 199.199 122.37 198.723 122.646L198.722 122.647L186.587 129.706L186.586 129.707C186.111 129.986 185.716 130.385 185.442 130.864C185.168 131.344 185.023 131.887 185.021 132.441V132.442L185.021 146.568ZM185.021 146.568L185.388 146.569H185.021V146.568ZM212.725 131.899L212.727 131.9C212.822 131.954 212.901 132.033 212.956 132.129C213.012 132.224 213.041 132.332 213.042 132.443L213.035 146.568V146.568C213.034 146.678 213.006 146.786 212.951 146.882C212.896 146.977 212.818 147.057 212.725 147.112C212.724 147.112 212.724 147.112 212.724 147.112L200.594 154.175C200.5 154.229 200.395 154.258 200.287 154.258C200.18 154.258 200.074 154.229 199.981 154.175L187.859 147.113C187.859 147.112 187.858 147.112 187.858 147.112C187.765 147.057 187.687 146.978 187.633 146.883C187.579 146.787 187.551 146.679 187.551 146.569V146.569V132.442V132.44V132.438C187.55 132.329 187.577 132.221 187.63 132.126C187.682 132.032 187.758 131.953 187.849 131.897L199.981 124.835L199.981 124.835C200.074 124.781 200.18 124.752 200.287 124.752C200.395 124.752 200.5 124.781 200.594 124.835C200.594 124.835 200.594 124.835 200.594 124.835L212.725 131.899Z" fill="#FE5E24" stroke="#FE5E24"/>
<path d="M252.452 146.568C252.452 147.122 252.596 147.666 252.871 148.146C253.146 148.625 253.542 149.024 254.019 149.3L266.153 156.363L266.154 156.364C266.63 156.64 267.169 156.785 267.719 156.785C268.268 156.785 268.807 156.64 269.283 156.364L269.284 156.363L281.423 149.304L281.424 149.303C281.899 149.024 282.293 148.625 282.566 148.145C282.84 147.666 282.984 147.122 282.985 146.569V146.569V132.442V132.441C282.983 131.888 282.839 131.345 282.565 130.865C282.292 130.386 281.899 129.987 281.424 129.707L281.423 129.706L269.284 122.647L269.283 122.646C268.807 122.37 268.268 122.225 267.719 122.225C267.169 122.225 266.63 122.37 266.154 122.646L266.153 122.647L254.018 129.706L254.017 129.707C253.542 129.986 253.148 130.385 252.873 130.864C252.599 131.344 252.454 131.887 252.452 132.441V132.442L252.452 146.568ZM252.452 146.568L252.819 146.569H252.452V146.568ZM280.156 131.899L280.158 131.9C280.253 131.954 280.332 132.033 280.388 132.129C280.443 132.224 280.473 132.332 280.474 132.443L280.466 146.568V146.568C280.466 146.678 280.437 146.786 280.382 146.882C280.328 146.977 280.25 147.057 280.156 147.112C280.155 147.112 280.155 147.112 280.155 147.112L268.025 154.175C267.932 154.229 267.826 154.258 267.719 154.258C267.611 154.258 267.505 154.229 267.412 154.175L255.29 147.113C255.29 147.112 255.289 147.112 255.289 147.112C255.196 147.057 255.118 146.978 255.065 146.883C255.01 146.787 254.982 146.679 254.982 146.569V146.569V132.442V132.44V132.438C254.981 132.329 255.008 132.221 255.061 132.126C255.113 132.032 255.189 131.953 255.28 131.897L267.412 124.835L267.412 124.835C267.505 124.781 267.611 124.752 267.719 124.752C267.826 124.752 267.932 124.781 268.025 124.835C268.025 124.835 268.025 124.835 268.025 124.835L280.156 131.899Z" fill="#FE5E24" stroke="#FE5E24"/>
<path d="M168.001 115.733C168.001 116.287 168.145 116.831 168.42 117.31C168.695 117.79 169.091 118.188 169.567 118.465L181.702 125.528L181.703 125.528C182.178 125.804 182.718 125.95 183.267 125.95C183.816 125.95 184.356 125.804 184.832 125.528L184.832 125.528L196.971 118.468L196.973 118.468C197.447 118.189 197.841 117.79 198.115 117.31C198.389 116.83 198.533 116.287 198.533 115.733V115.733V101.606V101.605C198.532 101.052 198.387 100.509 198.114 100.03C197.84 99.5507 197.447 99.1514 196.973 98.8721L196.971 98.871L184.832 91.8112L184.832 91.811C184.356 91.535 183.816 91.3896 183.267 91.3896C182.718 91.3896 182.178 91.535 181.703 91.811L181.702 91.8113L169.567 98.871L169.566 98.8716C169.091 99.1502 168.696 99.5492 168.422 100.029C168.147 100.508 168.002 101.052 168.001 101.605V101.606L168.001 115.733ZM168.001 115.733L168.367 115.733H168.001V115.733ZM195.705 101.063L195.707 101.064C195.802 101.119 195.881 101.198 195.936 101.294C195.992 101.389 196.021 101.497 196.022 101.608L196.015 115.732V115.732C196.014 115.843 195.986 115.951 195.931 116.047C195.876 116.142 195.798 116.221 195.704 116.277C195.704 116.277 195.704 116.277 195.704 116.277L183.574 123.34C183.48 123.394 183.375 123.422 183.267 123.422C183.16 123.422 183.054 123.394 182.961 123.34L170.839 116.277C170.838 116.277 170.838 116.277 170.838 116.277C170.745 116.221 170.667 116.142 170.613 116.047C170.559 115.952 170.531 115.844 170.531 115.734V115.733V101.606V101.604V101.602C170.53 101.493 170.557 101.386 170.61 101.291C170.662 101.196 170.737 101.117 170.829 101.062L182.961 93.9999L182.961 93.9999C183.054 93.9456 183.16 93.9171 183.267 93.9171C183.375 93.9171 183.48 93.9456 183.574 93.9999C183.574 93.9999 183.574 93.9999 183.574 93.9999L195.705 101.063Z" fill="#FE5E24" stroke="#FE5E24"/>
<path d="M201.522 115.343C201.521 115.897 201.666 116.441 201.941 116.921C202.216 117.4 202.611 117.799 203.088 118.075L215.223 125.138L215.223 125.139C215.699 125.415 216.239 125.56 216.788 125.56C217.337 125.56 217.877 125.415 218.353 125.139L218.353 125.138L230.492 118.079L230.493 118.078C230.968 117.799 231.362 117.4 231.635 116.92C231.909 116.441 232.054 115.897 232.054 115.344V115.344V101.217V101.216C232.053 100.663 231.908 100.12 231.634 99.6404C231.361 99.161 230.968 98.7618 230.494 98.4824L230.492 98.4813L218.353 91.4216L218.353 91.4214C217.877 91.1453 217.337 91 216.788 91C216.239 91 215.699 91.1453 215.223 91.4214L215.223 91.4216L203.088 98.4813L203.086 98.482C202.611 98.7605 202.217 99.1595 201.943 99.6391C201.668 100.119 201.523 100.662 201.522 101.216V101.217L201.522 115.343ZM201.522 115.343L201.888 115.344H201.522V115.343ZM229.226 100.674L229.227 100.675C229.322 100.729 229.401 100.808 229.457 100.904C229.512 100.999 229.542 101.107 229.543 101.218L229.536 115.343V115.343C229.535 115.453 229.506 115.561 229.452 115.657C229.397 115.752 229.319 115.832 229.225 115.887C229.225 115.887 229.225 115.887 229.225 115.887L217.094 122.95C217.001 123.004 216.895 123.033 216.788 123.033C216.68 123.033 216.575 123.004 216.482 122.95L204.359 115.888C204.359 115.887 204.359 115.887 204.358 115.887C204.265 115.832 204.188 115.753 204.134 115.658C204.08 115.562 204.051 115.454 204.051 115.344V115.344V101.217V101.215V101.213C204.05 101.104 204.078 100.996 204.13 100.901C204.183 100.807 204.258 100.728 204.349 100.672L216.482 93.6103L216.482 93.6102C216.575 93.556 216.68 93.5274 216.788 93.5274C216.895 93.5274 217.001 93.556 217.094 93.6102C217.094 93.6102 217.094 93.6102 217.094 93.6102L229.226 100.674Z" fill="#FE5E24" stroke="#FE5E24"/>
<path d="M235.432 115.733C235.432 116.287 235.576 116.831 235.851 117.31C236.126 117.79 236.522 118.188 236.998 118.465L249.133 125.528L249.134 125.528C249.61 125.804 250.149 125.95 250.698 125.95C251.248 125.95 251.787 125.804 252.263 125.528L252.263 125.528L264.402 118.468L264.404 118.468C264.879 118.189 265.272 117.79 265.546 117.31C265.82 116.83 265.964 116.287 265.965 115.733V115.733V101.606V101.605C265.963 101.052 265.818 100.509 265.545 100.03C265.271 99.5507 264.878 99.1514 264.404 98.8721L264.402 98.871L252.263 91.8112L252.263 91.811C251.787 91.535 251.248 91.3896 250.698 91.3896C250.149 91.3896 249.61 91.535 249.134 91.811L249.133 91.8113L236.998 98.871L236.997 98.8716C236.522 99.1502 236.127 99.5492 235.853 100.029C235.579 100.508 235.434 101.052 235.432 101.605V101.606L235.432 115.733ZM235.432 115.733L235.799 115.733H235.432V115.733ZM263.136 101.063L263.138 101.064C263.233 101.119 263.312 101.198 263.367 101.294C263.423 101.389 263.452 101.497 263.453 101.608L263.446 115.732V115.732C263.445 115.843 263.417 115.951 263.362 116.047C263.307 116.142 263.229 116.221 263.136 116.277C263.135 116.277 263.135 116.277 263.135 116.277L251.005 123.34C250.911 123.394 250.806 123.422 250.698 123.422C250.591 123.422 250.485 123.394 250.392 123.34L238.27 116.277C238.27 116.277 238.269 116.277 238.269 116.277C238.176 116.221 238.098 116.142 238.044 116.047C237.99 115.952 237.962 115.844 237.962 115.734V115.733V101.606V101.604V101.602C237.961 101.493 237.988 101.386 238.041 101.291C238.093 101.196 238.169 101.117 238.26 101.062L250.392 93.9999L250.392 93.9999C250.485 93.9456 250.591 93.9171 250.698 93.9171C250.806 93.9171 250.911 93.9456 251.005 93.9999C251.005 93.9999 251.005 93.9999 251.005 93.9999L263.136 101.063Z" fill="#FE5E24" stroke="#FE5E24"/>
<path d="M268.953 115.733C268.952 116.287 269.097 116.831 269.372 117.31C269.647 117.79 270.042 118.188 270.519 118.465L282.654 125.528L282.654 125.528C283.13 125.804 283.67 125.95 284.219 125.95C284.768 125.95 285.308 125.804 285.784 125.528L285.784 125.528L297.923 118.468L297.924 118.468C298.399 118.189 298.793 117.79 299.066 117.31C299.34 116.83 299.485 116.287 299.485 115.733V115.733V101.606V101.605C299.484 101.052 299.339 100.509 299.065 100.03C298.792 99.5507 298.399 99.1514 297.925 98.8721L297.923 98.871L285.784 91.8112L285.784 91.811C285.308 91.535 284.768 91.3896 284.219 91.3896C283.67 91.3896 283.13 91.535 282.654 91.811L282.654 91.8113L270.518 98.871L270.517 98.8716C270.042 99.1502 269.648 99.5492 269.374 100.029C269.099 100.508 268.954 101.052 268.953 101.605V101.606L268.953 115.733ZM268.953 115.733L269.319 115.733H268.953V115.733ZM296.657 101.063L296.658 101.064C296.753 101.119 296.832 101.198 296.888 101.294C296.943 101.389 296.973 101.497 296.974 101.608L296.967 115.732V115.732C296.966 115.843 296.937 115.951 296.883 116.047C296.828 116.142 296.75 116.221 296.656 116.277C296.656 116.277 296.656 116.277 296.656 116.277L284.525 123.34C284.432 123.394 284.326 123.422 284.219 123.422C284.111 123.422 284.006 123.394 283.913 123.34L271.79 116.277C271.79 116.277 271.79 116.277 271.789 116.277C271.696 116.221 271.619 116.142 271.565 116.047C271.511 115.952 271.482 115.844 271.482 115.734V115.733V101.606V101.604V101.602C271.481 101.493 271.509 101.386 271.561 101.291C271.614 101.196 271.689 101.117 271.78 101.062L283.912 93.9999L283.913 93.9999C284.006 93.9456 284.111 93.9171 284.219 93.9171C284.326 93.9171 284.432 93.9456 284.525 93.9999C284.525 93.9999 284.525 93.9999 284.525 93.9999L296.657 101.063Z" fill="#FE5E24" stroke="#FE5E24"/>
<path d="M151.5 85.9245C151.5 86.4782 151.645 87.0223 151.919 87.502C152.194 87.9816 152.59 88.3799 153.067 88.6564L165.202 95.7197L165.202 95.7199C165.678 95.9959 166.217 96.1413 166.767 96.1413C167.316 96.1413 167.855 95.9959 168.331 95.7199L168.332 95.7197L180.471 88.6599L180.472 88.6591C180.947 88.3804 181.341 87.9812 181.614 87.5015C181.888 87.0218 182.032 86.4782 182.033 85.925V85.9247V71.7977V71.7968C182.031 71.244 181.887 70.701 181.613 70.2216C181.34 69.7422 180.947 69.343 180.473 69.0636L180.471 69.0625L168.332 62.0028L168.331 62.0026C167.855 61.7265 167.316 61.5812 166.767 61.5812C166.217 61.5812 165.678 61.7265 165.202 62.0026L165.202 62.0028L153.066 69.0625L153.065 69.0631C152.59 69.3417 152.196 69.7407 151.921 70.2203C151.647 70.6999 151.502 71.2434 151.5 71.7968V71.7977L151.5 85.9245ZM151.5 85.9245L151.867 85.9247H151.5V85.9245ZM179.205 71.2549L179.206 71.2557C179.301 71.3104 179.38 71.3894 179.436 71.485C179.491 71.5803 179.521 71.6886 179.522 71.7991L179.514 85.9237V85.924C179.514 86.0345 179.485 86.1426 179.43 86.2382C179.376 86.3335 179.298 86.4127 179.204 86.4681C179.204 86.4681 179.204 86.4681 179.203 86.4684L167.073 93.5311C166.98 93.5853 166.874 93.6137 166.767 93.6137C166.659 93.6137 166.554 93.5853 166.46 93.5311L154.338 86.4688C154.338 86.4686 154.338 86.4684 154.337 86.4681C154.244 86.413 154.167 86.3338 154.113 86.2389C154.059 86.1436 154.03 86.0352 154.03 85.9252V85.9247V71.7977V71.7959V71.794C154.029 71.6847 154.056 71.5772 154.109 71.4821C154.161 71.3877 154.237 71.3089 154.328 71.2531L166.46 64.1914L166.46 64.1914C166.554 64.1371 166.659 64.1086 166.767 64.1086C166.874 64.1086 166.98 64.1371 167.073 64.1914C167.073 64.1914 167.073 64.1914 167.073 64.1914L179.205 71.2549Z" fill="#FE5E24" stroke="#FE5E24"/>
<path d="M185.021 85.9245C185.021 86.4782 185.165 87.0223 185.44 87.502C185.715 87.9816 186.111 88.3799 186.587 88.6564L198.722 95.7197L198.723 95.7199C199.199 95.9959 199.738 96.1413 200.287 96.1413C200.837 96.1413 201.376 95.9959 201.852 95.7199L201.852 95.7197L213.991 88.6599L213.993 88.6591C214.468 88.3804 214.861 87.9812 215.135 87.5015C215.409 87.0218 215.553 86.4782 215.554 85.925V85.9247V71.7977V71.7968C215.552 71.244 215.407 70.701 215.134 70.2216C214.86 69.7422 214.467 69.343 213.993 69.0636L213.991 69.0625L201.852 62.0028L201.852 62.0026C201.376 61.7265 200.837 61.5812 200.287 61.5812C199.738 61.5812 199.199 61.7265 198.723 62.0026L198.722 62.0028L186.587 69.0625L186.586 69.0631C186.111 69.3417 185.716 69.7407 185.442 70.2203C185.168 70.6999 185.023 71.2434 185.021 71.7968V71.7977L185.021 85.9245ZM185.021 85.9245L185.388 85.9247H185.021V85.9245ZM212.725 71.2549L212.727 71.2557C212.822 71.3104 212.901 71.3894 212.956 71.485C213.012 71.5803 213.041 71.6886 213.042 71.7991L213.035 85.9237V85.924C213.034 86.0345 213.006 86.1426 212.951 86.2382C212.896 86.3335 212.818 86.4127 212.725 86.4681C212.724 86.4681 212.724 86.4681 212.724 86.4684L200.594 93.5311C200.5 93.5853 200.395 93.6137 200.287 93.6137C200.18 93.6137 200.074 93.5853 199.981 93.5311L187.859 86.4688C187.859 86.4686 187.858 86.4684 187.858 86.4681C187.765 86.413 187.687 86.3338 187.633 86.2389C187.579 86.1436 187.551 86.0352 187.551 85.9252V85.9247V71.7977V71.7959V71.794C187.55 71.6847 187.577 71.5772 187.63 71.4821C187.682 71.3877 187.758 71.3089 187.849 71.2531L199.981 64.1914L199.981 64.1914C200.074 64.1371 200.18 64.1086 200.287 64.1086C200.395 64.1086 200.5 64.1371 200.594 64.1914C200.594 64.1914 200.594 64.1914 200.594 64.1914L212.725 71.2549Z" fill="#FE5E24" stroke="#FE5E24"/>
<path d="M218.542 86.4441C218.541 86.9978 218.686 87.5419 218.961 88.0216C219.236 88.5012 219.631 88.8995 220.108 89.176L232.243 96.2393L232.243 96.2395C232.719 96.5155 233.259 96.6608 233.808 96.6608C234.357 96.6608 234.897 96.5155 235.373 96.2395L235.373 96.2393L247.512 89.1794L247.513 89.1787C247.988 88.9 248.382 88.5007 248.656 88.0211C248.929 87.5414 249.074 86.9978 249.074 86.4445V86.4443V72.3173V72.3164C249.073 71.7635 248.928 71.2206 248.655 70.7412C248.381 70.2618 247.988 69.8625 247.514 69.5832L247.512 69.5821L235.373 62.5224L235.373 62.5222C234.897 62.2461 234.357 62.1008 233.808 62.1008C233.259 62.1008 232.719 62.2461 232.243 62.5222L232.243 62.5224L220.108 69.5821L220.107 69.5827C219.631 69.8613 219.237 70.2603 218.963 70.7399C218.688 71.2195 218.543 71.763 218.542 72.3164V72.3173L218.542 86.4441ZM218.542 86.4441L218.908 86.4443H218.542V86.4441ZM246.246 71.7745L246.247 71.7753C246.342 71.83 246.422 71.909 246.477 72.0046C246.533 72.0999 246.562 72.2081 246.563 72.3187L246.556 86.4433V86.4436C246.555 86.5541 246.526 86.6622 246.472 86.7578C246.417 86.8531 246.339 86.9323 246.245 86.9877C246.245 86.9877 246.245 86.9877 246.245 86.9879L234.114 94.0507C234.021 94.1049 233.916 94.1333 233.808 94.1333C233.701 94.1333 233.595 94.1049 233.502 94.0507L221.38 86.9884C221.379 86.9882 221.379 86.9879 221.379 86.9877C221.285 86.9326 221.208 86.8534 221.154 86.7585C221.1 86.6632 221.071 86.5548 221.072 86.4448V86.4443V72.3173V72.3155V72.3136C221.071 72.2043 221.098 72.0968 221.15 72.0016C221.203 71.9073 221.278 71.8285 221.369 71.7727L233.502 64.711L233.502 64.711C233.595 64.6567 233.701 64.6282 233.808 64.6282C233.916 64.6282 234.021 64.6567 234.114 64.711C234.114 64.711 234.114 64.711 234.114 64.711L246.246 71.7745Z" fill="#FE5E24" stroke="#FE5E24"/>
<path d="M252.452 85.9245C252.452 86.4782 252.596 87.0223 252.871 87.502C253.146 87.9816 253.542 88.3799 254.019 88.6564L266.153 95.7197L266.154 95.7199C266.63 95.9959 267.169 96.1413 267.719 96.1413C268.268 96.1413 268.807 95.9959 269.283 95.7199L269.284 95.7197L281.423 88.6599L281.424 88.6591C281.899 88.3804 282.293 87.9812 282.566 87.5015C282.84 87.0218 282.984 86.4782 282.985 85.925V85.9247V71.7977V71.7968C282.983 71.244 282.839 70.701 282.565 70.2216C282.292 69.7422 281.899 69.343 281.424 69.0636L281.423 69.0625L269.284 62.0028L269.283 62.0026C268.807 61.7265 268.268 61.5812 267.719 61.5812C267.169 61.5812 266.63 61.7265 266.154 62.0026L266.153 62.0028L254.018 69.0625L254.017 69.0631C253.542 69.3417 253.148 69.7407 252.873 70.2203C252.599 70.6999 252.454 71.2434 252.452 71.7968V71.7977L252.452 85.9245ZM252.452 85.9245L252.819 85.9247H252.452V85.9245ZM280.156 71.2549L280.158 71.2557C280.253 71.3104 280.332 71.3894 280.388 71.485C280.443 71.5803 280.473 71.6886 280.474 71.7991L280.466 85.9237V85.924C280.466 86.0345 280.437 86.1426 280.382 86.2382C280.328 86.3335 280.25 86.4127 280.156 86.4681C280.155 86.4681 280.155 86.4681 280.155 86.4684L268.025 93.5311C267.932 93.5853 267.826 93.6137 267.719 93.6137C267.611 93.6137 267.505 93.5853 267.412 93.5311L255.29 86.4688C255.29 86.4686 255.289 86.4684 255.289 86.4681C255.196 86.413 255.118 86.3338 255.065 86.2389C255.01 86.1436 254.982 86.0352 254.982 85.9252V85.9247V71.7977V71.7959V71.794C254.981 71.6847 255.008 71.5772 255.061 71.4821C255.113 71.3877 255.189 71.3089 255.28 71.2531L267.412 64.1914L267.412 64.1914C267.505 64.1371 267.611 64.1086 267.719 64.1086C267.826 64.1086 267.932 64.1371 268.025 64.1914C268.025 64.1914 268.025 64.1914 268.025 64.1914L280.156 71.2549Z" fill="#FE5E24" stroke="#FE5E24"/>
<path d="M285.973 86.4441C285.973 86.9978 286.117 87.5419 286.392 88.0216C286.667 88.5012 287.062 88.8995 287.539 89.176L299.674 96.2393L299.674 96.2395C300.15 96.5155 300.69 96.6608 301.239 96.6608C301.788 96.6608 302.328 96.5155 302.804 96.2395L302.804 96.2393L314.943 89.1794L314.945 89.1787C315.419 88.9 315.813 88.5007 316.087 88.0211C316.361 87.5414 316.505 86.9978 316.505 86.4445V86.4443V72.3173V72.3164C316.504 71.7635 316.359 71.2206 316.086 70.7412C315.812 70.2618 315.419 69.8625 314.945 69.5832L314.943 69.5821L302.804 62.5224L302.804 62.5222C302.328 62.2461 301.788 62.1008 301.239 62.1008C300.69 62.1008 300.15 62.2461 299.674 62.5222L299.674 62.5224L287.539 69.5821L287.538 69.5827C287.063 69.8613 286.668 70.2603 286.394 70.7399C286.119 71.2195 285.974 71.763 285.973 72.3164V72.3173L285.973 86.4441ZM285.973 86.4441L286.339 86.4443H285.973V86.4441ZM313.677 71.7745L313.679 71.7753C313.774 71.83 313.853 71.909 313.908 72.0046C313.964 72.0999 313.993 72.2081 313.994 72.3187L313.987 86.4433V86.4436C313.986 86.5541 313.957 86.6622 313.903 86.7578C313.848 86.8531 313.77 86.9323 313.676 86.9877C313.676 86.9877 313.676 86.9877 313.676 86.9879L301.546 94.0507C301.452 94.1049 301.347 94.1333 301.239 94.1333C301.132 94.1333 301.026 94.1049 300.933 94.0507L288.811 86.9884C288.81 86.9882 288.81 86.9879 288.81 86.9877C288.717 86.9326 288.639 86.8534 288.585 86.7585C288.531 86.6632 288.503 86.5548 288.503 86.4448V86.4443V72.3173V72.3155V72.3136C288.502 72.2043 288.529 72.0968 288.582 72.0016C288.634 71.9073 288.709 71.8285 288.801 71.7727L300.933 64.711L300.933 64.711C301.026 64.6567 301.132 64.6282 301.239 64.6282C301.347 64.6282 301.452 64.6567 301.546 64.711C301.546 64.711 301.546 64.711 301.546 64.711L313.677 71.7745Z" fill="#FE5E24" stroke="#FE5E24"/>
<path d="M319.217 86.3433C319.216 86.897 319.361 87.4411 319.635 87.9208C319.91 88.4005 320.306 88.7988 320.783 89.0752L332.918 96.1385L332.918 96.1387C333.394 96.4147 333.934 96.5601 334.483 96.5601C335.032 96.5601 335.572 96.4147 336.047 96.1387L336.048 96.1385L348.187 89.0787L348.188 89.0779C348.663 88.7993 349.057 88.4 349.33 87.9203C349.604 87.4406 349.748 86.897 349.749 86.3438V86.3435V72.2165V72.2156C349.747 71.6628 349.603 71.1198 349.329 70.6404C349.056 70.161 348.663 69.7618 348.189 69.4824L348.187 69.4813L336.048 62.4216L336.047 62.4214C335.572 62.1453 335.032 62 334.483 62C333.934 62 333.394 62.1453 332.918 62.4214L332.918 62.4216L320.782 69.4813L320.781 69.482C320.306 69.7605 319.912 70.1595 319.637 70.6391C319.363 71.1187 319.218 71.6622 319.217 72.2156V72.2165L319.217 86.3433ZM319.217 86.3433L319.583 86.3435H319.217V86.3433ZM346.921 71.6737L346.922 71.6745C347.017 71.7292 347.096 71.8083 347.152 71.9039C347.207 71.9991 347.237 72.1074 347.238 72.2179L347.23 86.3426V86.3428C347.23 86.4533 347.201 86.5614 347.146 86.657C347.092 86.7524 347.014 86.8315 346.92 86.8869C346.92 86.8869 346.92 86.8869 346.919 86.8872L334.789 93.9499C334.696 94.0041 334.59 94.0325 334.483 94.0325C334.375 94.0325 334.27 94.0041 334.176 93.9499L322.054 86.8877C322.054 86.8874 322.054 86.8872 322.053 86.8869C321.96 86.8318 321.883 86.7526 321.829 86.6578C321.775 86.5624 321.746 86.4541 321.746 86.344V86.3435V72.2165V72.2147V72.2128C321.745 72.1036 321.772 71.996 321.825 71.9009C321.877 71.8066 321.953 71.7277 322.044 71.6719L334.176 64.6103L334.176 64.6102C334.27 64.556 334.375 64.5274 334.483 64.5274C334.59 64.5274 334.696 64.556 334.789 64.6102C334.789 64.6102 334.789 64.6102 334.789 64.6102L346.921 71.6737Z" fill="#FE5E24" stroke="#FE5E24"/>
<path d="M334.994 115.733C334.994 116.287 335.138 116.831 335.413 117.31C335.688 117.79 336.084 118.188 336.56 118.465L348.695 125.528L348.696 125.528C349.171 125.804 349.711 125.95 350.26 125.95C350.81 125.95 351.349 125.804 351.825 125.528L351.825 125.528L363.964 118.468L363.966 118.468C364.441 118.189 364.834 117.79 365.108 117.31C365.382 116.83 365.526 116.287 365.526 115.733V115.733V101.606V101.605C365.525 101.052 365.38 100.509 365.107 100.03C364.833 99.5507 364.44 99.1514 363.966 98.8721L363.964 98.871L351.825 91.8112L351.825 91.811C351.349 91.535 350.81 91.3896 350.26 91.3896C349.711 91.3896 349.171 91.535 348.696 91.811L348.695 91.8113L336.56 98.871L336.559 98.8716C336.084 99.1502 335.689 99.5492 335.415 100.029C335.141 100.508 334.995 101.052 334.994 101.605V101.606L334.994 115.733ZM334.994 115.733L335.36 115.733H334.994V115.733ZM362.698 101.063L362.7 101.064C362.795 101.119 362.874 101.198 362.929 101.294C362.985 101.389 363.014 101.497 363.015 101.608L363.008 115.732V115.732C363.007 115.843 362.979 115.951 362.924 116.047C362.869 116.142 362.791 116.221 362.697 116.277C362.697 116.277 362.697 116.277 362.697 116.277L350.567 123.34C350.473 123.394 350.368 123.422 350.26 123.422C350.153 123.422 350.047 123.394 349.954 123.34L337.832 116.277C337.831 116.277 337.831 116.277 337.831 116.277C337.738 116.221 337.66 116.142 337.606 116.047C337.552 115.952 337.524 115.844 337.524 115.734V115.733V101.606V101.604V101.602C337.523 101.493 337.55 101.386 337.603 101.291C337.655 101.196 337.73 101.117 337.822 101.062L349.954 93.9999L349.954 93.9999C350.047 93.9456 350.153 93.9171 350.26 93.9171C350.368 93.9171 350.473 93.9456 350.567 93.9999C350.567 93.9999 350.567 93.9999 350.567 93.9999L362.698 101.063Z" fill="#FE5E24" stroke="#FE5E24"/>
<path d="M318.494 145.568C318.493 146.122 318.638 146.666 318.913 147.146C319.188 147.625 319.583 148.024 320.06 148.3L332.195 155.363L332.195 155.364C332.671 155.64 333.211 155.785 333.76 155.785C334.309 155.785 334.849 155.64 335.325 155.364L335.325 155.363L347.464 148.304L347.465 148.303C347.94 148.024 348.334 147.625 348.607 147.145C348.881 146.666 349.026 146.122 349.026 145.569V145.569V131.442V131.441C349.025 130.888 348.88 130.345 348.606 129.865C348.333 129.386 347.94 128.987 347.466 128.707L347.464 128.706L335.325 121.647L335.325 121.646C334.849 121.37 334.309 121.225 333.76 121.225C333.211 121.225 332.671 121.37 332.195 121.646L332.195 121.647L320.06 128.706L320.058 128.707C319.583 128.986 319.189 129.385 318.915 129.864C318.64 130.344 318.495 130.887 318.494 131.441V131.442L318.494 145.568ZM318.494 145.568L318.86 145.569H318.494V145.568ZM346.198 130.899L346.199 130.9C346.294 130.954 346.373 131.033 346.429 131.129C346.484 131.224 346.514 131.332 346.515 131.443L346.508 145.568V145.568C346.507 145.678 346.478 145.786 346.424 145.882C346.369 145.977 346.291 146.057 346.197 146.112C346.197 146.112 346.197 146.112 346.197 146.112L334.066 153.175C333.973 153.229 333.867 153.258 333.76 153.258C333.652 153.258 333.547 153.229 333.454 153.175L321.331 146.113C321.331 146.112 321.331 146.112 321.33 146.112C321.237 146.057 321.16 145.978 321.106 145.883C321.052 145.787 321.023 145.679 321.023 145.569V145.569V131.442V131.44V131.438C321.022 131.329 321.05 131.221 321.102 131.126C321.155 131.032 321.23 130.953 321.321 130.897L333.453 123.835L333.454 123.835C333.547 123.781 333.652 123.752 333.76 123.752C333.867 123.752 333.973 123.781 334.066 123.835C334.066 123.835 334.066 123.835 334.066 123.835L346.198 130.899Z" fill="#FE5E24" stroke="#FE5E24"/>
<path d="M118.243 86.0544C118.242 86.6081 118.387 87.1522 118.662 87.6319C118.936 88.1116 119.332 88.5099 119.809 88.7864L131.944 95.8496L131.944 95.8499C132.42 96.1259 132.96 96.2712 133.509 96.2712C134.058 96.2712 134.598 96.1259 135.073 95.8499L135.074 95.8496L147.213 88.7898L147.214 88.7891C147.689 88.5104 148.083 88.1111 148.356 87.6314C148.63 87.1518 148.775 86.6081 148.775 86.0549V86.0547V71.9277V71.9268C148.774 71.3739 148.629 70.8309 148.355 70.3515C148.082 69.8721 147.689 69.4729 147.215 69.1935L147.213 69.1924L135.074 62.1327L135.073 62.1325C134.598 61.8565 134.058 61.7111 133.509 61.7111C132.96 61.7111 132.42 61.8565 131.944 62.1325L131.944 62.1327L119.808 69.1924L119.807 69.1931C119.332 69.4716 118.938 69.8707 118.663 70.3502C118.389 70.8298 118.244 71.3733 118.243 71.9267V71.9277L118.243 86.0544ZM118.243 86.0544L118.609 86.0547H118.243V86.0544ZM145.947 71.3848L145.948 71.3857C146.043 71.4404 146.122 71.5194 146.178 71.615C146.233 71.7102 146.263 71.8185 146.264 71.9291L146.256 86.0537V86.0539C146.256 86.1645 146.227 86.2726 146.172 86.3681C146.118 86.4635 146.04 86.5427 145.946 86.5981C145.946 86.5981 145.946 86.5981 145.946 86.5983L133.815 93.6611C133.722 93.7152 133.616 93.7437 133.509 93.7437C133.401 93.7437 133.296 93.7152 133.202 93.6611L121.08 86.5988C121.08 86.5985 121.08 86.5983 121.079 86.5981C120.986 86.5429 120.909 86.4637 120.855 86.3689C120.801 86.2735 120.772 86.1652 120.772 86.0551V86.0547V71.9277V71.9258V71.9239C120.771 71.8147 120.798 71.7071 120.851 71.612C120.904 71.5177 120.979 71.4389 121.07 71.383L133.202 64.3214L133.202 64.3214C133.296 64.2671 133.401 64.2386 133.509 64.2386C133.616 64.2386 133.722 64.2671 133.815 64.3214C133.815 64.3214 133.815 64.3214 133.815 64.3214L145.947 71.3848Z" fill="#FE5E24" stroke="#FE5E24"/>
<path d="M68.2215 115.733C68.2211 116.287 68.3655 116.831 68.6404 117.31C68.9154 117.79 69.311 118.188 69.7877 118.465L81.9226 125.528L81.923 125.528C82.3989 125.804 82.9385 125.95 83.4877 125.95C84.0369 125.95 84.5765 125.804 85.0523 125.528L85.0527 125.528L97.1919 118.468L97.1931 118.468C97.6679 118.189 98.0617 117.79 98.3352 117.31C98.6091 116.83 98.7534 116.287 98.7539 115.733V115.733V101.606V101.605C98.7524 101.052 98.6078 100.509 98.3343 100.03C98.0607 99.5507 97.6677 99.1514 97.1936 98.8721L97.1919 98.871L85.0527 91.8112L85.0524 91.811C84.5765 91.535 84.0369 91.3896 83.4877 91.3896C82.9385 91.3896 82.3989 91.535 81.923 91.811L81.9226 91.8113L69.7873 98.871L69.7862 98.8716C69.3111 99.1502 68.9168 99.5492 68.6424 100.029C68.368 100.508 68.2229 101.052 68.2215 101.605V101.606L68.2215 115.733ZM68.2215 115.733L68.5879 115.733H68.2215V115.733ZM95.9256 101.063L95.9271 101.064C96.0221 101.119 96.1012 101.198 96.1567 101.294C96.2121 101.389 96.2417 101.497 96.2427 101.608L96.2353 115.732V115.732C96.2349 115.843 96.206 115.951 96.1513 116.047C96.0968 116.142 96.0187 116.221 95.9249 116.277C95.9246 116.277 95.9246 116.277 95.9244 116.277L83.7941 123.34C83.7008 123.394 83.5952 123.422 83.4877 123.422C83.3802 123.422 83.2746 123.394 83.1813 123.34L71.0592 116.277C71.0589 116.277 71.0586 116.277 71.0583 116.277C70.9651 116.221 70.8876 116.142 70.8337 116.047C70.7796 115.952 70.7511 115.844 70.7513 115.734V115.733V101.606V101.604V101.602C70.7501 101.493 70.7774 101.386 70.8301 101.291C70.8824 101.196 70.9579 101.117 71.049 101.062L83.1813 93.9999L83.1813 93.9999C83.2746 93.9456 83.3802 93.9171 83.4877 93.9171C83.5951 93.9171 83.7008 93.9456 83.7941 93.9999C83.7941 93.9999 83.7941 93.9999 83.7941 93.9999L95.9256 101.063Z" fill="#FE5E24" stroke="#FE5E24"/>
<path d="M84.7219 86.4441C84.7214 86.9978 84.8659 87.5419 85.1408 88.0216C85.4157 88.5012 85.8114 88.8995 86.2881 89.176L98.4229 96.2393L98.4234 96.2395C98.8993 96.5155 99.4388 96.6608 99.9881 96.6608C100.537 96.6608 101.077 96.5155 101.553 96.2395L101.553 96.2393L113.692 89.1794L113.693 89.1787C114.168 88.9 114.562 88.5007 114.836 88.0211C115.109 87.5414 115.254 86.9978 115.254 86.4445V86.4443V72.3173V72.3164C115.253 71.7635 115.108 71.2206 114.835 70.7412C114.561 70.2618 114.168 69.8625 113.694 69.5832L113.692 69.5821L101.553 62.5224L101.553 62.5222C101.077 62.2461 100.537 62.1008 99.9881 62.1008C99.4388 62.1008 98.8993 62.2461 98.4234 62.5222L98.423 62.5224L86.2877 69.5821L86.2866 69.5827C85.8115 69.8613 85.4172 70.2603 85.1427 70.7399C84.8683 71.2195 84.7233 71.763 84.7219 72.3164V72.3173L84.7219 86.4441ZM84.7219 86.4441L85.0883 86.4443H84.7219V86.4441ZM112.426 71.7745L112.427 71.7753C112.522 71.83 112.602 71.909 112.657 72.0046C112.713 72.0999 112.742 72.2081 112.743 72.3187L112.736 86.4433V86.4436C112.735 86.5541 112.706 86.6622 112.652 86.7578C112.597 86.8531 112.519 86.9323 112.425 86.9877C112.425 86.9877 112.425 86.9877 112.425 86.9879L100.294 94.0507C100.201 94.1049 100.096 94.1333 99.9881 94.1333C99.8806 94.1333 99.7749 94.1049 99.6817 94.0507L87.5596 86.9884C87.5593 86.9882 87.5589 86.9879 87.5586 86.9877C87.4655 86.9326 87.388 86.8534 87.3341 86.7585C87.2799 86.6632 87.2515 86.5548 87.2516 86.4448V86.4443V72.3173V72.3155V72.3136C87.2505 72.2043 87.2777 72.0968 87.3305 72.0016C87.3828 71.9073 87.4583 71.8285 87.5494 71.7727L99.6816 64.711L99.6817 64.711C99.7749 64.6567 99.8806 64.6282 99.9881 64.6282C100.096 64.6282 100.201 64.6567 100.294 64.711C100.294 64.711 100.294 64.711 100.294 64.711L112.426 71.7745Z" fill="#FE5E24" stroke="#FE5E24"/>
<path d="M168.081 56.3806C168.08 56.9343 168.225 57.4785 168.5 57.9581C168.775 58.4378 169.17 58.8361 169.647 59.1126L181.782 66.1758L181.782 66.1761C182.258 66.4521 182.798 66.5974 183.347 66.5974C183.896 66.5974 184.436 66.4521 184.912 66.1761L184.912 66.1758L197.051 59.116L197.052 59.1153C197.527 58.8366 197.921 58.4373 198.195 57.9577C198.468 57.478 198.613 56.9343 198.613 56.3811V56.3809V42.2539V42.253C198.612 41.7001 198.467 41.1571 198.194 40.6778C197.92 40.1984 197.527 39.7991 197.053 39.5198L197.051 39.5187L184.912 32.4589L184.912 32.4587C184.436 32.1827 183.896 32.0374 183.347 32.0374C182.798 32.0374 182.258 32.1827 181.782 32.4587L181.782 32.459L169.647 39.5187L169.646 39.5193C169.17 39.7979 168.776 40.1969 168.502 40.6765C168.227 41.156 168.082 41.6995 168.081 42.253V42.2539L168.081 56.3806ZM168.081 56.3806L168.447 56.3809H168.081V56.3806ZM195.785 41.7111L195.786 41.7119C195.881 41.7666 195.961 41.8456 196.016 41.9412C196.071 42.0364 196.101 42.1447 196.102 42.2553L196.095 56.3799V56.3801C196.094 56.4907 196.065 56.5988 196.011 56.6944C195.956 56.7897 195.878 56.8689 195.784 56.9243C195.784 56.9243 195.784 56.9243 195.784 56.9245L183.653 63.9873C183.56 64.0415 183.454 64.0699 183.347 64.0699C183.24 64.0699 183.134 64.0415 183.041 63.9873L170.919 56.925C170.918 56.9248 170.918 56.9245 170.918 56.9243C170.824 56.8691 170.747 56.79 170.693 56.6951C170.639 56.5998 170.61 56.4914 170.611 56.3814V56.3809V42.2539V42.252V42.2502C170.609 42.1409 170.637 42.0334 170.689 41.9382C170.742 41.8439 170.817 41.7651 170.908 41.7093L183.041 34.6476L183.041 34.6476C183.134 34.5933 183.24 34.5648 183.347 34.5648C183.454 34.5648 183.56 34.5933 183.653 34.6476C183.653 34.6476 183.653 34.6476 183.653 34.6476L195.785 41.7111Z" fill="#FE5E24" stroke="#FE5E24"/>
<path d="M134.823 55.9907C134.822 56.5444 134.967 57.0886 135.242 57.5683C135.517 58.0479 135.912 58.4462 136.389 58.7227L148.524 65.786L148.524 65.7862C149 66.0622 149.54 66.2075 150.089 66.2075C150.638 66.2075 151.178 66.0622 151.654 65.7862L151.654 65.786L163.793 58.7261L163.794 58.7254C164.269 58.4467 164.663 58.0474 164.936 57.5678C165.21 57.0881 165.355 56.5444 165.355 55.9912V55.991V41.864V41.8631C165.354 41.3102 165.209 40.7673 164.936 40.2879C164.662 39.8085 164.269 39.4092 163.795 39.1299L163.793 39.1288L151.654 32.0691L151.654 32.0688C151.178 31.7928 150.638 31.6475 150.089 31.6475C149.54 31.6475 149 31.7928 148.524 32.0688L148.524 32.0691L136.389 39.1288L136.387 39.1294C135.912 39.408 135.518 39.807 135.244 40.2866C134.969 40.7661 134.824 41.3096 134.823 41.8631V41.864L134.823 55.9907ZM134.823 55.9907L135.189 55.991H134.823V55.9907ZM162.527 41.3212L162.528 41.322C162.623 41.3767 162.703 41.4557 162.758 41.5513C162.813 41.6465 162.843 41.7548 162.844 41.8654L162.837 55.99V55.9903C162.836 56.1008 162.807 56.2089 162.753 56.3045C162.698 56.3998 162.62 56.479 162.526 56.5344C162.526 56.5344 162.526 56.5344 162.526 56.5346L150.395 63.5974C150.302 63.6516 150.196 63.68 150.089 63.68C149.981 63.68 149.876 63.6516 149.783 63.5974L137.66 56.5351C137.66 56.5349 137.66 56.5346 137.66 56.5344C137.566 56.4792 137.489 56.4001 137.435 56.3052C137.381 56.2099 137.352 56.1015 137.353 55.9915V55.991V41.864V41.8621V41.8603C137.351 41.751 137.379 41.6435 137.431 41.5483C137.484 41.454 137.559 41.3752 137.65 41.3194L149.783 34.2577L149.783 34.2577C149.876 34.2034 149.982 34.1749 150.089 34.1749C150.196 34.1749 150.302 34.2034 150.395 34.2577C150.395 34.2577 150.395 34.2577 150.395 34.2577L162.527 41.3212Z" fill="#FE5E24" stroke="#FE5E24"/>
<path d="M184.711 26.3433C184.711 26.897 184.855 27.4411 185.13 27.9208C185.405 28.4005 185.801 28.7988 186.277 29.0752L198.412 36.1385L198.413 36.1387C198.889 36.4147 199.428 36.5601 199.977 36.5601C200.527 36.5601 201.066 36.4147 201.542 36.1387L201.542 36.1385L213.681 29.0787L213.683 29.0779C214.158 28.7993 214.551 28.4 214.825 27.9203C215.099 27.4406 215.243 26.897 215.244 26.3438V26.3435V12.2165V12.2156C215.242 11.6628 215.097 11.1198 214.824 10.6404C214.55 10.161 214.157 9.76178 213.683 9.4824L213.681 9.48133L201.542 2.42159L201.542 2.42139C201.066 2.14535 200.527 2 199.977 2C199.428 2 198.889 2.14535 198.413 2.42139L198.412 2.42162L186.277 9.48133L186.276 9.48196C185.801 9.76053 185.406 10.1595 185.132 10.6391C184.858 11.1187 184.713 11.6622 184.711 12.2156V12.2165L184.711 26.3433ZM184.711 26.3433L185.078 26.3435H184.711V26.3433ZM212.415 11.6737L212.417 11.6745C212.512 11.7292 212.591 11.8083 212.646 11.9039C212.702 11.9991 212.731 12.1074 212.732 12.2179L212.725 26.3426V26.3428C212.724 26.4533 212.696 26.5614 212.641 26.657C212.586 26.7524 212.508 26.8315 212.415 26.8869C212.414 26.8869 212.414 26.8869 212.414 26.8872L200.284 33.9499C200.19 34.0041 200.085 34.0325 199.977 34.0325C199.87 34.0325 199.764 34.0041 199.671 33.9499L187.549 26.8877C187.549 26.8874 187.548 26.8872 187.548 26.8869C187.455 26.8318 187.377 26.7526 187.323 26.6578C187.269 26.5624 187.241 26.4541 187.241 26.344V26.3435V12.2165V12.2147V12.2128C187.24 12.1036 187.267 11.996 187.32 11.9009C187.372 11.8066 187.448 11.7277 187.539 11.6719L199.671 4.61027L199.671 4.61024C199.764 4.55595 199.87 4.52744 199.977 4.52744C200.085 4.52744 200.19 4.55595 200.284 4.61024C200.284 4.61024 200.284 4.61024 200.284 4.61024L212.415 11.6737Z" fill="#FE5E24" stroke="#FE5E24"/>
<path d="M1 56.3806C0.999583 56.9343 1.14405 57.4785 1.41895 57.9581C1.69386 58.4378 2.08953 58.8361 2.5662 59.1126L14.7011 66.1758L14.7015 66.1761C15.1774 66.4521 15.717 66.5974 16.2662 66.5974C16.8154 66.5974 17.355 66.4521 17.8309 66.1761L17.8312 66.1758L29.9704 59.116L29.9716 59.1153C30.4464 58.8366 30.8402 58.4373 31.1137 57.9577C31.3876 57.478 31.5319 56.9343 31.5324 56.3811V56.3809V42.2539V42.253C31.5309 41.7001 31.3863 41.1571 31.1128 40.6778C30.8392 40.1984 30.4462 39.7991 29.9721 39.5198L29.9704 39.5187L17.8312 32.4589L17.8309 32.4587C17.355 32.1827 16.8154 32.0374 16.2662 32.0374C15.717 32.0374 15.1774 32.1827 14.7015 32.4587L14.7011 32.459L2.5658 39.5187L2.56472 39.5193C2.08961 39.7979 1.69531 40.1969 1.42088 40.6765C1.14646 41.156 1.0014 41.6995 1 42.253V42.2539L1 56.3806ZM1 56.3806L1.36639 56.3809H1V56.3806ZM28.7041 41.7111L28.7056 41.7119C28.8006 41.7666 28.8797 41.8456 28.9352 41.9412C28.9906 42.0364 29.0202 42.1447 29.0212 42.2553L29.0138 56.3799V56.3801C29.0134 56.4907 28.9845 56.5988 28.9298 56.6944C28.8754 56.7897 28.7972 56.8689 28.7034 56.9243C28.7031 56.9243 28.7031 56.9243 28.7029 56.9245L16.5726 63.9873C16.4793 64.0415 16.3737 64.0699 16.2662 64.0699C16.1587 64.0699 16.0531 64.0415 15.9598 63.9873L3.83771 56.925C3.83739 56.9248 3.83707 56.9245 3.83675 56.9243C3.74359 56.8691 3.66611 56.79 3.61221 56.6951C3.55808 56.5998 3.52962 56.4914 3.52977 56.3814V56.3809V42.2539V42.252V42.2502C3.52865 42.1409 3.55588 42.0334 3.60862 41.9382C3.66091 41.8439 3.73639 41.7651 3.82755 41.7093L15.9598 34.6476L15.9598 34.6476C16.0531 34.5933 16.1588 34.5648 16.2662 34.5648C16.3737 34.5648 16.4793 34.5933 16.5726 34.6476C16.5726 34.6476 16.5726 34.6476 16.5726 34.6476L28.7041 41.7111Z" fill="#FE5E24" stroke="#FE5E24"/>
<path d="M51.1512 27.1867C51.1508 27.7404 51.2952 28.2846 51.5701 28.7642C51.845 29.2439 52.2407 29.6422 52.7174 29.9187L64.8522 36.9819L64.8527 36.9822C65.3286 37.2582 65.8681 37.4035 66.4174 37.4035C66.9666 37.4035 67.5062 37.2582 67.982 36.9822L67.9824 36.9819L80.1215 29.9221L80.1228 29.9214C80.5976 29.6427 80.9914 29.2434 81.2649 28.7637C81.5387 28.2841 81.6831 27.7404 81.6836 27.1872V27.187V13.06V13.0591C81.6821 12.5062 81.5375 11.9632 81.2639 11.4839C80.9904 11.0045 80.5974 10.6052 80.1233 10.3258L80.1215 10.3248L67.9824 3.26504L67.9821 3.26483C67.5062 2.98879 66.9666 2.84344 66.4174 2.84344C65.8681 2.84344 65.3286 2.98879 64.8527 3.26483L64.8523 3.26506L52.717 10.3248L52.7159 10.3254C52.2408 10.604 51.8465 11.003 51.5721 11.4826C51.2976 11.9621 51.1526 12.5056 51.1512 13.0591V13.06L51.1512 27.1867ZM51.1512 27.1867L51.5176 27.187H51.1512V27.1867ZM78.8553 12.5172L78.8568 12.518C78.9518 12.5727 79.0309 12.6517 79.0864 12.7473C79.1418 12.8425 79.1714 12.9508 79.1724 13.0614L79.165 27.186V27.1862C79.1645 27.2968 79.1357 27.4049 79.081 27.5005C79.0265 27.5958 78.9484 27.675 78.8546 27.7304C78.8543 27.7304 78.8543 27.7304 78.8541 27.7306L66.7238 34.7934C66.6305 34.8475 66.5249 34.876 66.4174 34.876C66.3099 34.876 66.2042 34.8475 66.111 34.7934L53.9889 27.7311C53.9886 27.7309 53.9883 27.7306 53.9879 27.7304C53.8948 27.6752 53.8173 27.5961 53.7634 27.5012C53.7093 27.4059 53.6808 27.2975 53.681 27.1875V27.187V13.06V13.0581V13.0562C53.6798 12.947 53.7071 12.8395 53.7598 12.7443C53.8121 12.65 53.8876 12.5712 53.9787 12.5154L66.111 5.45371L66.111 5.45369C66.2042 5.3994 66.3099 5.37089 66.4174 5.37089C66.5248 5.37089 66.6305 5.3994 66.7238 5.45369C66.7238 5.45369 66.7238 5.45369 66.7238 5.45369L78.8553 12.5172Z" fill="#FE5E24" stroke="#FE5E24"/>
<path d="M101.302 56.3806C101.302 56.9343 101.446 57.4785 101.721 57.9581C101.996 58.4378 102.392 58.8361 102.868 59.1126L115.003 66.1758L115.004 66.1761C115.48 66.4521 116.019 66.5974 116.568 66.5974C117.118 66.5974 117.657 66.4521 118.133 66.1761L118.133 66.1758L130.273 59.116L130.274 59.1153C130.749 58.8366 131.142 58.4373 131.416 57.9577C131.69 57.478 131.834 56.9343 131.835 56.3811V56.3809V42.2539V42.253C131.833 41.7001 131.688 41.1571 131.415 40.6778C131.141 40.1984 130.748 39.7991 130.274 39.5198L130.273 39.5187L118.133 32.4589L118.133 32.4587C117.657 32.1827 117.118 32.0374 116.568 32.0374C116.019 32.0374 115.48 32.1827 115.004 32.4587L115.003 32.459L102.868 39.5187L102.867 39.5193C102.392 39.7979 101.997 40.1969 101.723 40.6765C101.449 41.156 101.304 41.6995 101.302 42.253V42.2539L101.302 56.3806ZM101.302 56.3806L101.669 56.3809H101.302V56.3806ZM129.006 41.7111L129.008 41.7119C129.103 41.7666 129.182 41.8456 129.237 41.9412C129.293 42.0364 129.322 42.1447 129.323 42.2553L129.316 56.3799V56.3801C129.316 56.4907 129.287 56.5988 129.232 56.6944C129.178 56.7897 129.099 56.8689 129.006 56.9243C129.005 56.9243 129.005 56.9243 129.005 56.9245L116.875 63.9873C116.781 64.0415 116.676 64.0699 116.568 64.0699C116.461 64.0699 116.355 64.0415 116.262 63.9873L104.14 56.925C104.14 56.9248 104.139 56.9245 104.139 56.9243C104.046 56.8691 103.968 56.79 103.914 56.6951C103.86 56.5998 103.832 56.4914 103.832 56.3814V56.3809V42.2539V42.252V42.2502C103.831 42.1409 103.858 42.0334 103.911 41.9382C103.963 41.8439 104.039 41.7651 104.13 41.7093L116.262 34.6476L116.262 34.6476C116.355 34.5933 116.461 34.5648 116.568 34.5648C116.676 34.5648 116.781 34.5933 116.875 34.6476C116.875 34.6476 116.875 34.6476 116.875 34.6476L129.006 41.7111Z" fill="#FE5E24" stroke="#FE5E24"/>
<path d="M269.032 55.341C269.032 55.8947 269.177 56.4388 269.451 56.9185C269.726 57.3981 270.122 57.7964 270.599 58.0729L282.734 65.1362L282.734 65.1364C283.21 65.4124 283.749 65.5578 284.299 65.5578C284.848 65.5578 285.387 65.4124 285.863 65.1364L285.864 65.1362L298.003 58.0764L298.004 58.0756C298.479 57.7969 298.873 57.3977 299.146 56.918C299.42 56.4383 299.564 55.8947 299.565 55.3415V55.3412V41.2142V41.2133C299.563 40.6605 299.419 40.1175 299.145 39.6381C298.872 39.1587 298.479 38.7595 298.005 38.4801L298.003 38.479L285.864 31.4193L285.863 31.4191C285.387 31.143 284.848 30.9977 284.299 30.9977C283.749 30.9977 283.21 31.143 282.734 31.4191L282.734 31.4193L270.598 38.479L270.597 38.4796C270.122 38.7582 269.728 39.1572 269.453 39.6368C269.179 40.1164 269.034 40.6599 269.032 41.2133V41.2142L269.032 55.341ZM269.032 55.341L269.399 55.3412H269.032V55.341ZM296.737 40.6714L296.738 40.6722C296.833 40.7269 296.912 40.806 296.968 40.9015C297.023 40.9968 297.053 41.1051 297.054 41.2156L297.046 55.3402V55.3405C297.046 55.451 297.017 55.5591 296.962 55.6547C296.908 55.75 296.83 55.8292 296.736 55.8846C296.736 55.8846 296.736 55.8846 296.735 55.8849L284.605 62.9476C284.512 63.0018 284.406 63.0302 284.299 63.0302C284.191 63.0302 284.086 63.0018 283.992 62.9476L271.87 55.8853C271.87 55.8851 271.87 55.8849 271.869 55.8846C271.776 55.8295 271.699 55.7503 271.645 55.6554C271.591 55.5601 271.562 55.4518 271.562 55.3417V55.3412V41.2142V41.2124V41.2105C271.561 41.1012 271.588 40.9937 271.641 40.8986C271.693 40.8042 271.769 40.7254 271.86 40.6696L283.992 33.6079L283.992 33.6079C284.086 33.5536 284.191 33.5251 284.299 33.5251C284.406 33.5251 284.512 33.5536 284.605 33.6079C284.605 33.6079 284.605 33.6079 284.605 33.6079L296.737 40.6714Z" fill="#FE5E24" stroke="#FE5E24"/>
<path d="M302.553 55.8606C302.553 56.4143 302.697 56.9584 302.972 57.4381C303.247 57.9177 303.643 58.316 304.119 58.5925L316.254 65.6558L316.255 65.656C316.731 65.932 317.27 66.0774 317.819 66.0774C318.369 66.0774 318.908 65.932 319.384 65.656L319.384 65.6558L331.524 58.596L331.525 58.5952C332 58.3165 332.393 57.9172 332.667 57.4376C332.941 56.9579 333.085 56.4143 333.086 55.861V55.8608V41.7338V41.7329C333.084 41.18 332.94 40.6371 332.666 40.1577C332.392 39.6783 331.999 39.279 331.525 38.9997L331.524 38.9986L319.384 31.9389L319.384 31.9387C318.908 31.6626 318.369 31.5173 317.819 31.5173C317.27 31.5173 316.731 31.6626 316.255 31.9387L316.254 31.9389L304.119 38.9986L304.118 38.9992C303.643 39.2778 303.249 39.6768 302.974 40.1564C302.7 40.636 302.555 41.1795 302.553 41.7329V41.7338L302.553 55.8606ZM302.553 55.8606L302.92 55.8608H302.553V55.8606ZM330.257 41.191L330.259 41.1918C330.354 41.2465 330.433 41.3255 330.488 41.4211C330.544 41.5164 330.573 41.6246 330.574 41.7352L330.567 55.8598V55.8601C330.567 55.9706 330.538 56.0787 330.483 56.1743C330.429 56.2696 330.35 56.3488 330.257 56.4042C330.256 56.4042 330.256 56.4042 330.256 56.4045L318.126 63.4672C318.033 63.5214 317.927 63.5498 317.819 63.5498C317.712 63.5498 317.606 63.5214 317.513 63.4672L305.391 56.4049C305.391 56.4047 305.39 56.4045 305.39 56.4042C305.297 56.3491 305.219 56.2699 305.165 56.175C305.111 56.0797 305.083 55.9713 305.083 55.8613V55.8608V41.7338V41.732V41.7301C305.082 41.6208 305.109 41.5133 305.162 41.4181C305.214 41.3238 305.29 41.245 305.381 41.1892L317.513 34.1275L317.513 34.1275C317.606 34.0732 317.712 34.0447 317.819 34.0447C317.927 34.0447 318.033 34.0732 318.126 34.1275C318.126 34.1275 318.126 34.1275 318.126 34.1275L330.257 41.191Z" fill="#FE5E24" stroke="#FE5E24"/>
<path d="M321.314 25.3433C321.313 25.897 321.458 26.4411 321.732 26.9208C322.007 27.4005 322.403 27.7988 322.88 28.0752L335.015 35.1385L335.015 35.1387C335.491 35.4147 336.03 35.5601 336.58 35.5601C337.129 35.5601 337.669 35.4147 338.144 35.1387L338.145 35.1385L350.284 28.0787L350.285 28.0779C350.76 27.7993 351.154 27.4 351.427 26.9203C351.701 26.4406 351.845 25.897 351.846 25.3438V25.3435V11.2165V11.2156C351.844 10.6628 351.7 10.1198 351.426 9.64041C351.153 9.16101 350.76 8.76178 350.286 8.4824L350.284 8.48133L338.145 1.42159L338.144 1.42139C337.669 1.14535 337.129 1 336.58 1C336.03 1 335.491 1.14535 335.015 1.42139L335.015 1.42162L322.879 8.48133L322.878 8.48196C322.403 8.76053 322.009 9.15954 321.734 9.63911C321.46 10.1187 321.315 10.6622 321.314 11.2156V11.2165L321.314 25.3433ZM321.314 25.3433L321.68 25.3435H321.314V25.3433ZM349.018 10.6737L349.019 10.6745C349.114 10.7292 349.193 10.8083 349.249 10.9039C349.304 10.9991 349.334 11.1074 349.335 11.2179L349.327 25.3426V25.3428C349.327 25.4533 349.298 25.5614 349.243 25.657C349.189 25.7524 349.111 25.8315 349.017 25.8869C349.017 25.8869 349.017 25.8869 349.016 25.8872L336.886 32.9499C336.793 33.0041 336.687 33.0325 336.58 33.0325C336.472 33.0325 336.367 33.0041 336.273 32.9499L324.151 25.8877C324.151 25.8874 324.151 25.8872 324.15 25.8869C324.057 25.8318 323.98 25.7526 323.926 25.6578C323.872 25.5624 323.843 25.4541 323.843 25.344V25.3435V11.2165V11.2147V11.2128C323.842 11.1036 323.869 10.996 323.922 10.9009C323.974 10.8066 324.05 10.7277 324.141 10.6719L336.273 3.61027L336.273 3.61024C336.367 3.55595 336.472 3.52744 336.58 3.52744C336.687 3.52744 336.793 3.55595 336.886 3.61024C336.886 3.61024 336.886 3.61024 336.886 3.61024L349.018 10.6737Z" fill="#FE5E24" stroke="#FE5E24"/>
<path d="M201.602 55.8606C201.601 56.4143 201.746 56.9584 202.02 57.4381C202.295 57.9177 202.691 58.316 203.168 58.5925L215.303 65.6558L215.303 65.656C215.779 65.932 216.318 66.0774 216.868 66.0774C217.417 66.0774 217.956 65.932 218.432 65.656L218.433 65.6558L230.572 58.596L230.573 58.5952C231.048 58.3165 231.442 57.9172 231.715 57.4376C231.989 56.9579 232.133 56.4143 232.134 55.861V55.8608V41.7338V41.7329C232.132 41.18 231.988 40.6371 231.714 40.1577C231.441 39.6783 231.048 39.279 230.574 38.9997L230.572 38.9986L218.433 31.9389L218.432 31.9387C217.956 31.6626 217.417 31.5173 216.868 31.5173C216.318 31.5173 215.779 31.6626 215.303 31.9387L215.303 31.9389L203.167 38.9986L203.166 38.9992C202.691 39.2778 202.297 39.6768 202.022 40.1564C201.748 40.636 201.603 41.1795 201.602 41.7329V41.7338L201.602 55.8606ZM201.602 55.8606L201.968 55.8608H201.602V55.8606ZM229.306 41.191L229.307 41.1918C229.402 41.2465 229.481 41.3255 229.537 41.4211C229.592 41.5164 229.622 41.6246 229.623 41.7352L229.615 55.8598V55.8601C229.615 55.9706 229.586 56.0787 229.531 56.1743C229.477 56.2696 229.399 56.3488 229.305 56.4042C229.305 56.4042 229.305 56.4042 229.304 56.4045L217.174 63.4672C217.081 63.5214 216.975 63.5498 216.868 63.5498C216.76 63.5498 216.655 63.5214 216.561 63.4672L204.439 56.4049C204.439 56.4047 204.439 56.4045 204.438 56.4042C204.345 56.3491 204.268 56.2699 204.214 56.175C204.16 56.0797 204.131 55.9713 204.131 55.8613V55.8608V41.7338V41.732V41.7301C204.13 41.6208 204.157 41.5133 204.21 41.4181C204.262 41.3238 204.338 41.245 204.429 41.1892L216.561 34.1275L216.561 34.1275C216.655 34.0732 216.76 34.0447 216.868 34.0447C216.975 34.0447 217.081 34.0732 217.174 34.1275C217.174 34.1275 217.174 34.1275 217.174 34.1275L229.306 41.191Z" fill="#FE5E24" stroke="#FE5E24"/>
<path d="M235.122 55.8606C235.122 56.4143 235.266 56.9584 235.541 57.4381C235.816 57.9177 236.212 58.316 236.688 58.5925L248.823 65.6558L248.824 65.656C249.3 65.932 249.839 66.0774 250.388 66.0774C250.938 66.0774 251.477 65.932 251.953 65.656L251.953 65.6558L264.092 58.596L264.094 58.5952C264.569 58.3165 264.962 57.9172 265.236 57.4376C265.51 56.9579 265.654 56.4143 265.655 55.861V55.8608V41.7338V41.7329C265.653 41.18 265.508 40.6371 265.235 40.1577C264.961 39.6783 264.568 39.279 264.094 38.9997L264.092 38.9986L251.953 31.9389L251.953 31.9387C251.477 31.6626 250.938 31.5173 250.388 31.5173C249.839 31.5173 249.3 31.6626 248.824 31.9387L248.823 31.9389L236.688 38.9986L236.687 38.9992C236.212 39.2778 235.817 39.6768 235.543 40.1564C235.269 40.636 235.124 41.1795 235.122 41.7329V41.7338L235.122 55.8606ZM235.122 55.8606L235.489 55.8608H235.122V55.8606ZM262.826 41.191L262.828 41.1918C262.923 41.2465 263.002 41.3255 263.057 41.4211C263.113 41.5164 263.142 41.6246 263.143 41.7352L263.136 55.8598V55.8601C263.135 55.9706 263.107 56.0787 263.052 56.1743C262.997 56.2696 262.919 56.3488 262.826 56.4042C262.825 56.4042 262.825 56.4042 262.825 56.4045L250.695 63.4672C250.601 63.5214 250.496 63.5498 250.388 63.5498C250.281 63.5498 250.175 63.5214 250.082 63.4672L237.96 56.4049C237.96 56.4047 237.959 56.4045 237.959 56.4042C237.866 56.3491 237.788 56.2699 237.734 56.175C237.68 56.0797 237.652 55.9713 237.652 55.8613V55.8608V41.7338V41.732V41.7301C237.651 41.6208 237.678 41.5133 237.731 41.4181C237.783 41.3238 237.859 41.245 237.95 41.1892L250.082 34.1275L250.082 34.1275C250.175 34.0732 250.281 34.0447 250.388 34.0447C250.496 34.0447 250.601 34.0732 250.695 34.1275C250.695 34.1275 250.695 34.1275 250.695 34.1275L262.826 41.191Z" fill="#FE5E24" stroke="#FE5E24"/>
<path d="M68.8533 58.0098L68.8533 58.0098L68.8507 58.0051C68.6218 57.6044 68.5 57.1376 68.5 56.656V42.344C68.5 41.8653 68.6204 41.4083 68.8533 40.9902L68.8533 40.9902L68.8553 40.9867C69.0735 40.5872 69.4031 40.2459 69.7937 40.0078C69.7942 40.0075 69.7947 40.0072 69.7951 40.0069L81.7161 32.8588L81.7161 32.8588L81.719 32.8571C82.1038 32.6227 82.5492 32.5 82.994 32.5C83.4389 32.5 83.8843 32.6227 84.2691 32.8571L84.2719 32.8587L96.2049 40.0192C96.2053 40.0195 96.2057 40.0197 96.2061 40.02C96.5955 40.2573 96.9151 40.5867 97.1467 41.0025C97.3796 41.4206 97.5 41.8776 97.5 42.3563V56.656C97.5 57.1347 97.3796 57.5917 97.1467 58.0098L97.1447 58.0133C96.9264 58.4128 96.5968 58.7541 96.2062 58.9923C96.2058 58.9925 96.2053 58.9928 96.2049 58.9931L84.2839 66.1412L84.281 66.143C83.8962 66.3773 83.4508 66.5 83.0059 66.5C82.5611 66.5 82.1157 66.3773 81.7309 66.1429L81.728 66.1412L69.8041 58.9913L69.8022 58.9902C69.4035 58.7535 69.0848 58.4253 68.8533 58.0098Z" fill="#FE5E24" stroke="#FE5E24"/>
<path d="M72.6321 55.5021L72.628 55.495L72.6237 55.4878C72.546 55.3566 72.5 55.1954 72.5 55.0204V43.9796C72.5 43.8134 72.5417 43.6544 72.6321 43.4979L72.6321 43.4979L72.6382 43.4871C72.7111 43.3586 72.8311 43.2335 72.9842 43.1428L82.518 37.6302L82.518 37.6303L82.5266 37.6253C82.6627 37.5453 82.8281 37.5 82.9952 37.5C83.1624 37.5 83.3278 37.5453 83.4639 37.6252L83.4639 37.6253L83.4721 37.63L93.0157 43.1523C93.165 43.2406 93.2813 43.3574 93.3679 43.5074C93.4583 43.6639 93.5 43.8229 93.5 43.9891V55.0204C93.5 55.1866 93.4583 55.3456 93.3679 55.5021L93.3679 55.5021L93.3618 55.5129C93.2889 55.6414 93.1689 55.7666 93.0157 55.8572L83.482 61.3698L83.482 61.3697L83.4734 61.3748C83.3373 61.4547 83.1719 61.5 83.0048 61.5C82.8376 61.5 82.6722 61.4547 82.5361 61.3748L82.5361 61.3747L82.5275 61.3698L72.9884 55.8541L72.9885 55.8541L72.9828 55.8509C72.8315 55.7643 72.7181 55.6511 72.6321 55.5021Z" fill="#FE5E24" stroke="#F3F3F3" stroke-width="3"/>
<path d="M53.1633 88.0098L53.1633 88.0098L53.1606 88.0051C52.9318 87.6044 52.81 87.1376 52.81 86.656V72.344C52.81 71.8653 52.9304 71.4083 53.1633 70.9902L53.1633 70.9902L53.1653 70.9867C53.3835 70.5872 53.7131 70.2459 54.1037 70.0078C54.1042 70.0075 54.1046 70.0072 54.1051 70.0069L66.0261 62.8588L66.0261 62.8588L66.0289 62.8571C66.4138 62.6227 66.8592 62.5 67.304 62.5C67.7489 62.5 68.1942 62.6227 68.5791 62.8571L68.5819 62.8587L80.5149 70.0192C80.5153 70.0195 80.5157 70.0197 80.5161 70.02C80.9055 70.2573 81.2251 70.5867 81.4567 71.0025C81.6895 71.4206 81.81 71.8776 81.81 72.3563V86.656C81.81 87.1347 81.6895 87.5917 81.4567 88.0098L81.4547 88.0133C81.2364 88.4128 80.9068 88.7541 80.5162 88.9923C80.5157 88.9925 80.5153 88.9928 80.5149 88.9931L68.5939 96.1412L68.591 96.143C68.2061 96.3773 67.7608 96.5 67.3159 96.5C66.8711 96.5 66.4257 96.3773 66.0408 96.1429L66.038 96.1412L54.1141 88.9913L54.1122 88.9902C53.7134 88.7535 53.3947 88.4253 53.1633 88.0098Z" fill="#FE5E24" stroke="#FE5E24"/>
<path d="M56.9421 85.5021L56.9379 85.495L56.9337 85.4878C56.856 85.3566 56.81 85.1954 56.81 85.0204V73.9796C56.81 73.8134 56.8517 73.6544 56.9421 73.4979L56.9421 73.4979L56.9482 73.4871C57.0211 73.3586 57.141 73.2335 57.2942 73.1428L66.828 67.6302L66.828 67.6303L66.8366 67.6253C66.9727 67.5453 67.1381 67.5 67.3052 67.5C67.4724 67.5 67.6378 67.5453 67.7739 67.6252L67.7739 67.6253L67.7821 67.63L77.3257 73.1523C77.475 73.2406 77.5913 73.3574 77.6779 73.5074C77.7683 73.6639 77.81 73.8229 77.81 73.9891V85.0204C77.81 85.1866 77.7683 85.3456 77.6779 85.5021L77.6778 85.5021L77.6717 85.5129C77.5989 85.6414 77.4789 85.7666 77.3257 85.8572L67.792 91.3698L67.792 91.3697L67.7834 91.3748C67.6473 91.4547 67.4819 91.5 67.3147 91.5C67.1476 91.5 66.9822 91.4547 66.8461 91.3748L66.8461 91.3747L66.8375 91.3698L57.2984 85.8541L57.2984 85.8541L57.2928 85.8509C57.1415 85.7643 57.0281 85.6511 56.9421 85.5021Z" fill="#FE5E24" stroke="#F3F3F3" stroke-width="3"/>
</svg>
