<svg width="368" height="156" viewBox="0 0 368 156" fill="none" xmlns="http://www.w3.org/2000/svg">
<path d="M101.742 114.343C101.742 114.897 101.886 115.441 102.161 115.921C102.436 116.4 102.832 116.799 103.308 117.075L115.443 124.138L115.444 124.139C115.92 124.415 116.459 124.56 117.008 124.56C117.558 124.56 118.097 124.415 118.573 124.139L118.573 124.138L130.712 117.079L130.714 117.078C131.189 116.799 131.582 116.4 131.856 115.92C132.13 115.441 132.274 114.897 132.274 114.344V114.344V100.217V100.216C132.273 99.6628 132.128 99.1198 131.855 98.6404C131.581 98.161 131.188 97.7618 130.714 97.4824L130.712 97.4813L118.573 90.4216L118.573 90.4214C118.097 90.1453 117.558 90 117.008 90C116.459 90 115.92 90.1453 115.444 90.4214L115.443 90.4216L103.308 97.4813L103.307 97.482C102.832 97.7605 102.437 98.1595 102.163 98.6391C101.889 99.1187 101.743 99.6622 101.742 100.216V100.217L101.742 114.343ZM101.742 114.343L102.108 114.344H101.742V114.343ZM129.446 99.6737L129.448 99.6745C129.543 99.7293 129.622 99.8083 129.677 99.9039C129.733 99.9991 129.762 100.107 129.763 100.218L129.756 114.343V114.343C129.755 114.453 129.727 114.561 129.672 114.657C129.617 114.752 129.539 114.832 129.445 114.887C129.445 114.887 129.445 114.887 129.445 114.887L117.315 121.95C117.221 122.004 117.116 122.033 117.008 122.033C116.901 122.033 116.795 122.004 116.702 121.95L104.58 114.888C104.579 114.887 104.579 114.887 104.579 114.887C104.486 114.832 104.408 114.753 104.354 114.658C104.3 114.562 104.272 114.454 104.272 114.344V114.344V100.217V100.215V100.213C104.271 100.104 104.298 99.996 104.351 99.9009C104.403 99.8066 104.478 99.7277 104.57 99.6719L116.702 92.6103L116.702 92.6102C116.795 92.556 116.901 92.5274 117.008 92.5274C117.116 92.5274 117.221 92.556 117.315 92.6102C117.315 92.6102 117.315 92.6102 117.315 92.6102L129.446 99.6737Z" fill="#FE5E24" stroke="#FE5E24"/>
<path d="M84.7219 143.568C84.7214 144.122 84.8659 144.666 85.1408 145.146C85.4157 145.625 85.8114 146.024 86.2881 146.3L98.4229 153.363L98.4234 153.364C98.8993 153.64 99.4388 153.785 99.9881 153.785C100.537 153.785 101.077 153.64 101.553 153.364L101.553 153.363L113.692 146.304L113.693 146.303C114.168 146.024 114.562 145.625 114.836 145.145C115.109 144.666 115.254 144.122 115.254 143.569V143.569V129.442V129.441C115.253 128.888 115.108 128.345 114.835 127.865C114.561 127.386 114.168 126.987 113.694 126.707L113.692 126.706L101.553 119.647L101.553 119.646C101.077 119.37 100.537 119.225 99.9881 119.225C99.4388 119.225 98.8993 119.37 98.4234 119.646L98.423 119.647L86.2877 126.706L86.2866 126.707C85.8115 126.986 85.4172 127.385 85.1427 127.864C84.8683 128.344 84.7233 128.887 84.7219 129.441V129.442L84.7219 143.568ZM84.7219 143.568L85.0883 143.569H84.7219V143.568ZM112.426 128.899L112.427 128.9C112.522 128.954 112.602 129.033 112.657 129.129C112.713 129.224 112.742 129.332 112.743 129.443L112.736 143.568V143.568C112.735 143.678 112.706 143.786 112.652 143.882C112.597 143.977 112.519 144.057 112.425 144.112C112.425 144.112 112.425 144.112 112.425 144.112L100.294 151.175C100.201 151.229 100.096 151.258 99.9881 151.258C99.8806 151.258 99.7749 151.229 99.6817 151.175L87.5596 144.113C87.5593 144.112 87.5589 144.112 87.5586 144.112C87.4655 144.057 87.388 143.978 87.3341 143.883C87.2799 143.787 87.2515 143.679 87.2516 143.569V143.569V129.442V129.44V129.438C87.2505 129.329 87.2777 129.221 87.3305 129.126C87.3828 129.032 87.4583 128.953 87.5494 128.897L99.6816 121.835L99.6817 121.835C99.7749 121.781 99.8806 121.752 99.9881 121.752C100.096 121.752 100.201 121.781 100.294 121.835C100.294 121.835 100.294 121.835 100.294 121.835L112.426 128.899Z" fill="#FE5E24" stroke="#FE5E24"/>
<path d="M36 132.568C35.9996 133.122 36.144 133.666 36.4189 134.146C36.6939 134.625 37.0895 135.024 37.5662 135.3L49.7011 142.363L49.7015 142.364C50.1774 142.64 50.717 142.785 51.2662 142.785C51.8154 142.785 52.355 142.64 52.8309 142.364L52.8312 142.363L64.9704 135.304L64.9716 135.303C65.4464 135.024 65.8402 134.625 66.1137 134.145C66.3876 133.666 66.5319 133.122 66.5324 132.569V132.569V118.442V118.441C66.5309 117.888 66.3863 117.345 66.1128 116.865C65.8392 116.386 65.4462 115.987 64.9721 115.707L64.9704 115.706L52.8312 108.647L52.8309 108.646C52.355 108.37 51.8154 108.225 51.2662 108.225C50.717 108.225 50.1774 108.37 49.7015 108.646L49.7011 108.647L37.5658 115.706L37.5647 115.707C37.0896 115.986 36.6953 116.385 36.4209 116.864C36.1465 117.344 36.0014 117.887 36 118.441V118.442L36 132.568ZM36 132.568L36.3664 132.569H36V132.568ZM63.7041 117.899L63.7056 117.9C63.8006 117.954 63.8797 118.033 63.9352 118.129C63.9906 118.224 64.0202 118.332 64.0212 118.443L64.0138 132.568V132.568C64.0134 132.678 63.9845 132.786 63.9298 132.882C63.8754 132.977 63.7972 133.057 63.7034 133.112C63.7031 133.112 63.7031 133.112 63.7029 133.112L51.5726 140.175C51.4793 140.229 51.3737 140.258 51.2662 140.258C51.1587 140.258 51.0531 140.229 50.9598 140.175L38.8377 133.113C38.8374 133.112 38.8371 133.112 38.8368 133.112C38.7436 133.057 38.6661 132.978 38.6122 132.883C38.5581 132.787 38.5296 132.679 38.5298 132.569V132.569V118.442V118.44V118.438C38.5286 118.329 38.5559 118.221 38.6086 118.126C38.6609 118.032 38.7364 117.953 38.8275 117.897L50.9598 110.835L50.9598 110.835C51.0531 110.781 51.1588 110.752 51.2662 110.752C51.3737 110.752 51.4793 110.781 51.5726 110.835C51.5726 110.835 51.5726 110.835 51.5726 110.835L63.7041 117.899Z" fill="#FE5E24" stroke="#FE5E24"/>
<path d="M135 114.343C135 114.897 135.144 115.441 135.419 115.921C135.694 116.4 136.09 116.799 136.566 117.075L148.701 124.138L148.702 124.139C149.177 124.415 149.717 124.56 150.266 124.56C150.815 124.56 151.355 124.415 151.831 124.139L151.831 124.138L163.97 117.079L163.972 117.078C164.446 116.799 164.84 116.4 165.114 115.92C165.388 115.441 165.532 114.897 165.532 114.344V114.344V100.217V100.216C165.531 99.6628 165.386 99.1198 165.113 98.6404C164.839 98.161 164.446 97.7618 163.972 97.4824L163.97 97.4813L151.831 90.4216L151.831 90.4214C151.355 90.1453 150.815 90 150.266 90C149.717 90 149.177 90.1453 148.702 90.4214L148.701 90.4216L136.566 97.4813L136.565 97.482C136.09 97.7605 135.695 98.1595 135.421 98.6391C135.146 99.1187 135.001 99.6622 135 100.216V100.217L135 114.343ZM135 114.343L135.366 114.344H135V114.343ZM162.704 99.6737L162.706 99.6745C162.801 99.7293 162.88 99.8083 162.935 99.9039C162.991 99.9991 163.02 100.107 163.021 100.218L163.014 114.343V114.343C163.013 114.453 162.985 114.561 162.93 114.657C162.875 114.752 162.797 114.832 162.703 114.887C162.703 114.887 162.703 114.887 162.703 114.887L150.573 121.95C150.479 122.004 150.374 122.033 150.266 122.033C150.159 122.033 150.053 122.004 149.96 121.95L137.838 114.888C137.837 114.887 137.837 114.887 137.837 114.887C137.744 114.832 137.666 114.753 137.612 114.658C137.558 114.562 137.53 114.454 137.53 114.344V114.344V100.217V100.215V100.213C137.529 100.104 137.556 99.996 137.609 99.9009C137.661 99.8066 137.736 99.7277 137.828 99.6719L149.96 92.6103L149.96 92.6102C150.053 92.556 150.159 92.5274 150.266 92.5274C150.374 92.5274 150.479 92.556 150.573 92.6102C150.573 92.6102 150.573 92.6102 150.573 92.6102L162.704 99.6737Z" fill="#FE5E24" stroke="#FE5E24"/>
<path d="M151.5 144.568C151.5 145.122 151.645 145.666 151.919 146.146C152.194 146.625 152.59 147.024 153.067 147.3L165.202 154.363L165.202 154.364C165.678 154.64 166.217 154.785 166.767 154.785C167.316 154.785 167.855 154.64 168.331 154.364L168.332 154.363L180.471 147.304L180.472 147.303C180.947 147.024 181.341 146.625 181.614 146.145C181.888 145.666 182.032 145.122 182.033 144.569V144.569V130.442V130.441C182.031 129.888 181.887 129.345 181.613 128.865C181.34 128.386 180.947 127.987 180.473 127.707L180.471 127.706L168.332 120.647L168.331 120.646C167.855 120.37 167.316 120.225 166.767 120.225C166.217 120.225 165.678 120.37 165.202 120.646L165.202 120.647L153.066 127.706L153.065 127.707C152.59 127.986 152.196 128.385 151.921 128.864C151.647 129.344 151.502 129.887 151.5 130.441V130.442L151.5 144.568ZM151.5 144.568L151.867 144.569H151.5V144.568ZM179.205 129.899L179.206 129.9C179.301 129.954 179.38 130.033 179.436 130.129C179.491 130.224 179.521 130.332 179.522 130.443L179.514 144.568V144.568C179.514 144.678 179.485 144.786 179.43 144.882C179.376 144.977 179.298 145.057 179.204 145.112C179.204 145.112 179.204 145.112 179.203 145.112L167.073 152.175C166.98 152.229 166.874 152.258 166.767 152.258C166.659 152.258 166.554 152.229 166.46 152.175L154.338 145.113C154.338 145.112 154.338 145.112 154.337 145.112C154.244 145.057 154.167 144.978 154.113 144.883C154.059 144.787 154.03 144.679 154.03 144.569V144.569V130.442V130.44V130.438C154.029 130.329 154.056 130.221 154.109 130.126C154.161 130.032 154.237 129.953 154.328 129.897L166.46 122.835L166.46 122.835C166.554 122.781 166.659 122.752 166.767 122.752C166.874 122.752 166.98 122.781 167.073 122.835C167.073 122.835 167.073 122.835 167.073 122.835L179.205 129.899Z" fill="#FE5E24" stroke="#FE5E24"/>
<path d="M185.021 144.568C185.021 145.122 185.165 145.666 185.44 146.146C185.715 146.625 186.111 147.024 186.587 147.3L198.722 154.363L198.723 154.364C199.199 154.64 199.738 154.785 200.287 154.785C200.837 154.785 201.376 154.64 201.852 154.364L201.852 154.363L213.991 147.304L213.993 147.303C214.468 147.024 214.861 146.625 215.135 146.145C215.409 145.666 215.553 145.122 215.554 144.569V144.569V130.442V130.441C215.552 129.888 215.407 129.345 215.134 128.865C214.86 128.386 214.467 127.987 213.993 127.707L213.991 127.706L201.852 120.647L201.852 120.646C201.376 120.37 200.837 120.225 200.287 120.225C199.738 120.225 199.199 120.37 198.723 120.646L198.722 120.647L186.587 127.706L186.586 127.707C186.111 127.986 185.716 128.385 185.442 128.864C185.168 129.344 185.023 129.887 185.021 130.441V130.442L185.021 144.568ZM185.021 144.568L185.388 144.569H185.021V144.568ZM212.725 129.899L212.727 129.9C212.822 129.954 212.901 130.033 212.956 130.129C213.012 130.224 213.041 130.332 213.042 130.443L213.035 144.568V144.568C213.034 144.678 213.006 144.786 212.951 144.882C212.896 144.977 212.818 145.057 212.725 145.112C212.724 145.112 212.724 145.112 212.724 145.112L200.594 152.175C200.5 152.229 200.395 152.258 200.287 152.258C200.18 152.258 200.074 152.229 199.981 152.175L187.859 145.113C187.859 145.112 187.858 145.112 187.858 145.112C187.765 145.057 187.687 144.978 187.633 144.883C187.579 144.787 187.551 144.679 187.551 144.569V144.569V130.442V130.44V130.438C187.55 130.329 187.577 130.221 187.63 130.126C187.682 130.032 187.758 129.953 187.849 129.897L199.981 122.835L199.981 122.835C200.074 122.781 200.18 122.752 200.287 122.752C200.395 122.752 200.5 122.781 200.594 122.835C200.594 122.835 200.594 122.835 200.594 122.835L212.725 129.899Z" fill="#FE5E24" stroke="#FE5E24"/>
<path d="M252.452 144.568C252.452 145.122 252.596 145.666 252.871 146.146C253.146 146.625 253.542 147.024 254.019 147.3L266.153 154.363L266.154 154.364C266.63 154.64 267.169 154.785 267.719 154.785C268.268 154.785 268.807 154.64 269.283 154.364L269.284 154.363L281.423 147.304L281.424 147.303C281.899 147.024 282.293 146.625 282.566 146.145C282.84 145.666 282.984 145.122 282.985 144.569V144.569V130.442V130.441C282.983 129.888 282.839 129.345 282.565 128.865C282.292 128.386 281.899 127.987 281.424 127.707L281.423 127.706L269.284 120.647L269.283 120.646C268.807 120.37 268.268 120.225 267.719 120.225C267.169 120.225 266.63 120.37 266.154 120.646L266.153 120.647L254.018 127.706L254.017 127.707C253.542 127.986 253.148 128.385 252.873 128.864C252.599 129.344 252.454 129.887 252.452 130.441V130.442L252.452 144.568ZM252.452 144.568L252.819 144.569H252.452V144.568ZM280.156 129.899L280.158 129.9C280.253 129.954 280.332 130.033 280.388 130.129C280.443 130.224 280.473 130.332 280.474 130.443L280.466 144.568V144.568C280.466 144.678 280.437 144.786 280.382 144.882C280.328 144.977 280.25 145.057 280.156 145.112C280.155 145.112 280.155 145.112 280.155 145.112L268.025 152.175C267.932 152.229 267.826 152.258 267.719 152.258C267.611 152.258 267.505 152.229 267.412 152.175L255.29 145.113C255.29 145.112 255.289 145.112 255.289 145.112C255.196 145.057 255.118 144.978 255.065 144.883C255.01 144.787 254.982 144.679 254.982 144.569V144.569V130.442V130.44V130.438C254.981 130.329 255.008 130.221 255.061 130.126C255.113 130.032 255.189 129.953 255.28 129.897L267.412 122.835L267.412 122.835C267.505 122.781 267.611 122.752 267.719 122.752C267.826 122.752 267.932 122.781 268.025 122.835C268.025 122.835 268.025 122.835 268.025 122.835L280.156 129.899Z" fill="#FE5E24" stroke="#FE5E24"/>
<path d="M168.001 114.733C168.001 115.287 168.145 115.831 168.42 116.31C168.695 116.79 169.091 117.188 169.567 117.465L181.702 124.528L181.703 124.528C182.178 124.804 182.718 124.95 183.267 124.95C183.816 124.95 184.356 124.804 184.832 124.528L184.832 124.528L196.971 117.468L196.973 117.468C197.447 117.189 197.841 116.79 198.115 116.31C198.389 115.83 198.533 115.287 198.533 114.733V114.733V100.606V100.605C198.532 100.052 198.387 99.5094 198.114 99.0301C197.84 98.5507 197.447 98.1514 196.973 97.8721L196.971 97.871L184.832 90.8112L184.832 90.811C184.356 90.535 183.816 90.3896 183.267 90.3896C182.718 90.3896 182.178 90.535 181.703 90.811L181.702 90.8113L169.567 97.871L169.566 97.8716C169.091 98.1502 168.696 98.5492 168.422 99.0288C168.147 99.5083 168.002 100.052 168.001 100.605V100.606L168.001 114.733ZM168.001 114.733L168.367 114.733H168.001V114.733ZM195.705 100.063L195.707 100.064C195.802 100.119 195.881 100.198 195.936 100.294C195.992 100.389 196.021 100.497 196.022 100.608L196.015 114.732V114.732C196.014 114.843 195.986 114.951 195.931 115.047C195.876 115.142 195.798 115.221 195.704 115.277C195.704 115.277 195.704 115.277 195.704 115.277L183.574 122.34C183.48 122.394 183.375 122.422 183.267 122.422C183.16 122.422 183.054 122.394 182.961 122.34L170.839 115.277C170.838 115.277 170.838 115.277 170.838 115.277C170.745 115.221 170.667 115.142 170.613 115.047C170.559 114.952 170.531 114.844 170.531 114.734V114.733V100.606V100.604V100.602C170.53 100.493 170.557 100.386 170.61 100.291C170.662 100.196 170.737 100.117 170.829 100.062L182.961 92.9999L182.961 92.9999C183.054 92.9456 183.16 92.9171 183.267 92.9171C183.375 92.9171 183.48 92.9456 183.574 92.9999C183.574 92.9999 183.574 92.9999 183.574 92.9999L195.705 100.063Z" fill="#FE5E24" stroke="#FE5E24"/>
<path d="M201.522 114.343C201.521 114.897 201.666 115.441 201.941 115.921C202.216 116.4 202.611 116.799 203.088 117.075L215.223 124.138L215.223 124.139C215.699 124.415 216.239 124.56 216.788 124.56C217.337 124.56 217.877 124.415 218.353 124.139L218.353 124.138L230.492 117.079L230.493 117.078C230.968 116.799 231.362 116.4 231.635 115.92C231.909 115.441 232.054 114.897 232.054 114.344V114.344V100.217V100.216C232.053 99.6628 231.908 99.1198 231.634 98.6404C231.361 98.161 230.968 97.7618 230.494 97.4824L230.492 97.4813L218.353 90.4216L218.353 90.4214C217.877 90.1453 217.337 90 216.788 90C216.239 90 215.699 90.1453 215.223 90.4214L215.223 90.4216L203.088 97.4813L203.086 97.482C202.611 97.7605 202.217 98.1595 201.943 98.6391C201.668 99.1187 201.523 99.6622 201.522 100.216V100.217L201.522 114.343ZM201.522 114.343L201.888 114.344H201.522V114.343ZM229.226 99.6737L229.227 99.6745C229.322 99.7293 229.401 99.8083 229.457 99.9039C229.512 99.9991 229.542 100.107 229.543 100.218L229.536 114.343V114.343C229.535 114.453 229.506 114.561 229.452 114.657C229.397 114.752 229.319 114.832 229.225 114.887C229.225 114.887 229.225 114.887 229.225 114.887L217.094 121.95C217.001 122.004 216.895 122.033 216.788 122.033C216.68 122.033 216.575 122.004 216.482 121.95L204.359 114.888C204.359 114.887 204.359 114.887 204.358 114.887C204.265 114.832 204.188 114.753 204.134 114.658C204.08 114.562 204.051 114.454 204.051 114.344V114.344V100.217V100.215V100.213C204.05 100.104 204.078 99.996 204.13 99.9009C204.183 99.8066 204.258 99.7277 204.349 99.6719L216.482 92.6103L216.482 92.6102C216.575 92.556 216.68 92.5274 216.788 92.5274C216.895 92.5274 217.001 92.556 217.094 92.6102C217.094 92.6102 217.094 92.6102 217.094 92.6102L229.226 99.6737Z" fill="#FE5E24" stroke="#FE5E24"/>
<path d="M235.432 114.733C235.432 115.287 235.576 115.831 235.851 116.31C236.126 116.79 236.522 117.188 236.998 117.465L249.133 124.528L249.134 124.528C249.61 124.804 250.149 124.95 250.698 124.95C251.248 124.95 251.787 124.804 252.263 124.528L252.263 124.528L264.402 117.468L264.404 117.468C264.879 117.189 265.272 116.79 265.546 116.31C265.82 115.83 265.964 115.287 265.965 114.733V114.733V100.606V100.605C265.963 100.052 265.818 99.5094 265.545 99.0301C265.271 98.5507 264.878 98.1514 264.404 97.8721L264.402 97.871L252.263 90.8112L252.263 90.811C251.787 90.535 251.248 90.3896 250.698 90.3896C250.149 90.3896 249.61 90.535 249.134 90.811L249.133 90.8113L236.998 97.871L236.997 97.8716C236.522 98.1502 236.127 98.5492 235.853 99.0288C235.579 99.5083 235.434 100.052 235.432 100.605V100.606L235.432 114.733ZM235.432 114.733L235.799 114.733H235.432V114.733ZM263.136 100.063L263.138 100.064C263.233 100.119 263.312 100.198 263.367 100.294C263.423 100.389 263.452 100.497 263.453 100.608L263.446 114.732V114.732C263.445 114.843 263.417 114.951 263.362 115.047C263.307 115.142 263.229 115.221 263.136 115.277C263.135 115.277 263.135 115.277 263.135 115.277L251.005 122.34C250.911 122.394 250.806 122.422 250.698 122.422C250.591 122.422 250.485 122.394 250.392 122.34L238.27 115.277C238.27 115.277 238.269 115.277 238.269 115.277C238.176 115.221 238.098 115.142 238.044 115.047C237.99 114.952 237.962 114.844 237.962 114.734V114.733V100.606V100.604V100.602C237.961 100.493 237.988 100.386 238.041 100.291C238.093 100.196 238.169 100.117 238.26 100.062L250.392 92.9999L250.392 92.9999C250.485 92.9456 250.591 92.9171 250.698 92.9171C250.806 92.9171 250.911 92.9456 251.005 92.9999C251.005 92.9999 251.005 92.9999 251.005 92.9999L263.136 100.063Z" fill="#FE5E24" stroke="#FE5E24"/>
<path d="M268.953 114.733C268.952 115.287 269.097 115.831 269.372 116.31C269.647 116.79 270.042 117.188 270.519 117.465L282.654 124.528L282.654 124.528C283.13 124.804 283.67 124.95 284.219 124.95C284.768 124.95 285.308 124.804 285.784 124.528L285.784 124.528L297.923 117.468L297.924 117.468C298.399 117.189 298.793 116.79 299.066 116.31C299.34 115.83 299.485 115.287 299.485 114.733V114.733V100.606V100.605C299.484 100.052 299.339 99.5094 299.065 99.0301C298.792 98.5507 298.399 98.1514 297.925 97.8721L297.923 97.871L285.784 90.8112L285.784 90.811C285.308 90.535 284.768 90.3896 284.219 90.3896C283.67 90.3896 283.13 90.535 282.654 90.811L282.654 90.8113L270.518 97.871L270.517 97.8716C270.042 98.1502 269.648 98.5492 269.374 99.0288C269.099 99.5083 268.954 100.052 268.953 100.605V100.606L268.953 114.733ZM268.953 114.733L269.319 114.733H268.953V114.733ZM296.657 100.063L296.658 100.064C296.753 100.119 296.832 100.198 296.888 100.294C296.943 100.389 296.973 100.497 296.974 100.608L296.967 114.732V114.732C296.966 114.843 296.937 114.951 296.883 115.047C296.828 115.142 296.75 115.221 296.656 115.277C296.656 115.277 296.656 115.277 296.656 115.277L284.525 122.34C284.432 122.394 284.326 122.422 284.219 122.422C284.111 122.422 284.006 122.394 283.913 122.34L271.79 115.277C271.79 115.277 271.79 115.277 271.789 115.277C271.696 115.221 271.619 115.142 271.565 115.047C271.511 114.952 271.482 114.844 271.482 114.734V114.733V100.606V100.604V100.602C271.481 100.493 271.509 100.386 271.561 100.291C271.614 100.196 271.689 100.117 271.78 100.062L283.912 92.9999L283.913 92.9999C284.006 92.9456 284.111 92.9171 284.219 92.9171C284.326 92.9171 284.432 92.9456 284.525 92.9999C284.525 92.9999 284.525 92.9999 284.525 92.9999L296.657 100.063Z" fill="#FE5E24" stroke="#FE5E24"/>
<path d="M151.5 84.9245C151.5 85.4782 151.645 86.0223 151.919 86.502C152.194 86.9816 152.59 87.3799 153.067 87.6564L165.202 94.7197L165.202 94.7199C165.678 94.9959 166.217 95.1413 166.767 95.1413C167.316 95.1413 167.855 94.9959 168.331 94.7199L168.332 94.7197L180.471 87.6599L180.472 87.6591C180.947 87.3804 181.341 86.9812 181.614 86.5015C181.888 86.0218 182.032 85.4782 182.033 84.925V84.9247V70.7977V70.7968C182.031 70.244 181.887 69.701 181.613 69.2216C181.34 68.7422 180.947 68.343 180.473 68.0636L180.471 68.0625L168.332 61.0028L168.331 61.0026C167.855 60.7265 167.316 60.5812 166.767 60.5812C166.217 60.5812 165.678 60.7265 165.202 61.0026L165.202 61.0028L153.066 68.0625L153.065 68.0631C152.59 68.3417 152.196 68.7407 151.921 69.2203C151.647 69.6999 151.502 70.2434 151.5 70.7968V70.7977L151.5 84.9245ZM151.5 84.9245L151.867 84.9247H151.5V84.9245ZM179.205 70.2549L179.206 70.2557C179.301 70.3104 179.38 70.3894 179.436 70.485C179.491 70.5803 179.521 70.6886 179.522 70.7991L179.514 84.9237V84.924C179.514 85.0345 179.485 85.1426 179.43 85.2382C179.376 85.3335 179.298 85.4127 179.204 85.4681C179.204 85.4681 179.204 85.4681 179.203 85.4684L167.073 92.5311C166.98 92.5853 166.874 92.6137 166.767 92.6137C166.659 92.6137 166.554 92.5853 166.46 92.5311L154.338 85.4688C154.338 85.4686 154.338 85.4684 154.337 85.4681C154.244 85.413 154.167 85.3338 154.113 85.2389C154.059 85.1436 154.03 85.0353 154.03 84.9252V84.9247V70.7977V70.7959V70.794C154.029 70.6847 154.056 70.5772 154.109 70.4821C154.161 70.3877 154.237 70.3089 154.328 70.2531L166.46 63.1914L166.46 63.1914C166.554 63.1371 166.659 63.1086 166.767 63.1086C166.874 63.1086 166.98 63.1371 167.073 63.1914C167.073 63.1914 167.073 63.1914 167.073 63.1914L179.205 70.2549Z" fill="#FE5E24" stroke="#FE5E24"/>
<path d="M185.021 84.9245C185.021 85.4782 185.165 86.0223 185.44 86.502C185.715 86.9816 186.111 87.3799 186.587 87.6564L198.722 94.7197L198.723 94.7199C199.199 94.9959 199.738 95.1413 200.287 95.1413C200.837 95.1413 201.376 94.9959 201.852 94.7199L201.852 94.7197L213.991 87.6599L213.993 87.6591C214.468 87.3804 214.861 86.9812 215.135 86.5015C215.409 86.0218 215.553 85.4782 215.554 84.925V84.9247V70.7977V70.7968C215.552 70.244 215.407 69.701 215.134 69.2216C214.86 68.7422 214.467 68.343 213.993 68.0636L213.991 68.0625L201.852 61.0028L201.852 61.0026C201.376 60.7265 200.837 60.5812 200.287 60.5812C199.738 60.5812 199.199 60.7265 198.723 61.0026L198.722 61.0028L186.587 68.0625L186.586 68.0631C186.111 68.3417 185.716 68.7407 185.442 69.2203C185.168 69.6999 185.023 70.2434 185.021 70.7968V70.7977L185.021 84.9245ZM185.021 84.9245L185.388 84.9247H185.021V84.9245ZM212.725 70.2549L212.727 70.2557C212.822 70.3104 212.901 70.3894 212.956 70.485C213.012 70.5803 213.041 70.6886 213.042 70.7991L213.035 84.9237V84.924C213.034 85.0345 213.006 85.1426 212.951 85.2382C212.896 85.3335 212.818 85.4127 212.725 85.4681C212.724 85.4681 212.724 85.4681 212.724 85.4684L200.594 92.5311C200.5 92.5853 200.395 92.6137 200.287 92.6137C200.18 92.6137 200.074 92.5853 199.981 92.5311L187.859 85.4688C187.859 85.4686 187.858 85.4684 187.858 85.4681C187.765 85.413 187.687 85.3338 187.633 85.2389C187.579 85.1436 187.551 85.0353 187.551 84.9252V84.9247V70.7977V70.7959V70.794C187.55 70.6847 187.577 70.5772 187.63 70.4821C187.682 70.3877 187.758 70.3089 187.849 70.2531L199.981 63.1914L199.981 63.1914C200.074 63.1371 200.18 63.1086 200.287 63.1086C200.395 63.1086 200.5 63.1371 200.594 63.1914C200.594 63.1914 200.594 63.1914 200.594 63.1914L212.725 70.2549Z" fill="#FE5E24" stroke="#FE5E24"/>
<path d="M218.542 85.4441C218.541 85.9978 218.686 86.5419 218.961 87.0216C219.236 87.5012 219.631 87.8995 220.108 88.176L232.243 95.2393L232.243 95.2395C232.719 95.5155 233.259 95.6608 233.808 95.6608C234.357 95.6608 234.897 95.5155 235.373 95.2395L235.373 95.2393L247.512 88.1794L247.513 88.1787C247.988 87.9 248.382 87.5007 248.656 87.0211C248.929 86.5414 249.074 85.9978 249.074 85.4445V85.4443V71.3173V71.3164C249.073 70.7635 248.928 70.2206 248.655 69.7412C248.381 69.2618 247.988 68.8625 247.514 68.5832L247.512 68.5821L235.373 61.5224L235.373 61.5222C234.897 61.2461 234.357 61.1008 233.808 61.1008C233.259 61.1008 232.719 61.2461 232.243 61.5222L232.243 61.5224L220.108 68.5821L220.107 68.5827C219.631 68.8613 219.237 69.2603 218.963 69.7399C218.688 70.2195 218.543 70.763 218.542 71.3164V71.3173L218.542 85.4441ZM218.542 85.4441L218.908 85.4443H218.542V85.4441ZM246.246 70.7745L246.247 70.7753C246.342 70.83 246.422 70.909 246.477 71.0046C246.533 71.0999 246.562 71.2081 246.563 71.3187L246.556 85.4433V85.4436C246.555 85.5541 246.526 85.6622 246.472 85.7578C246.417 85.8531 246.339 85.9323 246.245 85.9877C246.245 85.9877 246.245 85.9877 246.245 85.9879L234.114 93.0507C234.021 93.1049 233.916 93.1333 233.808 93.1333C233.701 93.1333 233.595 93.1049 233.502 93.0507L221.38 85.9884C221.379 85.9882 221.379 85.9879 221.379 85.9877C221.285 85.9326 221.208 85.8534 221.154 85.7585C221.1 85.6632 221.071 85.5548 221.072 85.4448V85.4443V71.3173V71.3155V71.3136C221.071 71.2043 221.098 71.0968 221.15 71.0016C221.203 70.9073 221.278 70.8285 221.369 70.7727L233.502 63.711L233.502 63.711C233.595 63.6567 233.701 63.6282 233.808 63.6282C233.916 63.6282 234.021 63.6567 234.114 63.711C234.114 63.711 234.114 63.711 234.114 63.711L246.246 70.7745Z" fill="#FE5E24" stroke="#FE5E24"/>
<path d="M252.452 84.9245C252.452 85.4782 252.596 86.0223 252.871 86.502C253.146 86.9816 253.542 87.3799 254.019 87.6564L266.153 94.7197L266.154 94.7199C266.63 94.9959 267.169 95.1413 267.719 95.1413C268.268 95.1413 268.807 94.9959 269.283 94.7199L269.284 94.7197L281.423 87.6599L281.424 87.6591C281.899 87.3804 282.293 86.9812 282.566 86.5015C282.84 86.0218 282.984 85.4782 282.985 84.925V84.9247V70.7977V70.7968C282.983 70.244 282.839 69.701 282.565 69.2216C282.292 68.7422 281.899 68.343 281.424 68.0636L281.423 68.0625L269.284 61.0028L269.283 61.0026C268.807 60.7265 268.268 60.5812 267.719 60.5812C267.169 60.5812 266.63 60.7265 266.154 61.0026L266.153 61.0028L254.018 68.0625L254.017 68.0631C253.542 68.3417 253.148 68.7407 252.873 69.2203C252.599 69.6999 252.454 70.2434 252.452 70.7968V70.7977L252.452 84.9245ZM252.452 84.9245L252.819 84.9247H252.452V84.9245ZM280.156 70.2549L280.158 70.2557C280.253 70.3104 280.332 70.3894 280.388 70.485C280.443 70.5803 280.473 70.6886 280.474 70.7991L280.466 84.9237V84.924C280.466 85.0345 280.437 85.1426 280.382 85.2382C280.328 85.3335 280.25 85.4127 280.156 85.4681C280.155 85.4681 280.155 85.4681 280.155 85.4684L268.025 92.5311C267.932 92.5853 267.826 92.6137 267.719 92.6137C267.611 92.6137 267.505 92.5853 267.412 92.5311L255.29 85.4688C255.29 85.4686 255.289 85.4684 255.289 85.4681C255.196 85.413 255.118 85.3338 255.065 85.2389C255.01 85.1436 254.982 85.0353 254.982 84.9252V84.9247V70.7977V70.7959V70.794C254.981 70.6847 255.008 70.5772 255.061 70.4821C255.113 70.3877 255.189 70.3089 255.28 70.2531L267.412 63.1914L267.412 63.1914C267.505 63.1371 267.611 63.1086 267.719 63.1086C267.826 63.1086 267.932 63.1371 268.025 63.1914C268.025 63.1914 268.025 63.1914 268.025 63.1914L280.156 70.2549Z" fill="#FE5E24" stroke="#FE5E24"/>
<path d="M285.973 85.4441C285.973 85.9978 286.117 86.5419 286.392 87.0216C286.667 87.5012 287.062 87.8995 287.539 88.176L299.674 95.2393L299.674 95.2395C300.15 95.5155 300.69 95.6608 301.239 95.6608C301.788 95.6608 302.328 95.5155 302.804 95.2395L302.804 95.2393L314.943 88.1794L314.945 88.1787C315.419 87.9 315.813 87.5007 316.087 87.0211C316.361 86.5414 316.505 85.9978 316.505 85.4445V85.4443V71.3173V71.3164C316.504 70.7635 316.359 70.2206 316.086 69.7412C315.812 69.2618 315.419 68.8625 314.945 68.5832L314.943 68.5821L302.804 61.5224L302.804 61.5222C302.328 61.2461 301.788 61.1008 301.239 61.1008C300.69 61.1008 300.15 61.2461 299.674 61.5222L299.674 61.5224L287.539 68.5821L287.538 68.5827C287.063 68.8613 286.668 69.2603 286.394 69.7399C286.119 70.2195 285.974 70.763 285.973 71.3164V71.3173L285.973 85.4441ZM285.973 85.4441L286.339 85.4443H285.973V85.4441ZM313.677 70.7745L313.679 70.7753C313.774 70.83 313.853 70.909 313.908 71.0046C313.964 71.0999 313.993 71.2081 313.994 71.3187L313.987 85.4433V85.4436C313.986 85.5541 313.957 85.6622 313.903 85.7578C313.848 85.8531 313.77 85.9323 313.676 85.9877C313.676 85.9877 313.676 85.9877 313.676 85.9879L301.546 93.0507C301.452 93.1049 301.347 93.1333 301.239 93.1333C301.132 93.1333 301.026 93.1049 300.933 93.0507L288.811 85.9884C288.81 85.9882 288.81 85.9879 288.81 85.9877C288.717 85.9326 288.639 85.8534 288.585 85.7585C288.531 85.6632 288.503 85.5548 288.503 85.4448V85.4443V71.3173V71.3155V71.3136C288.502 71.2043 288.529 71.0968 288.582 71.0016C288.634 70.9073 288.709 70.8285 288.801 70.7727L300.933 63.711L300.933 63.711C301.026 63.6567 301.132 63.6282 301.239 63.6282C301.347 63.6282 301.452 63.6567 301.546 63.711C301.546 63.711 301.546 63.711 301.546 63.711L313.677 70.7745Z" fill="#FE5E24" stroke="#FE5E24"/>
<path d="M319.217 85.3433C319.216 85.897 319.361 86.4411 319.635 86.9208C319.91 87.4005 320.306 87.7988 320.783 88.0752L332.918 95.1385L332.918 95.1387C333.394 95.4147 333.934 95.5601 334.483 95.5601C335.032 95.5601 335.572 95.4147 336.047 95.1387L336.048 95.1385L348.187 88.0787L348.188 88.0779C348.663 87.7993 349.057 87.4 349.33 86.9203C349.604 86.4406 349.748 85.897 349.749 85.3438V85.3435V71.2165V71.2156C349.747 70.6628 349.603 70.1198 349.329 69.6404C349.056 69.161 348.663 68.7618 348.189 68.4824L348.187 68.4813L336.048 61.4216L336.047 61.4214C335.572 61.1453 335.032 61 334.483 61C333.934 61 333.394 61.1453 332.918 61.4214L332.918 61.4216L320.782 68.4813L320.781 68.482C320.306 68.7605 319.912 69.1595 319.637 69.6391C319.363 70.1187 319.218 70.6622 319.217 71.2156V71.2165L319.217 85.3433ZM319.217 85.3433L319.583 85.3435H319.217V85.3433ZM346.921 70.6737L346.922 70.6745C347.017 70.7293 347.096 70.8083 347.152 70.9039C347.207 70.9991 347.237 71.1074 347.238 71.2179L347.23 85.3426V85.3428C347.23 85.4533 347.201 85.5614 347.146 85.657C347.092 85.7524 347.014 85.8315 346.92 85.8869C346.92 85.8869 346.92 85.8869 346.919 85.8872L334.789 92.9499C334.696 93.0041 334.59 93.0325 334.483 93.0325C334.375 93.0325 334.27 93.0041 334.176 92.9499L322.054 85.8877C322.054 85.8874 322.054 85.8872 322.053 85.8869C321.96 85.8318 321.883 85.7526 321.829 85.6578C321.775 85.5624 321.746 85.4541 321.746 85.344V85.3435V71.2165V71.2147V71.2128C321.745 71.1036 321.772 70.996 321.825 70.9009C321.877 70.8066 321.953 70.7277 322.044 70.6719L334.176 63.6103L334.176 63.6102C334.27 63.556 334.375 63.5274 334.483 63.5274C334.59 63.5274 334.696 63.556 334.789 63.6102C334.789 63.6102 334.789 63.6102 334.789 63.6102L346.921 70.6737Z" fill="#FE5E24" stroke="#FE5E24"/>
<path d="M335.994 114.733C335.994 115.287 336.138 115.831 336.413 116.31C336.688 116.79 337.084 117.188 337.56 117.465L349.695 124.528L349.696 124.528C350.171 124.804 350.711 124.95 351.26 124.95C351.81 124.95 352.349 124.804 352.825 124.528L352.825 124.528L364.964 117.468L364.966 117.468C365.441 117.189 365.834 116.79 366.108 116.31C366.382 115.83 366.526 115.287 366.526 114.733V114.733V100.606V100.605C366.525 100.052 366.38 99.5094 366.107 99.0301C365.833 98.5507 365.44 98.1514 364.966 97.8721L364.964 97.871L352.825 90.8112L352.825 90.811C352.349 90.535 351.81 90.3896 351.26 90.3896C350.711 90.3896 350.171 90.535 349.696 90.811L349.695 90.8113L337.56 97.871L337.559 97.8716C337.084 98.1502 336.689 98.5492 336.415 99.0288C336.141 99.5083 335.995 100.052 335.994 100.605V100.606L335.994 114.733ZM335.994 114.733L336.36 114.733H335.994V114.733ZM363.698 100.063L363.7 100.064C363.795 100.119 363.874 100.198 363.929 100.294C363.985 100.389 364.014 100.497 364.015 100.608L364.008 114.732V114.732C364.007 114.843 363.979 114.951 363.924 115.047C363.869 115.142 363.791 115.221 363.697 115.277C363.697 115.277 363.697 115.277 363.697 115.277L351.567 122.34C351.473 122.394 351.368 122.422 351.26 122.422C351.153 122.422 351.047 122.394 350.954 122.34L338.832 115.277C338.831 115.277 338.831 115.277 338.831 115.277C338.738 115.221 338.66 115.142 338.606 115.047C338.552 114.952 338.524 114.844 338.524 114.734V114.733V100.606V100.604V100.602C338.523 100.493 338.55 100.386 338.603 100.291C338.655 100.196 338.73 100.117 338.822 100.062L350.954 92.9999L350.954 92.9999C351.047 92.9456 351.153 92.9171 351.26 92.9171C351.368 92.9171 351.473 92.9456 351.567 92.9999C351.567 92.9999 351.567 92.9999 351.567 92.9999L363.698 100.063Z" fill="#FE5E24" stroke="#FE5E24"/>
<path d="M319.494 144.568C319.493 145.122 319.638 145.666 319.913 146.146C320.188 146.625 320.583 147.024 321.06 147.3L333.195 154.363L333.195 154.364C333.671 154.64 334.211 154.785 334.76 154.785C335.309 154.785 335.849 154.64 336.325 154.364L336.325 154.363L348.464 147.304L348.465 147.303C348.94 147.024 349.334 146.625 349.607 146.145C349.881 145.666 350.026 145.122 350.026 144.569V144.569V130.442V130.441C350.025 129.888 349.88 129.345 349.606 128.865C349.333 128.386 348.94 127.987 348.466 127.707L348.464 127.706L336.325 120.647L336.325 120.646C335.849 120.37 335.309 120.225 334.76 120.225C334.211 120.225 333.671 120.37 333.195 120.646L333.195 120.647L321.06 127.706L321.058 127.707C320.583 127.986 320.189 128.385 319.915 128.864C319.64 129.344 319.495 129.887 319.494 130.441V130.442L319.494 144.568ZM319.494 144.568L319.86 144.569H319.494V144.568ZM347.198 129.899L347.199 129.9C347.294 129.954 347.373 130.033 347.429 130.129C347.484 130.224 347.514 130.332 347.515 130.443L347.508 144.568V144.568C347.507 144.678 347.478 144.786 347.424 144.882C347.369 144.977 347.291 145.057 347.197 145.112C347.197 145.112 347.197 145.112 347.197 145.112L335.066 152.175C334.973 152.229 334.867 152.258 334.76 152.258C334.652 152.258 334.547 152.229 334.454 152.175L322.331 145.113C322.331 145.112 322.331 145.112 322.33 145.112C322.237 145.057 322.16 144.978 322.106 144.883C322.052 144.787 322.023 144.679 322.023 144.569V144.569V130.442V130.44V130.438C322.022 130.329 322.05 130.221 322.102 130.126C322.155 130.032 322.23 129.953 322.321 129.897L334.453 122.835L334.454 122.835C334.547 122.781 334.652 122.752 334.76 122.752C334.867 122.752 334.973 122.781 335.066 122.835C335.066 122.835 335.066 122.835 335.066 122.835L347.198 129.899Z" fill="#FE5E24" stroke="#FE5E24"/>
<path d="M118.243 85.0544C118.242 85.6081 118.387 86.1522 118.662 86.6319C118.936 87.1116 119.332 87.5099 119.809 87.7864L131.944 94.8496L131.944 94.8499C132.42 95.1259 132.96 95.2712 133.509 95.2712C134.058 95.2712 134.598 95.1259 135.073 94.8499L135.074 94.8496L147.213 87.7898L147.214 87.7891C147.689 87.5104 148.083 87.1111 148.356 86.6314C148.63 86.1517 148.775 85.6081 148.775 85.0549V85.0547V70.9277V70.9268C148.774 70.3739 148.629 69.8309 148.355 69.3515C148.082 68.8721 147.689 68.4729 147.215 68.1935L147.213 68.1924L135.074 61.1327L135.073 61.1325C134.598 60.8565 134.058 60.7111 133.509 60.7111C132.96 60.7111 132.42 60.8565 131.944 61.1325L131.944 61.1327L119.808 68.1924L119.807 68.1931C119.332 68.4716 118.938 68.8707 118.663 69.3502C118.389 69.8298 118.244 70.3733 118.243 70.9267V70.9277L118.243 85.0544ZM118.243 85.0544L118.609 85.0547H118.243V85.0544ZM145.947 70.3848L145.948 70.3857C146.043 70.4404 146.122 70.5194 146.178 70.615C146.233 70.7102 146.263 70.8185 146.264 70.9291L146.256 85.0537V85.0539C146.256 85.1645 146.227 85.2726 146.172 85.3681C146.118 85.4635 146.04 85.5427 145.946 85.5981C145.946 85.5981 145.946 85.5981 145.946 85.5983L133.815 92.6611C133.722 92.7152 133.616 92.7437 133.509 92.7437C133.401 92.7437 133.296 92.7152 133.202 92.6611L121.08 85.5988C121.08 85.5985 121.08 85.5983 121.079 85.5981C120.986 85.5429 120.909 85.4637 120.855 85.3689C120.801 85.2735 120.772 85.1652 120.772 85.0551V85.0547V70.9277V70.9258V70.9239C120.771 70.8147 120.798 70.7071 120.851 70.612C120.904 70.5177 120.979 70.4389 121.07 70.383L133.202 63.3214L133.202 63.3214C133.296 63.2671 133.401 63.2386 133.509 63.2386C133.616 63.2386 133.722 63.2671 133.815 63.3214C133.815 63.3214 133.815 63.3214 133.815 63.3214L145.947 70.3848Z" fill="#FE5E24" stroke="#FE5E24"/>
<path d="M68.2215 114.733C68.2211 115.287 68.3655 115.831 68.6404 116.31C68.9154 116.79 69.311 117.188 69.7877 117.465L81.9226 124.528L81.923 124.528C82.3989 124.804 82.9385 124.95 83.4877 124.95C84.0369 124.95 84.5765 124.804 85.0523 124.528L85.0527 124.528L97.1919 117.468L97.1931 117.468C97.6679 117.189 98.0617 116.79 98.3352 116.31C98.6091 115.83 98.7534 115.287 98.7539 114.733V114.733V100.606V100.605C98.7524 100.052 98.6078 99.5094 98.3343 99.0301C98.0607 98.5507 97.6677 98.1514 97.1936 97.8721L97.1919 97.871L85.0527 90.8112L85.0524 90.811C84.5765 90.535 84.0369 90.3896 83.4877 90.3896C82.9385 90.3896 82.3989 90.535 81.923 90.811L81.9226 90.8113L69.7873 97.871L69.7862 97.8716C69.3111 98.1502 68.9168 98.5492 68.6424 99.0288C68.368 99.5083 68.2229 100.052 68.2215 100.605V100.606L68.2215 114.733ZM68.2215 114.733L68.5879 114.733H68.2215V114.733ZM95.9256 100.063L95.9271 100.064C96.0221 100.119 96.1012 100.198 96.1567 100.294C96.2121 100.389 96.2417 100.497 96.2427 100.608L96.2353 114.732V114.732C96.2349 114.843 96.206 114.951 96.1513 115.047C96.0968 115.142 96.0187 115.221 95.9249 115.277C95.9246 115.277 95.9246 115.277 95.9244 115.277L83.7941 122.34C83.7008 122.394 83.5952 122.422 83.4877 122.422C83.3802 122.422 83.2746 122.394 83.1813 122.34L71.0592 115.277C71.0589 115.277 71.0586 115.277 71.0583 115.277C70.9651 115.221 70.8876 115.142 70.8337 115.047C70.7796 114.952 70.7511 114.844 70.7513 114.734V114.733V100.606V100.604V100.602C70.7501 100.493 70.7774 100.386 70.8301 100.291C70.8824 100.196 70.9579 100.117 71.049 100.062L83.1813 92.9999L83.1813 92.9999C83.2746 92.9456 83.3802 92.9171 83.4877 92.9171C83.5951 92.9171 83.7008 92.9456 83.7941 92.9999C83.7941 92.9999 83.7941 92.9999 83.7941 92.9999L95.9256 100.063Z" fill="#FE5E24" stroke="#FE5E24"/>
<path d="M84.7219 85.4441C84.7214 85.9978 84.8659 86.5419 85.1408 87.0216C85.4157 87.5012 85.8114 87.8995 86.2881 88.176L98.4229 95.2393L98.4234 95.2395C98.8993 95.5155 99.4388 95.6608 99.9881 95.6608C100.537 95.6608 101.077 95.5155 101.553 95.2395L101.553 95.2393L113.692 88.1794L113.693 88.1787C114.168 87.9 114.562 87.5007 114.836 87.0211C115.109 86.5414 115.254 85.9978 115.254 85.4445V85.4443V71.3173V71.3164C115.253 70.7635 115.108 70.2206 114.835 69.7412C114.561 69.2618 114.168 68.8625 113.694 68.5832L113.692 68.5821L101.553 61.5224L101.553 61.5222C101.077 61.2461 100.537 61.1008 99.9881 61.1008C99.4388 61.1008 98.8993 61.2461 98.4234 61.5222L98.423 61.5224L86.2877 68.5821L86.2866 68.5827C85.8115 68.8613 85.4172 69.2603 85.1427 69.7399C84.8683 70.2195 84.7233 70.763 84.7219 71.3164V71.3173L84.7219 85.4441ZM84.7219 85.4441L85.0883 85.4443H84.7219V85.4441ZM112.426 70.7745L112.427 70.7753C112.522 70.83 112.602 70.909 112.657 71.0046C112.713 71.0999 112.742 71.2081 112.743 71.3187L112.736 85.4433V85.4436C112.735 85.5541 112.706 85.6622 112.652 85.7578C112.597 85.8531 112.519 85.9323 112.425 85.9877C112.425 85.9877 112.425 85.9877 112.425 85.9879L100.294 93.0507C100.201 93.1049 100.096 93.1333 99.9881 93.1333C99.8806 93.1333 99.7749 93.1049 99.6817 93.0507L87.5596 85.9884C87.5593 85.9882 87.5589 85.9879 87.5586 85.9877C87.4655 85.9326 87.388 85.8534 87.3341 85.7585C87.2799 85.6632 87.2515 85.5548 87.2516 85.4448V85.4443V71.3173V71.3155V71.3136C87.2505 71.2043 87.2777 71.0968 87.3305 71.0016C87.3828 70.9073 87.4583 70.8285 87.5494 70.7727L99.6816 63.711L99.6817 63.711C99.7749 63.6567 99.8806 63.6282 99.9881 63.6282C100.096 63.6282 100.201 63.6567 100.294 63.711C100.294 63.711 100.294 63.711 100.294 63.711L112.426 70.7745Z" fill="#FE5E24" stroke="#FE5E24"/>
<path d="M168.081 55.3806C168.08 55.9343 168.225 56.4785 168.5 56.9581C168.775 57.4378 169.17 57.8361 169.647 58.1126L181.782 65.1758L181.782 65.1761C182.258 65.4521 182.798 65.5974 183.347 65.5974C183.896 65.5974 184.436 65.4521 184.912 65.1761L184.912 65.1758L197.051 58.116L197.052 58.1153C197.527 57.8366 197.921 57.4373 198.195 56.9577C198.468 56.478 198.613 55.9343 198.613 55.3811V55.3809V41.2539V41.253C198.612 40.7001 198.467 40.1571 198.194 39.6778C197.92 39.1984 197.527 38.7991 197.053 38.5198L197.051 38.5187L184.912 31.4589L184.912 31.4587C184.436 31.1827 183.896 31.0374 183.347 31.0374C182.798 31.0374 182.258 31.1827 181.782 31.4587L181.782 31.459L169.647 38.5187L169.646 38.5193C169.17 38.7979 168.776 39.1969 168.502 39.6765C168.227 40.156 168.082 40.6995 168.081 41.253V41.2539L168.081 55.3806ZM168.081 55.3806L168.447 55.3809H168.081V55.3806ZM195.785 40.7111L195.786 40.7119C195.881 40.7666 195.961 40.8456 196.016 40.9412C196.071 41.0364 196.101 41.1447 196.102 41.2553L196.095 55.3799V55.3801C196.094 55.4907 196.065 55.5988 196.011 55.6944C195.956 55.7897 195.878 55.8689 195.784 55.9243C195.784 55.9243 195.784 55.9243 195.784 55.9245L183.653 62.9873C183.56 63.0415 183.454 63.0699 183.347 63.0699C183.24 63.0699 183.134 63.0415 183.041 62.9873L170.919 55.925C170.918 55.9248 170.918 55.9245 170.918 55.9243C170.824 55.8691 170.747 55.79 170.693 55.6951C170.639 55.5998 170.61 55.4914 170.611 55.3814V55.3809V41.2539V41.252V41.2502C170.609 41.1409 170.637 41.0334 170.689 40.9382C170.742 40.8439 170.817 40.7651 170.908 40.7093L183.041 33.6476L183.041 33.6476C183.134 33.5933 183.24 33.5648 183.347 33.5648C183.454 33.5648 183.56 33.5933 183.653 33.6476C183.653 33.6476 183.653 33.6476 183.653 33.6476L195.785 40.7111Z" fill="#FE5E24" stroke="#FE5E24"/>
<path d="M134.823 54.9907C134.822 55.5444 134.967 56.0886 135.242 56.5683C135.517 57.0479 135.912 57.4462 136.389 57.7227L148.524 64.786L148.524 64.7862C149 65.0622 149.54 65.2075 150.089 65.2075C150.638 65.2075 151.178 65.0622 151.654 64.7862L151.654 64.786L163.793 57.7261L163.794 57.7254C164.269 57.4467 164.663 57.0474 164.936 56.5678C165.21 56.0881 165.355 55.5444 165.355 54.9912V54.991V40.864V40.8631C165.354 40.3102 165.209 39.7673 164.936 39.2879C164.662 38.8085 164.269 38.4092 163.795 38.1299L163.793 38.1288L151.654 31.0691L151.654 31.0688C151.178 30.7928 150.638 30.6475 150.089 30.6475C149.54 30.6475 149 30.7928 148.524 31.0688L148.524 31.0691L136.389 38.1288L136.387 38.1294C135.912 38.408 135.518 38.807 135.244 39.2866C134.969 39.7661 134.824 40.3096 134.823 40.8631V40.864L134.823 54.9907ZM134.823 54.9907L135.189 54.991H134.823V54.9907ZM162.527 40.3212L162.528 40.322C162.623 40.3767 162.703 40.4557 162.758 40.5513C162.813 40.6465 162.843 40.7548 162.844 40.8654L162.837 54.99V54.9903C162.836 55.1008 162.807 55.2089 162.753 55.3045C162.698 55.3998 162.62 55.479 162.526 55.5344C162.526 55.5344 162.526 55.5344 162.526 55.5346L150.395 62.5974C150.302 62.6516 150.196 62.68 150.089 62.68C149.981 62.68 149.876 62.6516 149.783 62.5974L137.66 55.5351C137.66 55.5349 137.66 55.5346 137.66 55.5344C137.566 55.4792 137.489 55.4001 137.435 55.3052C137.381 55.2099 137.352 55.1015 137.353 54.9915V54.991V40.864V40.8621V40.8603C137.351 40.751 137.379 40.6435 137.431 40.5483C137.484 40.454 137.559 40.3752 137.65 40.3194L149.783 33.2577L149.783 33.2577C149.876 33.2034 149.982 33.1749 150.089 33.1749C150.196 33.1749 150.302 33.2034 150.395 33.2577C150.395 33.2577 150.395 33.2577 150.395 33.2577L162.527 40.3212Z" fill="#FE5E24" stroke="#FE5E24"/>
<path d="M184.711 25.3433C184.711 25.897 184.855 26.4411 185.13 26.9208C185.405 27.4005 185.801 27.7988 186.277 28.0752L198.412 35.1385L198.413 35.1387C198.889 35.4147 199.428 35.5601 199.977 35.5601C200.527 35.5601 201.066 35.4147 201.542 35.1387L201.542 35.1385L213.681 28.0787L213.683 28.0779C214.158 27.7993 214.551 27.4 214.825 26.9203C215.099 26.4406 215.243 25.897 215.244 25.3438V25.3435V11.2165V11.2156C215.242 10.6628 215.097 10.1198 214.824 9.64041C214.55 9.16101 214.157 8.76178 213.683 8.4824L213.681 8.48133L201.542 1.42159L201.542 1.42139C201.066 1.14535 200.527 1 199.977 1C199.428 1 198.889 1.14535 198.413 1.42139L198.412 1.42162L186.277 8.48133L186.276 8.48196C185.801 8.76053 185.406 9.15954 185.132 9.63911C184.858 10.1187 184.713 10.6622 184.711 11.2156V11.2165L184.711 25.3433ZM184.711 25.3433L185.078 25.3435H184.711V25.3433ZM212.415 10.6737L212.417 10.6745C212.512 10.7293 212.591 10.8083 212.646 10.9039C212.702 10.9991 212.731 11.1074 212.732 11.2179L212.725 25.3426V25.3428C212.724 25.4533 212.696 25.5614 212.641 25.657C212.586 25.7524 212.508 25.8315 212.415 25.8869C212.414 25.8869 212.414 25.8869 212.414 25.8872L200.284 32.9499C200.19 33.0041 200.085 33.0325 199.977 33.0325C199.87 33.0325 199.764 33.0041 199.671 32.9499L187.549 25.8877C187.549 25.8874 187.548 25.8872 187.548 25.8869C187.455 25.8318 187.377 25.7526 187.323 25.6578C187.269 25.5624 187.241 25.4541 187.241 25.344V25.3435V11.2165V11.2147V11.2128C187.24 11.1036 187.267 10.996 187.32 10.9009C187.372 10.8066 187.448 10.7277 187.539 10.6719L199.671 3.61027L199.671 3.61024C199.764 3.55595 199.87 3.52744 199.977 3.52744C200.085 3.52744 200.19 3.55595 200.284 3.61024C200.284 3.61024 200.284 3.61024 200.284 3.61024L212.415 10.6737Z" fill="#FE5E24" stroke="#FE5E24"/>
<path d="M1 55.3806C0.999583 55.9343 1.14405 56.4785 1.41895 56.9581C1.69386 57.4378 2.08953 57.8361 2.5662 58.1126L14.7011 65.1758L14.7015 65.1761C15.1774 65.4521 15.717 65.5974 16.2662 65.5974C16.8154 65.5974 17.355 65.4521 17.8309 65.1761L17.8312 65.1758L29.9704 58.116L29.9716 58.1153C30.4464 57.8366 30.8402 57.4373 31.1137 56.9577C31.3876 56.478 31.5319 55.9343 31.5324 55.3811V55.3809V41.2539V41.253C31.5309 40.7001 31.3863 40.1571 31.1128 39.6778C30.8392 39.1984 30.4462 38.7991 29.9721 38.5198L29.9704 38.5187L17.8312 31.4589L17.8309 31.4587C17.355 31.1827 16.8154 31.0374 16.2662 31.0374C15.717 31.0374 15.1774 31.1827 14.7015 31.4587L14.7011 31.459L2.5658 38.5187L2.56472 38.5193C2.08961 38.7979 1.69531 39.1969 1.42088 39.6765C1.14646 40.156 1.0014 40.6995 1 41.253V41.2539L1 55.3806ZM1 55.3806L1.36639 55.3809H1V55.3806ZM28.7041 40.7111L28.7056 40.7119C28.8006 40.7666 28.8797 40.8456 28.9352 40.9412C28.9906 41.0364 29.0202 41.1447 29.0212 41.2553L29.0138 55.3799V55.3801C29.0134 55.4907 28.9845 55.5988 28.9298 55.6944C28.8754 55.7897 28.7972 55.8689 28.7034 55.9243C28.7031 55.9243 28.7031 55.9243 28.7029 55.9245L16.5726 62.9873C16.4793 63.0415 16.3737 63.0699 16.2662 63.0699C16.1587 63.0699 16.0531 63.0415 15.9598 62.9873L3.83771 55.925C3.83739 55.9248 3.83707 55.9245 3.83675 55.9243C3.74359 55.8691 3.66611 55.79 3.61221 55.6951C3.55808 55.5998 3.52962 55.4914 3.52977 55.3814V55.3809V41.2539V41.252V41.2502C3.52865 41.1409 3.55588 41.0334 3.60862 40.9382C3.66091 40.8439 3.73639 40.7651 3.82755 40.7093L15.9598 33.6476L15.9598 33.6476C16.0531 33.5933 16.1588 33.5648 16.2662 33.5648C16.3737 33.5648 16.4793 33.5933 16.5726 33.6476C16.5726 33.6476 16.5726 33.6476 16.5726 33.6476L28.7041 40.7111Z" fill="#FE5E24" stroke="#FE5E24"/>
<path d="M51.1512 26.3433C51.1508 26.897 51.2952 27.4411 51.5701 27.9208C51.845 28.4005 52.2407 28.7988 52.7174 29.0752L64.8522 36.1385L64.8527 36.1387C65.3286 36.4147 65.8681 36.5601 66.4174 36.5601C66.9666 36.5601 67.5062 36.4147 67.982 36.1387L67.9824 36.1385L80.1216 29.0787L80.1228 29.0779C80.5976 28.7993 80.9914 28.4 81.2649 27.9203C81.5387 27.4406 81.6831 26.897 81.6836 26.3438V26.3435V12.2165V12.2156C81.6821 11.6628 81.5375 11.1198 81.2639 10.6404C80.9904 10.161 80.5974 9.76178 80.1233 9.4824L80.1216 9.48133L67.9824 2.42159L67.9821 2.42139C67.5062 2.14535 66.9666 2 66.4174 2C65.8681 2 65.3286 2.14535 64.8527 2.42139L64.8523 2.42162L52.717 9.48133L52.7159 9.48196C52.2408 9.76053 51.8465 10.1595 51.5721 10.6391C51.2976 11.1187 51.1526 11.6622 51.1512 12.2156V12.2165L51.1512 26.3433ZM51.1512 26.3433L51.5176 26.3435H51.1512V26.3433ZM78.8553 11.6737L78.8568 11.6745C78.9518 11.7293 79.0309 11.8083 79.0864 11.9039C79.1418 11.9991 79.1714 12.1074 79.1724 12.2179L79.165 26.3426V26.3428C79.1645 26.4533 79.1357 26.5614 79.081 26.657C79.0265 26.7524 78.9484 26.8315 78.8546 26.8869C78.8543 26.8869 78.8543 26.8869 78.8541 26.8872L66.7238 33.9499C66.6305 34.0041 66.5249 34.0325 66.4174 34.0325C66.3099 34.0325 66.2042 34.0041 66.111 33.9499L53.9889 26.8877C53.9886 26.8874 53.9883 26.8872 53.9879 26.8869C53.8948 26.8318 53.8173 26.7526 53.7634 26.6578C53.7093 26.5624 53.6808 26.4541 53.681 26.344V26.3435V12.2165V12.2147V12.2128C53.6798 12.1036 53.7071 11.996 53.7598 11.9009C53.8121 11.8066 53.8876 11.7277 53.9787 11.6719L66.111 4.61027L66.111 4.61024C66.2042 4.55595 66.3099 4.52744 66.4174 4.52744C66.5248 4.52744 66.6305 4.55595 66.7238 4.61024C66.7238 4.61024 66.7238 4.61024 66.7238 4.61024L78.8553 11.6737Z" fill="#FE5E24" stroke="#FE5E24"/>
<path d="M101.302 55.3806C101.302 55.9343 101.446 56.4785 101.721 56.9581C101.996 57.4378 102.392 57.8361 102.868 58.1126L115.003 65.1758L115.004 65.1761C115.48 65.4521 116.019 65.5974 116.568 65.5974C117.118 65.5974 117.657 65.4521 118.133 65.1761L118.133 65.1758L130.273 58.116L130.274 58.1153C130.749 57.8366 131.142 57.4373 131.416 56.9577C131.69 56.478 131.834 55.9343 131.835 55.3811V55.3809V41.2539V41.253C131.833 40.7001 131.688 40.1571 131.415 39.6778C131.141 39.1984 130.748 38.7991 130.274 38.5198L130.273 38.5187L118.133 31.4589L118.133 31.4587C117.657 31.1827 117.118 31.0374 116.568 31.0374C116.019 31.0374 115.48 31.1827 115.004 31.4587L115.003 31.459L102.868 38.5187L102.867 38.5193C102.392 38.7979 101.997 39.1969 101.723 39.6765C101.449 40.156 101.304 40.6995 101.302 41.253V41.2539L101.302 55.3806ZM101.302 55.3806L101.669 55.3809H101.302V55.3806ZM129.006 40.7111L129.008 40.7119C129.103 40.7666 129.182 40.8456 129.237 40.9412C129.293 41.0364 129.322 41.1447 129.323 41.2553L129.316 55.3799V55.3801C129.316 55.4907 129.287 55.5988 129.232 55.6944C129.178 55.7897 129.099 55.8689 129.006 55.9243C129.005 55.9243 129.005 55.9243 129.005 55.9245L116.875 62.9873C116.781 63.0415 116.676 63.0699 116.568 63.0699C116.461 63.0699 116.355 63.0415 116.262 62.9873L104.14 55.925C104.14 55.9248 104.139 55.9245 104.139 55.9243C104.046 55.8691 103.968 55.79 103.914 55.6951C103.86 55.5998 103.832 55.4914 103.832 55.3814V55.3809V41.2539V41.252V41.2502C103.831 41.1409 103.858 41.0334 103.911 40.9382C103.963 40.8439 104.039 40.7651 104.13 40.7093L116.262 33.6476L116.262 33.6476C116.355 33.5933 116.461 33.5648 116.568 33.5648C116.676 33.5648 116.781 33.5933 116.875 33.6476C116.875 33.6476 116.875 33.6476 116.875 33.6476L129.006 40.7111Z" fill="#FE5E24" stroke="#FE5E24"/>
<path d="M269.032 54.341C269.032 54.8947 269.177 55.4388 269.451 55.9185C269.726 56.3981 270.122 56.7964 270.599 57.0729L282.734 64.1362L282.734 64.1364C283.21 64.4124 283.749 64.5578 284.299 64.5578C284.848 64.5578 285.387 64.4124 285.863 64.1364L285.864 64.1362L298.003 57.0764L298.004 57.0756C298.479 56.7969 298.873 56.3977 299.146 55.918C299.42 55.4383 299.564 54.8947 299.565 54.3415V54.3412V40.2142V40.2133C299.563 39.6605 299.419 39.1175 299.145 38.6381C298.872 38.1587 298.479 37.7595 298.005 37.4801L298.003 37.479L285.864 30.4193L285.863 30.4191C285.387 30.143 284.848 29.9977 284.299 29.9977C283.749 29.9977 283.21 30.143 282.734 30.4191L282.734 30.4193L270.598 37.479L270.597 37.4796C270.122 37.7582 269.728 38.1572 269.453 38.6368C269.179 39.1164 269.034 39.6599 269.032 40.2133V40.2142L269.032 54.341ZM269.032 54.341L269.399 54.3412H269.032V54.341ZM296.737 39.6714L296.738 39.6722C296.833 39.7269 296.912 39.806 296.968 39.9015C297.023 39.9968 297.053 40.1051 297.054 40.2156L297.046 54.3402V54.3405C297.046 54.451 297.017 54.5591 296.962 54.6547C296.908 54.75 296.83 54.8292 296.736 54.8846C296.736 54.8846 296.736 54.8846 296.735 54.8849L284.605 61.9476C284.512 62.0018 284.406 62.0302 284.299 62.0302C284.191 62.0302 284.086 62.0018 283.992 61.9476L271.87 54.8853C271.87 54.8851 271.87 54.8849 271.869 54.8846C271.776 54.8295 271.699 54.7503 271.645 54.6554C271.591 54.5601 271.562 54.4518 271.562 54.3417V54.3412V40.2142V40.2124V40.2105C271.561 40.1012 271.588 39.9937 271.641 39.8986C271.693 39.8042 271.769 39.7254 271.86 39.6696L283.992 32.6079L283.992 32.6079C284.086 32.5536 284.191 32.5251 284.299 32.5251C284.406 32.5251 284.512 32.5536 284.605 32.6079C284.605 32.6079 284.605 32.6079 284.605 32.6079L296.737 39.6714Z" fill="#FE5E24" stroke="#FE5E24"/>
<path d="M302.553 54.8606C302.553 55.4143 302.697 55.9584 302.972 56.4381C303.247 56.9177 303.643 57.316 304.119 57.5925L316.254 64.6558L316.255 64.656C316.731 64.932 317.27 65.0774 317.819 65.0774C318.369 65.0774 318.908 64.932 319.384 64.656L319.384 64.6558L331.524 57.596L331.525 57.5952C332 57.3165 332.393 56.9173 332.667 56.4376C332.941 55.9579 333.085 55.4143 333.086 54.861V54.8608V40.7338V40.7329C333.084 40.18 332.94 39.6371 332.666 39.1577C332.392 38.6783 331.999 38.279 331.525 37.9997L331.524 37.9986L319.384 30.9389L319.384 30.9387C318.908 30.6626 318.369 30.5173 317.819 30.5173C317.27 30.5173 316.731 30.6626 316.255 30.9387L316.254 30.9389L304.119 37.9986L304.118 37.9992C303.643 38.2778 303.249 38.6768 302.974 39.1564C302.7 39.636 302.555 40.1795 302.553 40.7329V40.7338L302.553 54.8606ZM302.553 54.8606L302.92 54.8608H302.553V54.8606ZM330.257 40.191L330.259 40.1918C330.354 40.2465 330.433 40.3255 330.488 40.4211C330.544 40.5164 330.573 40.6246 330.574 40.7352L330.567 54.8598V54.8601C330.567 54.9706 330.538 55.0787 330.483 55.1743C330.429 55.2696 330.35 55.3488 330.257 55.4042C330.256 55.4042 330.256 55.4042 330.256 55.4045L318.126 62.4672C318.033 62.5214 317.927 62.5498 317.819 62.5498C317.712 62.5498 317.606 62.5214 317.513 62.4672L305.391 55.4049C305.391 55.4047 305.39 55.4045 305.39 55.4042C305.297 55.3491 305.219 55.2699 305.165 55.175C305.111 55.0797 305.083 54.9713 305.083 54.8613V54.8608V40.7338V40.732V40.7301C305.082 40.6208 305.109 40.5133 305.162 40.4181C305.214 40.3238 305.29 40.245 305.381 40.1892L317.513 33.1275L317.513 33.1275C317.606 33.0732 317.712 33.0447 317.819 33.0447C317.927 33.0447 318.033 33.0732 318.126 33.1275C318.126 33.1275 318.126 33.1275 318.126 33.1275L330.257 40.191Z" fill="#FE5E24" stroke="#FE5E24"/>
<path d="M321.314 26.3433C321.313 26.897 321.458 27.4411 321.732 27.9208C322.007 28.4005 322.403 28.7988 322.88 29.0752L335.015 36.1385L335.015 36.1387C335.491 36.4147 336.03 36.5601 336.58 36.5601C337.129 36.5601 337.669 36.4147 338.144 36.1387L338.145 36.1385L350.284 29.0787L350.285 29.0779C350.76 28.7993 351.154 28.4 351.427 27.9203C351.701 27.4406 351.845 26.897 351.846 26.3438V26.3435V12.2165V12.2156C351.844 11.6628 351.7 11.1198 351.426 10.6404C351.153 10.161 350.76 9.76178 350.286 9.4824L350.284 9.48133L338.145 2.42159L338.144 2.42139C337.669 2.14535 337.129 2 336.58 2C336.03 2 335.491 2.14535 335.015 2.42139L335.015 2.42162L322.879 9.48133L322.878 9.48196C322.403 9.76053 322.009 10.1595 321.734 10.6391C321.46 11.1187 321.315 11.6622 321.314 12.2156V12.2165L321.314 26.3433ZM321.314 26.3433L321.68 26.3435H321.314V26.3433ZM349.018 11.6737L349.019 11.6745C349.114 11.7293 349.193 11.8083 349.249 11.9039C349.304 11.9991 349.334 12.1074 349.335 12.2179L349.327 26.3426V26.3428C349.327 26.4533 349.298 26.5614 349.243 26.657C349.189 26.7524 349.111 26.8315 349.017 26.8869C349.017 26.8869 349.017 26.8869 349.016 26.8872L336.886 33.9499C336.793 34.0041 336.687 34.0325 336.58 34.0325C336.472 34.0325 336.367 34.0041 336.273 33.9499L324.151 26.8877C324.151 26.8874 324.151 26.8872 324.15 26.8869C324.057 26.8318 323.98 26.7526 323.926 26.6578C323.872 26.5624 323.843 26.4541 323.843 26.344V26.3435V12.2165V12.2147V12.2128C323.842 12.1036 323.869 11.996 323.922 11.9009C323.974 11.8066 324.05 11.7277 324.141 11.6719L336.273 4.61027L336.273 4.61024C336.367 4.55595 336.472 4.52744 336.58 4.52744C336.687 4.52744 336.793 4.55595 336.886 4.61024C336.886 4.61024 336.886 4.61024 336.886 4.61024L349.018 11.6737Z" fill="#FE5E24" stroke="#FE5E24"/>
<path d="M201.602 54.8606C201.601 55.4143 201.746 55.9584 202.02 56.4381C202.295 56.9177 202.691 57.316 203.168 57.5925L215.303 64.6558L215.303 64.656C215.779 64.932 216.318 65.0774 216.868 65.0774C217.417 65.0774 217.956 64.932 218.432 64.656L218.433 64.6558L230.572 57.596L230.573 57.5952C231.048 57.3165 231.442 56.9173 231.715 56.4376C231.989 55.9579 232.133 55.4143 232.134 54.861V54.8608V40.7338V40.7329C232.132 40.18 231.988 39.6371 231.714 39.1577C231.441 38.6783 231.048 38.279 230.574 37.9997L230.572 37.9986L218.433 30.9389L218.432 30.9387C217.956 30.6626 217.417 30.5173 216.868 30.5173C216.318 30.5173 215.779 30.6626 215.303 30.9387L215.303 30.9389L203.167 37.9986L203.166 37.9992C202.691 38.2778 202.297 38.6768 202.022 39.1564C201.748 39.636 201.603 40.1795 201.602 40.7329V40.7338L201.602 54.8606ZM201.602 54.8606L201.968 54.8608H201.602V54.8606ZM229.306 40.191L229.307 40.1918C229.402 40.2465 229.481 40.3255 229.537 40.4211C229.592 40.5164 229.622 40.6246 229.623 40.7352L229.615 54.8598V54.8601C229.615 54.9706 229.586 55.0787 229.531 55.1743C229.477 55.2696 229.399 55.3488 229.305 55.4042C229.305 55.4042 229.305 55.4042 229.304 55.4045L217.174 62.4672C217.081 62.5214 216.975 62.5498 216.868 62.5498C216.76 62.5498 216.655 62.5214 216.561 62.4672L204.439 55.4049C204.439 55.4047 204.439 55.4045 204.438 55.4042C204.345 55.3491 204.268 55.2699 204.214 55.175C204.16 55.0797 204.131 54.9713 204.131 54.8613V54.8608V40.7338V40.732V40.7301C204.13 40.6208 204.157 40.5133 204.21 40.4181C204.262 40.3238 204.338 40.245 204.429 40.1892L216.561 33.1275L216.561 33.1275C216.655 33.0732 216.76 33.0447 216.868 33.0447C216.975 33.0447 217.081 33.0732 217.174 33.1275C217.174 33.1275 217.174 33.1275 217.174 33.1275L229.306 40.191Z" fill="#FE5E24" stroke="#FE5E24"/>
<path d="M235.122 54.8606C235.122 55.4143 235.266 55.9584 235.541 56.4381C235.816 56.9177 236.212 57.316 236.688 57.5925L248.823 64.6558L248.824 64.656C249.3 64.932 249.839 65.0774 250.388 65.0774C250.938 65.0774 251.477 64.932 251.953 64.656L251.953 64.6558L264.092 57.596L264.094 57.5952C264.569 57.3165 264.962 56.9173 265.236 56.4376C265.51 55.9579 265.654 55.4143 265.655 54.861V54.8608V40.7338V40.7329C265.653 40.18 265.508 39.6371 265.235 39.1577C264.961 38.6783 264.568 38.279 264.094 37.9997L264.092 37.9986L251.953 30.9389L251.953 30.9387C251.477 30.6626 250.938 30.5173 250.388 30.5173C249.839 30.5173 249.3 30.6626 248.824 30.9387L248.823 30.9389L236.688 37.9986L236.687 37.9992C236.212 38.2778 235.817 38.6768 235.543 39.1564C235.269 39.636 235.124 40.1795 235.122 40.7329V40.7338L235.122 54.8606ZM235.122 54.8606L235.489 54.8608H235.122V54.8606ZM262.826 40.191L262.828 40.1918C262.923 40.2465 263.002 40.3255 263.057 40.4211C263.113 40.5164 263.142 40.6246 263.143 40.7352L263.136 54.8598V54.8601C263.135 54.9706 263.107 55.0787 263.052 55.1743C262.997 55.2696 262.919 55.3488 262.826 55.4042C262.825 55.4042 262.825 55.4042 262.825 55.4045L250.695 62.4672C250.601 62.5214 250.496 62.5498 250.388 62.5498C250.281 62.5498 250.175 62.5214 250.082 62.4672L237.96 55.4049C237.96 55.4047 237.959 55.4045 237.959 55.4042C237.866 55.3491 237.788 55.2699 237.734 55.175C237.68 55.0797 237.652 54.9713 237.652 54.8613V54.8608V40.7338V40.732V40.7301C237.651 40.6208 237.678 40.5133 237.731 40.4181C237.783 40.3238 237.859 40.245 237.95 40.1892L250.082 33.1275L250.082 33.1275C250.175 33.0732 250.281 33.0447 250.388 33.0447C250.496 33.0447 250.601 33.0732 250.695 33.1275C250.695 33.1275 250.695 33.1275 250.695 33.1275L262.826 40.191Z" fill="#FE5E24" stroke="#FE5E24"/>
<path d="M68.8533 57.0098L68.8533 57.0098L68.8507 57.0051C68.6218 56.6044 68.5 56.1376 68.5 55.656V41.344C68.5 40.8653 68.6204 40.4083 68.8533 39.9902L68.8533 39.9902L68.8553 39.9867C69.0735 39.5872 69.4031 39.2459 69.7937 39.0078C69.7942 39.0075 69.7947 39.0072 69.7951 39.0069L81.7161 31.8588L81.7161 31.8588L81.719 31.8571C82.1038 31.6227 82.5492 31.5 82.994 31.5C83.4389 31.5 83.8843 31.6227 84.2691 31.8571L84.2719 31.8587L96.2049 39.0192C96.2053 39.0195 96.2058 39.0198 96.2062 39.02C96.5956 39.2574 96.9151 39.5868 97.1467 40.0025C97.3796 40.4206 97.5 40.8776 97.5 41.3563V55.656C97.5 56.1347 97.3796 56.5917 97.1467 57.0098L97.1447 57.0133C96.9265 57.4128 96.5969 57.7541 96.2063 57.9922C96.2058 57.9925 96.2053 57.9928 96.2049 57.9931L84.2839 65.1412L84.281 65.143C83.8962 65.3773 83.4508 65.5 83.0059 65.5C82.5611 65.5 82.1157 65.3773 81.7309 65.1429L81.728 65.1412L69.8041 57.9913L69.8022 57.9902C69.4035 57.7535 69.0848 57.4253 68.8533 57.0098Z" fill="#FE5E24" stroke="#FE5E24"/>
<path d="M72.6321 54.5021L72.628 54.495L72.6237 54.4878C72.546 54.3566 72.5 54.1954 72.5 54.0204V42.9796C72.5 42.8134 72.5417 42.6544 72.6321 42.4979L72.6321 42.4979L72.6382 42.4871C72.7111 42.3586 72.8311 42.2335 72.9842 42.1428L82.518 36.6302L82.518 36.6303L82.5266 36.6253C82.6627 36.5453 82.8281 36.5 82.9952 36.5C83.1624 36.5 83.3278 36.5453 83.4639 36.6253L83.4639 36.6253L83.4721 36.63L93.0157 42.1522C93.165 42.2405 93.2813 42.3574 93.3679 42.5074C93.4583 42.6639 93.5 42.8229 93.5 42.9891V54.0204C93.5 54.1866 93.4583 54.3456 93.3679 54.5021L93.3679 54.5021L93.3618 54.5129C93.2889 54.6414 93.1689 54.7665 93.0158 54.8572L83.482 60.3698L83.482 60.3697L83.4734 60.3748C83.3373 60.4547 83.1719 60.5 83.0048 60.5C82.8376 60.5 82.6722 60.4547 82.5361 60.3748L82.5361 60.3747L82.5275 60.3698L72.9884 54.8541L72.9885 54.8541L72.9828 54.8509C72.8315 54.7643 72.7181 54.6511 72.6321 54.5021Z" fill="#FE5E24" stroke="#F3F3F3" stroke-width="3"/>
<path d="M53.1633 87.0098L53.1633 87.0098L53.1606 87.0051C52.9318 86.6044 52.81 86.1376 52.81 85.656V71.344C52.81 70.8653 52.9304 70.4083 53.1633 69.9902L53.1633 69.9902L53.1653 69.9867C53.3835 69.5872 53.7131 69.2459 54.1037 69.0078C54.1042 69.0075 54.1046 69.0072 54.1051 69.0069L66.0261 61.8588L66.0261 61.8588L66.0289 61.8571C66.4138 61.6227 66.8592 61.5 67.304 61.5C67.7489 61.5 68.1942 61.6227 68.5791 61.8571L68.5819 61.8587L80.5149 69.0192C80.5153 69.0195 80.5158 69.0198 80.5162 69.02C80.9056 69.2574 81.2251 69.5868 81.4567 70.0025C81.6895 70.4206 81.81 70.8776 81.81 71.3563V85.656C81.81 86.1347 81.6895 86.5917 81.4567 87.0098L81.4547 87.0133C81.2364 87.4128 80.9069 87.7541 80.5162 87.9922C80.5158 87.9925 80.5153 87.9928 80.5149 87.9931L68.5939 95.1412L68.591 95.143C68.2061 95.3773 67.7608 95.5 67.3159 95.5C66.8711 95.5 66.4257 95.3773 66.0408 95.1429L66.038 95.1412L54.1141 87.9913L54.1122 87.9902C53.7134 87.7535 53.3947 87.4253 53.1633 87.0098Z" fill="#FE5E24" stroke="#FE5E24"/>
<path d="M56.9421 84.5021L56.9379 84.495L56.9337 84.4878C56.856 84.3566 56.81 84.1954 56.81 84.0204V72.9796C56.81 72.8134 56.8517 72.6544 56.9421 72.4979L56.9421 72.4979L56.9482 72.4871C57.0211 72.3586 57.141 72.2335 57.2942 72.1428L66.828 66.6302L66.828 66.6303L66.8366 66.6253C66.9727 66.5453 67.1381 66.5 67.3052 66.5C67.4724 66.5 67.6378 66.5453 67.7739 66.6253L67.7739 66.6253L67.7821 66.63L77.3257 72.1522C77.4749 72.2405 77.5913 72.3574 77.6779 72.5074C77.7683 72.6639 77.81 72.8229 77.81 72.9891V84.0204C77.81 84.1866 77.7683 84.3456 77.6779 84.5021L77.6778 84.5021L77.6717 84.5129C77.5989 84.6414 77.4789 84.7665 77.3258 84.8572L67.792 90.3698L67.792 90.3697L67.7834 90.3748C67.6473 90.4547 67.4819 90.5 67.3147 90.5C67.1476 90.5 66.9822 90.4547 66.8461 90.3748L66.8461 90.3747L66.8375 90.3698L57.2984 84.8541L57.2984 84.8541L57.2927 84.8509C57.1415 84.7643 57.0281 84.6511 56.9421 84.5021Z" fill="#FE5E24" stroke="#F3F3F3" stroke-width="3"/>
</svg>
