<svg width="79" height="138" viewBox="0 0 79 138" fill="none" xmlns="http://www.w3.org/2000/svg">
<path d="M28.9362 35.6535C28.9362 34.986 28.6563 34.3459 28.1581 33.8739C27.6599 33.4019 26.9842 33.1368 26.2797 33.1368C23.4614 33.1368 20.7586 32.0762 18.7658 30.1883C16.7731 28.3004 15.6535 25.7398 15.6535 23.0699C15.6535 22.4024 15.3736 21.7623 14.8754 21.2903C14.3772 20.8183 13.7015 20.5532 12.997 20.5532C12.2924 20.5532 11.6167 20.8183 11.1185 21.2903C10.6203 21.7623 10.3405 22.4024 10.3405 23.0699C10.3447 27.0735 12.0253 30.912 15.0136 33.743C18.0019 36.574 22.0536 38.1662 26.2797 38.1702C26.9842 38.1702 27.6599 37.9051 28.1581 37.4331C28.6563 36.9611 28.9362 36.321 28.9362 35.6535Z" fill="#F3F3F3"/>
<path d="M23.9256 8.51167C23.3738 8.97436 23.0638 9.60189 23.0638 10.2562C23.0638 10.9106 23.3738 11.5381 23.9256 12.0008C24.4773 12.4635 25.2257 12.7234 26.006 12.7234C26.7863 12.7234 27.5347 12.4635 28.0864 12.0008C28.6214 11.5297 28.9248 10.9067 28.9362 10.2562C28.9304 9.60482 28.6262 8.98021 28.0864 8.51167C27.5198 8.07323 26.777 7.82979 26.006 7.82979C25.235 7.82979 24.4922 8.07323 23.9256 8.51167V8.51167Z" fill="#F3F3F3"/>
<path d="M163.717 108.439C161.628 104.352 158.477 100.905 154.594 98.4608C150.711 96.0165 146.241 94.666 141.655 94.5517C137.069 94.4373 132.537 95.5634 128.537 97.8112C124.538 100.059 121.218 103.345 118.93 107.323H60.3492L35.3904 82.3499L54.1101 5.71645C54.1988 5.3606 54.2099 4.98981 54.1426 4.62928C54.0754 4.26876 53.9313 3.92695 53.7203 3.62708C53.5093 3.3272 53.2362 3.07629 52.9196 2.8914C52.6031 2.70651 52.2505 2.59196 51.8857 2.55555L27.997 0.163787C27.3683 0.0505727 26.7305 -0.00417422 26.0918 0.00024791C25.5771 0.000417366 25.0637 0.0526402 24.5595 0.156121V0.156121C22.3558 0.493937 20.324 1.54659 18.7765 3.15226C17.2289 4.75793 16.2513 6.82772 15.9938 9.04345L11.5169 13.5229C11.273 13.7586 11.0784 14.0406 10.9446 14.3523C10.8108 14.6641 10.7403 14.9994 10.7374 15.3387C10.7344 15.678 10.799 16.0145 10.9274 16.3285C11.0558 16.6425 11.2455 16.9278 11.4853 17.1678C11.7251 17.4077 12.0102 17.5974 12.3241 17.7259C12.6379 17.8544 12.9742 17.919 13.3133 17.9161C13.6524 17.9131 13.9875 17.8426 14.2991 17.7087C14.6107 17.5748 14.8925 17.3801 15.1281 17.1361L17.1712 15.0918C18.0252 16.6866 19.2905 18.0233 20.8356 18.9631C22.3807 19.9029 24.1491 20.4115 25.9572 20.436C27.7652 20.4606 29.5468 20.0001 31.1168 19.1025C32.6867 18.2049 33.9878 16.903 34.8847 15.332H36.3072L16.8979 94.6536C16.6425 94.6536 16.3871 94.6357 16.1317 94.6536C12.983 94.929 9.91245 95.7858 7.07577 97.1808C6.71089 97.3598 6.39396 97.6233 6.1513 97.9494C5.90865 98.2755 5.74727 98.6549 5.68059 99.056C5.61391 99.457 5.64384 99.8682 5.7679 100.255C5.89196 100.643 6.10656 100.995 6.39389 101.282L9.64239 104.512C6.90363 106.059 4.62118 108.301 3.02542 111.013C1.42966 113.724 0.577073 116.809 0.553716 119.956C0.530359 123.103 1.33706 126.2 2.89239 128.935C4.44772 131.67 6.69664 133.946 9.41213 135.533C12.1276 137.121 15.2136 137.963 18.3585 137.976C21.5035 137.988 24.5961 137.171 27.3242 135.605C30.0524 134.039 32.3194 131.781 33.8966 129.059C35.4738 126.337 36.3053 123.246 36.3072 120.099C36.309 117.417 35.7041 114.769 34.5378 112.355C33.3715 109.94 31.6741 107.82 29.5727 106.155L31.4625 98.4227L40.3576 107.323H38.8611C38.1837 107.323 37.5341 107.592 37.0552 108.071C36.5763 108.55 36.3072 109.2 36.3072 109.878C36.3072 110.556 36.5763 111.206 37.0552 111.685C37.5341 112.164 38.1837 112.433 38.8611 112.433H40.3576L47.2683 119.351L54.9299 127.016C55.1673 127.254 55.4492 127.443 55.7595 127.571C56.0697 127.699 56.4023 127.765 56.738 127.765H124.926C126.56 131.239 129.271 134.091 132.655 135.899C136.04 137.707 139.917 138.374 143.711 137.799C147.504 137.225 151.011 135.441 153.709 132.712C156.408 129.984 158.154 126.456 158.688 122.655H161.446C162.123 122.655 162.773 122.385 163.252 121.906C163.731 121.427 164 120.777 164 120.099V109.623C164.002 109.211 163.905 108.805 163.717 108.439V108.439ZM26.0918 15.332C24.7935 15.3352 23.543 14.8424 22.5956 13.9542C21.6483 13.066 21.0755 11.8494 20.9944 10.5529C20.9132 9.25648 21.3297 7.97792 22.1589 6.97837C22.9881 5.97882 24.1674 5.33369 25.4559 5.17473H25.5861C25.733 5.14556 25.8813 5.12424 26.0305 5.11085L27.1721 5.22583C27.7877 5.35938 28.3731 5.60633 28.8985 5.95409C28.97 6.00264 29.0364 6.06142 29.1079 6.11252C29.2862 6.24023 29.4568 6.37846 29.6187 6.52648C29.7029 6.60825 29.7795 6.69513 29.8587 6.78201C29.9847 6.91952 30.1032 7.06367 30.2137 7.21386C30.2922 7.3178 30.3647 7.42615 30.4308 7.53838C30.5239 7.69064 30.6091 7.84757 30.6862 8.00855C30.7423 8.1261 30.8011 8.24364 30.8471 8.3663C30.9161 8.55115 30.975 8.73968 31.0233 8.93102C31.0514 9.04089 31.0897 9.14822 31.1101 9.26065C31.17 9.5774 31.1999 9.89908 31.1995 10.2214C31.1948 10.5027 31.1666 10.783 31.1152 11.0596C31.0569 11.3539 30.9767 11.6435 30.8751 11.9258C30.8751 11.959 30.8751 11.9974 30.8522 12.0331C30.4856 13.0005 29.8343 13.8338 28.9843 14.4228C28.1344 15.0118 27.1257 15.3289 26.0918 15.332ZM41.5732 11.2001C41.3346 10.8955 41.0299 10.6492 40.6821 10.4796C40.3344 10.3101 39.9527 10.2218 39.5659 10.2214H36.3072C36.3055 9.51031 36.2302 8.80126 36.0825 8.10566C36.0467 7.94467 35.9803 7.80158 35.9369 7.64315C35.8069 7.12618 35.6361 6.62035 35.4261 6.13041C35.4261 6.10741 35.4133 6.0793 35.4031 6.05631L48.4278 7.35951L30.086 82.5364L29.966 83.0475L24.2096 106.589L21.0581 119.491C21.009 119.69 20.9841 119.894 20.9841 120.099C20.9841 120.777 20.715 121.427 20.2361 121.906C19.7571 122.385 19.1075 122.655 18.4302 122.655C17.7529 122.655 17.1033 122.385 16.6244 121.906C16.1454 121.427 15.8764 120.777 15.8764 120.099C15.8831 119.707 15.981 119.321 16.1624 118.972C16.247 118.802 16.3121 118.623 16.3565 118.438L19.536 105.445L21.3518 98.0164L42.038 13.39C42.1322 13.0133 42.1392 12.62 42.0587 12.2401C41.9782 11.8602 41.8121 11.5036 41.5732 11.1976V11.2001ZM12.7939 100.444C13.7288 100.18 14.6812 99.9815 15.644 99.8511L14.9825 102.555L14.9187 102.57L12.7939 100.444ZM28.1808 111.856C29.9177 113.918 30.9579 116.477 31.1525 119.167C31.3471 121.857 30.6862 124.539 29.2642 126.83C27.8423 129.121 25.7324 130.903 23.2366 131.921C20.7407 132.939 17.987 133.14 15.3696 132.497C12.7522 131.853 10.4055 130.398 8.66534 128.338C6.92522 126.279 5.88096 123.721 5.6821 121.032C5.48324 118.343 6.13997 115.659 7.55826 113.366C8.97654 111.073 11.0837 109.288 13.5779 108.266L11.4582 116.966C11.0064 117.949 10.7713 119.018 10.7686 120.099C10.7239 122.132 11.4883 124.1 12.8935 125.569C14.2987 127.039 16.2297 127.889 18.2617 127.934C20.2936 127.979 22.2601 127.214 23.7286 125.808C25.197 124.402 26.0471 122.47 26.0918 120.437L28.1808 111.856ZM33.7253 89.1623L33.9806 88.1402L53.1346 107.305H47.5799L32.8825 92.5992L33.7253 89.1623ZM141.015 132.876C139.036 132.873 137.084 132.41 135.315 131.523C133.545 130.636 132.005 129.35 130.818 127.765H141.015C143.047 127.765 144.996 126.958 146.433 125.52C147.87 124.082 148.677 122.132 148.677 120.099C148.677 118.066 147.87 116.116 146.433 114.679C144.996 113.241 143.047 112.433 141.015 112.433H130.818C132.124 110.691 133.854 109.311 135.844 108.425C137.833 107.54 140.016 107.178 142.184 107.375C144.353 107.571 146.435 108.319 148.233 109.548C150.032 110.776 151.486 112.444 152.458 114.393C153.431 116.343 153.889 118.508 153.789 120.685C153.689 122.861 153.035 124.976 151.888 126.828C150.742 128.68 149.141 130.208 147.238 131.266C145.335 132.325 143.193 132.879 141.015 132.876V132.876ZM158.892 117.544H158.711C158.683 117.347 158.632 117.156 158.599 116.961C158.555 116.719 158.514 116.478 158.461 116.241C158.389 115.914 158.302 115.592 158.205 115.272C158.144 115.05 158.085 114.825 158.016 114.608C157.906 114.268 157.779 113.941 157.654 113.611C157.577 113.422 157.511 113.228 157.431 113.039C157.265 112.658 157.082 112.29 156.893 111.925C156.826 111.8 156.773 111.669 156.704 111.544C156.438 111.055 156.151 110.583 155.843 110.126C155.787 110.044 155.723 109.968 155.664 109.886C155.409 109.515 155.153 109.152 154.857 108.802C154.737 108.657 154.602 108.521 154.479 108.378C154.244 108.105 154.007 107.834 153.754 107.578C153.606 107.425 153.445 107.282 153.292 107.134C153.036 106.904 152.801 106.674 152.546 106.457C152.372 106.311 152.196 106.173 152.017 106.035C151.762 105.836 151.507 105.639 151.251 105.452C151.062 105.317 150.863 105.197 150.669 105.064C150.401 104.89 150.127 104.724 149.852 104.553C149.645 104.435 149.438 104.323 149.228 104.213C148.945 104.065 148.654 103.927 148.363 103.794C148.146 103.697 147.931 103.6 147.711 103.51C147.408 103.388 147.099 103.278 146.787 103.17C146.567 103.096 146.35 103.017 146.126 102.951C145.796 102.854 145.462 102.774 145.124 102.695C144.907 102.644 144.695 102.588 144.476 102.544C144.1 102.47 143.71 102.419 143.337 102.371C143.148 102.345 142.964 102.309 142.772 102.291C142.19 102.243 141.605 102.212 141.015 102.212C137.322 102.219 133.721 103.369 130.707 105.503C127.692 107.638 125.41 110.653 124.175 114.135C124.039 114.521 123.997 114.933 124.053 115.339C124.109 115.744 124.261 116.13 124.497 116.464C124.733 116.798 125.046 117.07 125.409 117.258C125.772 117.446 126.175 117.544 126.583 117.544H141.015C141.693 117.544 142.342 117.813 142.821 118.292C143.3 118.772 143.569 119.422 143.569 120.099C143.569 120.777 143.3 121.427 142.821 121.906C142.342 122.385 141.693 122.655 141.015 122.655H57.7953L55.2415 120.099H89.9382C90.6155 120.099 91.2651 119.83 91.744 119.351C92.223 118.872 92.492 118.222 92.492 117.544C92.492 116.866 92.223 116.216 91.744 115.737C91.2651 115.258 90.6155 114.989 89.9382 114.989H50.1338L47.5799 112.433H120.454C120.931 112.436 121.399 112.305 121.805 112.055C122.211 111.806 122.54 111.447 122.753 111.02C124.405 107.678 126.941 104.854 130.086 102.853C133.231 100.853 136.863 99.7529 140.589 99.6733C144.314 99.5938 147.99 100.538 151.217 102.402C154.444 104.266 157.099 106.98 158.892 110.249V117.544Z" fill="#F3F3F3"/>
</svg>
