<svg width="76" height="137" viewBox="0 0 76 137" fill="none" xmlns="http://www.w3.org/2000/svg">
<path d="M112.135 86.7667H109.846V81.0583C109.846 80.15 109.484 79.2788 108.841 78.6365C108.197 77.9942 107.324 77.6333 106.413 77.6333H102.981C99.9461 77.6333 97.0357 78.8362 94.8898 80.9772C92.744 83.1182 91.5385 86.0221 91.5385 89.05V102.75H70.9423V98.1833C70.9423 96.9722 70.4601 95.8106 69.6018 94.9542C68.7434 94.0978 67.5793 93.6167 66.3654 93.6167V22.8333C67.5793 22.8333 68.7434 22.3522 69.6018 21.4958C70.4601 20.6394 70.9423 19.4778 70.9423 18.2667H99.5481C100.458 18.2667 101.332 17.9058 101.975 17.2635C102.619 16.6212 102.981 15.75 102.981 14.8417V7.99167C102.981 7.0833 102.619 6.21214 101.975 5.56983C101.332 4.92751 100.458 4.56667 99.5481 4.56667H70.9423C70.9423 3.35551 70.4601 2.19396 69.6018 1.33755C68.7434 0.481129 67.5793 0 66.3654 0H52.6346C51.4207 0 50.2566 0.481129 49.3982 1.33755C48.5399 2.19396 48.0577 3.35551 48.0577 4.56667H19.4519C18.5415 4.56667 17.6684 4.92751 17.0246 5.56983C16.3809 6.21214 16.0192 7.0833 16.0192 7.99167V14.8417C16.0192 15.75 16.3809 16.6212 17.0246 17.2635C17.6684 17.9058 18.5415 18.2667 19.4519 18.2667H48.0577C48.0577 19.4778 48.5399 20.6394 49.3982 21.4958C50.2566 22.3522 51.4207 22.8333 52.6346 22.8333V93.6167C51.4207 93.6167 50.2566 94.0978 49.3982 94.9542C48.5399 95.8106 48.0577 96.9722 48.0577 98.1833V102.75H27.4615V89.05C27.4615 86.0221 26.256 83.1182 24.1102 80.9772C21.9643 78.8362 19.0539 77.6333 16.0192 77.6333H12.5865C11.6761 77.6333 10.803 77.9942 10.1593 78.6365C9.5155 79.2788 9.15385 80.15 9.15385 81.0583V86.7667H6.86538C5.04457 86.7667 3.29833 87.4884 2.01082 88.773C0.723315 90.0576 0 91.7999 0 93.6167V130.15C0 131.967 0.723315 133.709 2.01082 134.994C3.29833 136.278 5.04457 137 6.86538 137H20.5962C22.417 137 24.1632 136.278 25.4507 134.994C26.7382 133.709 27.4615 131.967 27.4615 130.15V121.017H91.5385V130.15C91.5385 131.967 92.2618 133.709 93.5493 134.994C94.8368 136.278 96.583 137 98.4038 137H112.135C113.955 137 115.702 136.278 116.989 134.994C118.277 133.709 119 131.967 119 130.15V93.6167C119 91.7999 118.277 90.0576 116.989 88.773C115.702 87.4884 113.955 86.7667 112.135 86.7667ZM93.8269 9.13333H98.4038V13.7H93.8269V9.13333ZM25.1731 13.7H20.5962V9.13333H25.1731V13.7ZM114.423 117.432L105.269 122.912L96.1154 117.432V116.45H106.413C107.324 116.45 108.197 116.089 108.841 115.447C109.484 114.805 109.846 113.933 109.846 113.025V107.317L114.423 104.577V117.432ZM112.135 91.3333C112.742 91.3333 113.324 91.5739 113.753 92.0021C114.182 92.4303 114.423 93.0111 114.423 93.6167V99.1652L109.846 101.905V91.3333H112.135ZM96.1154 89.05C96.1154 87.2333 96.8387 85.4909 98.1262 84.2063C99.4137 82.9217 101.16 82.2 102.981 82.2H105.269V111.883H96.1154V89.05ZM89.25 9.13333V13.7H70.9423V9.13333H89.25ZM29.75 13.7V9.13333H48.0577V13.7H29.75ZM52.6346 4.56667H66.3654V18.2667H52.6346V4.56667ZM57.2115 22.8333H61.7885V93.6167H57.2115V22.8333ZM52.6346 98.1833H66.3654V102.75H52.6346V98.1833ZM22.8846 117.432L13.7308 122.912L4.57692 117.432V104.508L9.15385 107.317V113.025C9.15385 113.933 9.5155 114.805 10.1593 115.447C10.803 116.089 11.6761 116.45 12.5865 116.45H22.8846V117.432ZM13.7308 82.2H16.0192C17.84 82.2 19.5863 82.9217 20.8738 84.2063C22.1613 85.4909 22.8846 87.2333 22.8846 89.05V111.883H13.7308V82.2ZM6.86538 91.3333H9.15385V101.905L4.57692 99.1652V93.6167C4.57692 93.0111 4.81803 92.4303 5.2472 92.0021C5.67637 91.5739 6.25845 91.3333 6.86538 91.3333ZM20.5962 132.433H6.86538C6.25845 132.433 5.67637 132.193 5.2472 131.765C4.81803 131.336 4.57692 130.756 4.57692 130.15V122.775L11.9687 127.204C12.5012 127.522 13.1102 127.69 13.7308 127.69C14.3513 127.69 14.9603 127.522 15.4929 127.204L22.8846 122.775V130.15C22.8846 130.756 22.6435 131.336 22.2143 131.765C21.7852 132.193 21.2031 132.433 20.5962 132.433ZM27.4615 116.45V107.317H91.5385V116.45H27.4615ZM112.135 132.433H98.4038C97.7969 132.433 97.2148 132.193 96.7857 131.765C96.3565 131.336 96.1154 130.756 96.1154 130.15V122.775L103.507 127.204C104.04 127.522 104.649 127.69 105.269 127.69C105.89 127.69 106.499 127.522 107.031 127.204L114.423 122.775V130.15C114.423 130.756 114.182 131.336 113.753 131.765C113.324 132.193 112.742 132.433 112.135 132.433Z" fill="#F3F3F3"/>
</svg>
