<svg width="91" height="65" viewBox="0 0 91 65" fill="none" xmlns="http://www.w3.org/2000/svg">
<path d="M6.00784 9.73569L3.92197 2.81856C3.82312 2.49099 3.80367 2.14536 3.86511 1.80913C3.92656 1.4729 4.06725 1.15535 4.27597 0.881707C4.4847 0.608069 4.75571 0.385888 5.06747 0.232828C5.37924 0.0797675 5.72316 4.65238e-05 6.0719 0H21.461C24.4333 0.00332141 27.2828 1.16127 29.3846 3.2198C31.4863 5.27834 32.6685 8.06937 32.6719 10.9806V11.4537H131.328V10.9806C131.331 8.06937 132.514 5.27834 134.615 3.2198C136.717 1.16127 139.567 0.00332141 142.539 0H157.928C158.277 4.65238e-05 158.621 0.0797675 158.933 0.232828C159.244 0.385888 159.515 0.608069 159.724 0.881707C159.933 1.15535 160.073 1.4729 160.135 1.80913C160.196 2.14536 160.177 2.49099 160.078 2.81856L157.992 9.73569C159.848 10.9663 161.367 12.625 162.414 14.5656C163.462 16.5061 164.006 18.6692 164 20.8644V51.5046C163.997 55.0821 162.545 58.5124 159.963 61.0426C157.381 63.5727 153.879 64.996 150.227 65H145.102C141.449 64.996 137.947 63.5727 135.365 61.0426C132.783 58.5124 131.331 55.0821 131.328 51.5046V46.904H94.8227C94.3024 46.9035 93.7983 46.7261 93.3967 46.402L82 37.2022L70.6033 46.4033C70.2017 46.7274 69.6976 46.9048 69.1773 46.9053H32.6719V51.5058C32.6689 55.0831 31.2169 58.5131 28.6346 61.043C26.0524 63.5729 22.5508 64.996 18.8985 65H13.7735C10.1209 64.996 6.61917 63.5727 4.0369 61.0426C1.45461 58.5124 0.0027771 55.0821 6.10352e-05 51.5046V20.8644C-0.00640869 18.6692 0.538132 16.5061 1.58575 14.5656C2.63338 12.625 4.15196 10.9663 6.00784 9.73569ZM28.1875 10.9806C28.1855 9.23385 27.4762 7.55924 26.2151 6.32411C24.9541 5.08899 23.2444 4.39422 21.461 4.39223H9.07259L19.1458 37.7895C19.5623 39.15 20.4141 40.3434 21.5756 41.1938C22.737 42.0443 24.1467 42.5067 25.5968 42.513H28.1875V10.9806ZM32.6719 21.8068H79.7578V15.8447H32.6719V21.8068ZM84.2422 15.8447V21.8055H131.328V15.8447H84.2422ZM142.539 4.38721C140.755 4.3892 139.044 5.08466 137.783 6.32087C136.522 7.55708 135.813 9.23298 135.812 10.9806V42.5118H138.403C139.853 42.5055 141.263 42.043 142.424 41.1926C143.586 40.3422 144.438 39.1487 144.854 37.7882L154.927 4.38721H142.539ZM158.894 54.7485H156.312C155.718 54.7485 155.147 54.5172 154.727 54.1053C154.306 53.6935 154.07 53.1349 154.07 52.5524C154.07 51.97 154.306 51.4114 154.727 50.9995C155.147 50.5877 155.718 50.3563 156.312 50.3563H159.516V43.4542H156.312C155.718 43.4542 155.147 43.2228 154.727 42.811C154.306 42.3991 154.07 41.8406 154.07 41.2581C154.07 40.6757 154.306 40.1171 154.727 39.7052C155.147 39.2934 155.718 39.062 156.312 39.062H159.516V32.1599H156.312C155.718 32.1599 155.147 31.9285 154.727 31.5167C154.306 31.1048 154.07 30.5462 154.07 29.9638C154.07 29.3814 154.306 28.8228 154.727 28.4109C155.147 27.9991 155.718 27.7677 156.312 27.7677H159.516V20.8656C159.519 19.6316 159.264 18.4099 158.767 17.2761C158.27 16.1422 157.54 15.1203 156.624 14.2735L149.906 36.5434V60.6078H150.227C152.107 60.6043 153.942 60.0425 155.489 58.9964C157.037 57.9503 158.224 56.4692 158.894 54.7485ZM145.102 60.6078H145.422V44.4557C143.436 46.0324 140.959 46.8968 138.403 46.9053H135.812V50.3576H139.016C139.61 50.3576 140.181 50.5889 140.601 51.0008C141.022 51.4126 141.258 51.9712 141.258 52.5537C141.258 53.1361 141.022 53.6947 140.601 54.1066C140.181 54.5184 139.61 54.7498 139.016 54.7498H136.434C137.104 56.4702 138.292 57.9511 139.839 58.9969C141.387 60.0428 143.221 60.6044 145.102 60.6078ZM95.6274 42.5118H131.328V26.1978H84.2422V33.3195L95.6274 42.5118ZM79.7578 33.3195V26.1978H32.6719V42.5118H68.3726L79.7578 33.3195ZM27.5661 54.7485H24.9844C24.3898 54.7485 23.8194 54.5172 23.399 54.1053C22.9785 53.6935 22.7422 53.1349 22.7422 52.5524C22.7422 51.97 22.9785 51.4114 23.399 50.9995C23.8194 50.5877 24.3898 50.3563 24.9844 50.3563H28.1875V46.904H25.5968C23.0405 46.8955 20.564 46.0312 18.5782 44.4544V60.6078H18.8985C20.7787 60.6043 22.6138 60.0425 24.1612 58.9964C25.7087 57.9503 26.8959 56.4692 27.5661 54.7485ZM13.7735 60.6078H14.0938V36.5434L7.37622 14.2735C6.4599 15.1202 5.73053 16.1419 5.23315 17.2755C4.73578 18.4091 4.48096 19.6305 4.48444 20.8644V27.7664H7.68756C8.28223 27.7664 8.85252 27.9978 9.27303 28.4097C9.69351 28.8215 9.92975 29.3801 9.92975 29.9625C9.92975 30.545 9.69351 31.1036 9.27303 31.5154C8.85252 31.9273 8.28223 32.1587 7.68756 32.1587H4.48444V39.0607H7.68756C8.28223 39.0607 8.85252 39.2921 9.27303 39.704C9.69351 40.1158 9.92975 40.6744 9.92975 41.2569C9.92975 41.8393 9.69351 42.3979 9.27303 42.8097C8.85252 43.2216 8.28223 43.453 7.68756 43.453H4.48444V50.355H7.68756C8.28223 50.355 8.85252 50.5864 9.27303 50.9983C9.69351 51.4101 9.92975 51.9687 9.92975 52.5512C9.92975 53.1336 9.69351 53.6922 9.27303 54.104C8.85252 54.5159 8.28223 54.7473 7.68756 54.7473H5.10583C5.77585 56.4682 6.96297 57.9496 8.51047 58.9959C10.058 60.0422 11.8931 60.6043 13.7735 60.6078Z" fill="#F3F3F3"/>
</svg>
