<svg width="108" height="141" viewBox="0 0 108 141" fill="none" xmlns="http://www.w3.org/2000/svg">
<path d="M29 36.4286C29 35.7466 28.714 35.0925 28.205 34.6103C27.696 34.1281 27.0056 33.8571 26.2857 33.8571C23.4062 33.8571 20.6447 32.7735 18.6086 30.8445C16.5724 28.9156 15.4286 26.2994 15.4286 23.5714C15.4286 22.8894 15.1426 22.2354 14.6336 21.7532C14.1245 21.2709 13.4342 21 12.7143 21C11.9944 21 11.304 21.2709 10.795 21.7532C10.286 22.2354 10 22.8894 10 23.5714C10.0043 27.6621 11.7215 31.584 14.7747 34.4766C17.828 37.3691 21.9678 38.9959 26.2857 39C27.0056 39 27.696 38.7291 28.205 38.2468C28.714 37.7646 29 37.1106 29 36.4286Z" fill="#F3F3F3"/>
<path d="M99.725 118.739C99.2634 119.215 99.0036 119.851 99 120.514C99.0033 121.093 99.207 121.652 99.5763 122.097C99.9456 122.542 100.458 122.845 101.025 122.955C101.593 123.064 102.181 122.974 102.69 122.699C103.198 122.424 103.596 121.981 103.814 121.445C104.033 120.91 104.059 120.316 103.889 119.763C103.718 119.211 103.362 118.734 102.88 118.415C102.397 118.096 101.819 117.954 101.244 118.013C100.669 118.072 100.132 118.329 99.725 118.739Z" fill="#F3F3F3"/>
<path d="M166.71 110.797C164.577 106.621 161.357 103.099 157.389 100.601C153.422 98.1039 148.855 96.724 144.169 96.6072C139.484 96.4903 134.853 97.6409 130.767 99.9375C126.68 102.234 123.288 105.592 120.95 109.656H61.0959L35.5945 84.1401L54.7212 5.84072C54.8118 5.47713 54.8231 5.09828 54.7544 4.72992C54.6857 4.36156 54.5385 4.01232 54.3229 3.70592C54.1073 3.39953 53.8282 3.14317 53.5048 2.95426C53.1814 2.76535 52.8211 2.64831 52.4484 2.6111L28.0403 0.167348C27.398 0.0516721 26.7464 -0.00426496 26.0937 0.000253299C25.5678 0.000426439 25.0433 0.0537845 24.5281 0.159515C22.2765 0.504674 20.2006 1.58022 18.6194 3.22079C17.0382 4.86136 16.0393 6.97615 15.7763 9.24005L11.202 13.8169C10.9528 14.0577 10.754 14.3458 10.6173 14.6643C10.4805 14.9829 10.4085 15.3255 10.4055 15.6721C10.4025 16.0188 10.4685 16.3626 10.5997 16.6835C10.7309 17.0043 10.9247 17.2958 11.1697 17.541C11.4147 17.7861 11.706 17.98 12.0267 18.1112C12.3474 18.2425 12.691 18.3086 13.0375 18.3056C13.3839 18.3026 13.7264 18.2305 14.0447 18.0937C14.3631 17.9569 14.651 17.758 14.8917 17.5086L16.9792 15.4199C17.8518 17.0493 19.1446 18.4151 20.7233 19.3753C22.302 20.3356 24.1089 20.8553 25.9562 20.8803C27.8035 20.9054 29.6239 20.4349 31.228 19.5178C32.8321 18.6007 34.1614 17.2705 35.0778 15.6653H36.5312L16.7 96.7113C16.4391 96.7113 16.1781 96.693 15.9172 96.7113C12.6999 96.9926 9.56269 97.8681 6.66434 99.2934C6.29153 99.4763 5.96771 99.7455 5.71978 100.079C5.47185 100.412 5.30697 100.8 5.23883 101.209C5.1707 101.619 5.20128 102.039 5.32804 102.435C5.4548 102.83 5.67407 103.19 5.96764 103.484L9.28676 106.784C6.48846 108.364 4.15639 110.656 2.52594 113.426C0.89549 116.197 0.0243684 119.349 0.000503872 122.564C-0.0233607 125.779 0.800877 128.943 2.39002 131.738C3.97916 134.532 6.27697 136.858 9.05149 138.48C11.826 140.101 14.9791 140.962 18.1924 140.975C21.4057 140.988 24.5656 140.153 27.353 138.553C30.1404 136.953 32.4568 134.646 34.0683 131.865C35.6798 129.083 36.5293 125.925 36.5312 122.71C36.5331 119.97 35.9151 117.264 34.7234 114.797C33.5317 112.33 31.7974 110.164 29.6503 108.463L31.5813 100.562L40.6697 109.656H39.1406C38.4486 109.656 37.7849 109.931 37.2955 110.421C36.8062 110.91 36.5312 111.574 36.5312 112.267C36.5312 112.959 36.8062 113.623 37.2955 114.113C37.7849 114.603 38.4486 114.878 39.1406 114.878H40.6697L47.7307 121.945L55.5588 129.778C55.8013 130.02 56.0894 130.213 56.4064 130.344C56.7234 130.476 57.0631 130.543 57.4062 130.543H127.077C128.746 134.092 131.516 137.006 134.974 138.854C138.432 140.701 142.393 141.382 146.269 140.795C150.145 140.208 153.728 138.385 156.486 135.597C159.243 132.809 161.027 129.205 161.572 125.321H164.391C165.083 125.321 165.746 125.046 166.236 124.556C166.725 124.067 167 123.403 167 122.71V112.006C167.002 111.585 166.903 111.171 166.71 110.797ZM26.0937 15.6653C24.7673 15.6686 23.4896 15.165 22.5216 14.2575C21.5537 13.35 20.9685 12.107 20.8855 10.7824C20.8026 9.45771 21.2282 8.15135 22.0754 7.13008C22.9226 6.1088 24.1275 5.44964 25.444 5.28722H25.5771C25.7272 5.25742 25.8787 5.23564 26.0311 5.22195L27.1975 5.33944C27.8265 5.47589 28.4247 5.72821 28.9614 6.08353C29.0345 6.13314 29.1023 6.19319 29.1754 6.2454C29.3576 6.37589 29.5319 6.51712 29.6973 6.66836C29.7834 6.75191 29.8617 6.84068 29.9426 6.92945C30.0713 7.06994 30.1923 7.21723 30.3053 7.37068C30.3855 7.47689 30.4595 7.58759 30.5271 7.70226C30.6222 7.85783 30.7093 8.01817 30.788 8.18265C30.8454 8.30275 30.9054 8.42285 30.9524 8.54817C31.023 8.73705 31.0831 8.92967 31.1324 9.12517C31.1611 9.23744 31.2003 9.34709 31.2212 9.46197C31.2823 9.7856 31.3129 10.1143 31.3125 10.4436C31.3077 10.731 31.2789 11.0175 31.2264 11.3C31.1668 11.6008 31.0849 11.8966 30.9811 12.1851C30.9811 12.219 30.9811 12.2582 30.9576 12.2947C30.5831 13.2831 29.9176 14.1345 29.0492 14.7363C28.1807 15.3382 27.1502 15.6621 26.0937 15.6653ZM41.9118 11.4436C41.6679 11.1324 41.3566 10.8807 41.0013 10.7075C40.646 10.5342 40.256 10.444 39.8608 10.4436H36.5312C36.5295 9.71706 36.4525 8.9926 36.3016 8.28187C36.2651 8.11738 36.1972 7.97118 36.1529 7.8093C36.02 7.2811 35.8455 6.76427 35.631 6.26368C35.631 6.24018 35.618 6.21146 35.6075 6.18796L48.9153 7.5195L30.1748 84.3307L30.0522 84.8528L24.1706 108.907L20.9507 122.089C20.9004 122.292 20.875 122.501 20.875 122.71C20.875 123.403 20.6001 124.067 20.1107 124.556C19.6214 125.046 18.9577 125.321 18.2656 125.321C17.5736 125.321 16.9099 125.046 16.4205 124.556C15.9312 124.067 15.6562 123.403 15.6562 122.71C15.6631 122.309 15.7631 121.915 15.9485 121.559C16.0349 121.385 16.1014 121.202 16.1468 121.013L19.3955 107.737L21.2507 100.147L42.3867 13.6811C42.4828 13.2962 42.4901 12.8943 42.4078 12.5062C42.3255 12.118 42.1558 11.7537 41.9118 11.441V11.4436ZM12.5067 102.627C13.462 102.357 14.4351 102.155 15.4188 102.022L14.743 104.784L14.6777 104.8L12.5067 102.627ZM28.2282 114.288C30.0028 116.394 31.0657 119.009 31.2645 121.757C31.4633 124.506 30.788 127.246 29.3352 129.587C27.8824 131.928 25.7266 133.748 23.1765 134.789C20.6264 135.829 17.8127 136.035 15.1385 135.377C12.4642 134.72 10.0664 133.232 8.28847 131.128C6.51051 129.024 5.44356 126.411 5.24037 123.663C5.03719 120.915 5.7082 118.174 7.15732 115.831C8.60644 113.488 10.7594 111.663 13.3078 110.619L11.142 119.509C10.6805 120.513 10.4402 121.605 10.4375 122.71C10.3918 124.787 11.1728 126.798 12.6085 128.299C14.0443 129.8 16.0173 130.669 18.0934 130.715C20.1695 130.761 22.1788 129.979 23.6792 128.543C25.1795 127.106 26.0481 125.132 26.0937 123.055L28.2282 114.288ZM33.8932 91.1006L34.1541 90.0563L53.7244 109.638H48.049L33.0321 94.6122L33.8932 91.1006ZM143.516 135.764C141.493 135.762 139.499 135.288 137.691 134.382C135.883 133.476 134.31 132.162 133.096 130.543H143.516C145.592 130.543 147.583 129.717 149.051 128.249C150.519 126.78 151.344 124.787 151.344 122.71C151.344 120.633 150.519 118.641 149.051 117.172C147.583 115.703 145.592 114.878 143.516 114.878H133.096C134.431 113.097 136.199 111.687 138.232 110.783C140.264 109.878 142.494 109.508 144.71 109.709C146.926 109.91 149.053 110.674 150.891 111.929C152.728 113.184 154.214 114.889 155.207 116.88C156.201 118.872 156.669 121.085 156.567 123.308C156.465 125.532 155.797 127.693 154.625 129.585C153.453 131.477 151.818 133.038 149.873 134.12C147.929 135.201 145.74 135.768 143.516 135.764ZM161.781 120.099H161.596C161.567 119.898 161.515 119.702 161.481 119.504C161.437 119.256 161.395 119.011 161.34 118.768C161.267 118.434 161.178 118.105 161.079 117.778C161.017 117.551 160.957 117.321 160.886 117.099C160.774 116.752 160.644 116.418 160.516 116.081C160.437 115.888 160.37 115.69 160.289 115.496C160.119 115.107 159.931 114.731 159.738 114.358C159.67 114.23 159.615 114.097 159.545 113.969C159.274 113.469 158.98 112.986 158.666 112.52C158.608 112.436 158.543 112.358 158.483 112.275C158.222 111.896 157.961 111.525 157.658 111.168C157.536 111.019 157.397 110.88 157.272 110.734C157.032 110.455 156.789 110.178 156.531 109.917C156.38 109.76 156.215 109.614 156.059 109.463C155.798 109.228 155.558 108.993 155.297 108.771C155.119 108.622 154.939 108.481 154.757 108.34C154.496 108.136 154.235 107.935 153.974 107.745C153.781 107.606 153.577 107.484 153.379 107.348C153.105 107.17 152.826 107.001 152.544 106.826C152.333 106.706 152.121 106.591 151.907 106.479C151.618 106.327 151.32 106.186 151.023 106.05C150.801 105.951 150.582 105.852 150.357 105.761C150.047 105.635 149.731 105.523 149.413 105.413C149.188 105.338 148.967 105.257 148.737 105.189C148.4 105.09 148.059 105.009 147.714 104.928C147.492 104.875 147.276 104.818 147.051 104.774C146.668 104.698 146.268 104.646 145.888 104.596C145.694 104.57 145.507 104.533 145.311 104.515C144.716 104.466 144.118 104.434 143.516 104.434C139.742 104.441 136.063 105.616 132.983 107.797C129.902 109.978 127.572 113.058 126.309 116.616C126.17 117.01 126.127 117.432 126.184 117.846C126.241 118.26 126.397 118.654 126.638 118.996C126.879 119.337 127.199 119.615 127.57 119.807C127.941 119.999 128.352 120.099 128.77 120.099H143.516C144.208 120.099 144.871 120.374 145.361 120.864C145.85 121.354 146.125 122.018 146.125 122.71C146.125 123.403 145.85 124.067 145.361 124.556C144.871 125.046 144.208 125.321 143.516 125.321H58.4865L55.8771 122.71H91.3281C92.0201 122.71 92.6839 122.435 93.1732 121.945C93.6626 121.456 93.9375 120.792 93.9375 120.099C93.9375 119.407 93.6626 118.743 93.1732 118.253C92.6839 117.764 92.0201 117.488 91.3281 117.488H50.6584L48.049 114.878H122.508C122.995 114.88 123.473 114.746 123.888 114.491C124.303 114.236 124.638 113.87 124.856 113.434C126.544 110.019 129.136 107.133 132.349 105.089C135.562 103.045 139.273 101.921 143.08 101.84C146.886 101.759 150.642 102.723 153.939 104.628C157.237 106.533 159.949 109.306 161.781 112.645V120.099Z" fill="#F3F3F3"/>
</svg>
