<svg width="63" height="40" viewBox="0 0 63 40" fill="none" xmlns="http://www.w3.org/2000/svg">
<path d="M19.2803 33.0744V33.0743C19.2644 31.5554 18.0169 30.3243 16.4987 30.3243C14.9805 30.3243 13.733 31.5554 13.7171 33.0743L13.7171 33.0744L13.6979 34.9752H5.23676C3.96126 34.9752 2.74139 34.4996 1.80386 33.6379L1.80367 33.6377C0.804282 32.721 0.25 31.4922 0.25 30.1765V5.07763C0.25 3.76845 0.797606 2.53913 1.79052 1.61517L1.79089 1.61483C2.7357 0.732079 3.96226 0.25 5.23676 0.25H35.5579C36.8579 0.25 38.066 0.758266 38.966 1.68575C39.8456 2.59285 40.3277 3.79581 40.3277 5.08486V34.9752H19.2995L19.2803 33.0744ZM22.7648 30.9664L22.8227 31.1353H23.0012H36.2378H36.4878V30.8853V5.08486C36.4878 4.85118 36.415 4.60812 36.259 4.41872C36.0984 4.22367 35.858 4.09709 35.5579 4.09709H5.23676C4.94388 4.09709 4.66459 4.21422 4.4581 4.38499C4.25513 4.55285 4.08986 4.80168 4.08986 5.08486V30.1837C4.08986 30.4667 4.25876 30.7092 4.46255 30.87C4.67012 31.0338 4.94804 31.1425 5.23676 31.1425H9.9889H10.1674L10.2254 30.9737C10.553 30.0188 11.0966 29.1406 11.8355 28.4085C13.0837 27.1743 14.7349 26.4917 16.4915 26.4917C18.248 26.4917 19.8992 27.1743 21.1474 28.4085L21.1489 28.41C21.8938 29.134 22.4371 30.0114 22.7648 30.9664Z" fill="#FE5E24" stroke="#F3F3F3" stroke-width="0.5"/>
<path d="M52.5318 28.4013L52.5318 28.4013C53.7721 29.6277 54.4689 31.2642 54.4973 33.0139V33.014V33.0142V33.0144V33.0146V33.0148V33.015V33.0152V33.0155V33.0157V33.0159V33.0161V33.0163V33.0165V33.0167V33.0169V33.0171V33.0173V33.0175V33.0177V33.018V33.0182V33.0184V33.0186V33.0188V33.019V33.0192V33.0194V33.0196V33.0198V33.02V33.0202V33.0204V33.0206V33.0208V33.021V33.0213V33.0215V33.0217V33.0219V33.0221V33.0223V33.0225V33.0227V33.0229V33.0231V33.0233V33.0235V33.0237V33.0239V33.0241V33.0243V33.0245V33.0247V33.0249V33.0251V33.0253V33.0255V33.0257V33.0259V33.0261V33.0263V33.0265V33.0267V33.0269V33.0271V33.0273V33.0276V33.0278V33.028V33.0282V33.0284V33.0286V33.0288V33.029V33.0292V33.0294V33.0296V33.0298V33.03V33.0302V33.0304V33.0306V33.0308V33.031V33.0312V33.0314V33.0316V33.0318V33.032V33.0321V33.0323V33.0325V33.0327V33.0329V33.0331V33.0333V33.0335V33.0337V33.0339V33.0341V33.0343V33.0345V33.0347V33.0349V33.0351V33.0353V33.0355V33.0357V33.0359V33.0361V33.0363V33.0365V33.0367V33.0369V33.0371V33.0373V33.0375V33.0377V33.0379V33.0381V33.0383V33.0385V33.0387V33.0389V33.039V33.0392V33.0394V33.0396V33.0398V33.04V33.0402V33.0404V33.0406V33.0408V33.041V33.0412V33.0414V33.0416V33.0418V33.042V33.0422V33.0424V33.0426V33.0427V33.0429V33.0431V33.0433V33.0435V33.0437V33.0439V33.0441V33.0443V33.0445V33.0447V33.0449V33.0451V33.0453V33.0455V33.0457V33.0458V33.046V33.0462V33.0464V33.0466V33.0468V33.047V33.0472V33.0474V33.0476V33.0478V33.048V33.0482V33.0484V33.0485V33.0487V33.0489V33.0491V33.0493V33.0495V33.0497V33.0499V33.0501V33.0503V33.0505V33.0507V33.0509V33.051V33.0512V33.0514V33.0516V33.0518V33.052V33.0522V33.0524V33.0526V33.0528V33.053V33.0532V33.0533V33.0535V33.0537V33.0539V33.0541V33.0543V33.0545V33.0547V33.0549V33.0551V33.0553V33.0554V33.0556V33.0558V33.056V33.0562V33.0564V33.0566V33.0568V33.057V33.0572V33.0574V33.0575V33.0577V33.0579V33.0581V33.0583V33.0585V33.0587V33.0589V33.0591V33.0593V33.0595V33.0596V33.0598V33.06V33.0602V33.0604V33.0606V33.0608V33.061V33.0612V33.0614V33.0616V33.0617V33.0619V33.0621V33.0623V33.0625V33.0627V33.0629V33.0631V33.0633V33.0635V33.0637V33.0638V33.064V33.0642V33.0644V33.0646V33.0648V33.065V33.0652V33.0654V33.0656V33.0658V33.0659V33.0661V33.0663V33.0665V33.0667V33.0669V33.0671V33.0673V33.0675V33.0677V33.0679V33.068V33.0682V33.0684V33.0686V33.0688V33.069V33.0692V33.0694V33.0696V33.0698V33.07V33.0701V33.0703V33.0705V33.0707V33.0709V33.0711V33.0713V33.0715V33.0717V33.0719V33.0721V33.0723V33.0724V33.0726V33.0728V33.073V33.0732V33.0734V33.0736V33.0738V33.074V33.0742V33.0744V33.0746V33.0747V33.0749V33.0751V33.0753V33.0755V33.0757V33.0759V33.0761V33.0763V33.0765V33.0767V33.0769V33.0771V33.0772V33.0774V33.0776V33.0778V33.078V33.0782V33.0784V33.0786V33.0788V33.079V33.0792V33.0794V33.0796V33.0798V33.0799V33.0801V33.0803V33.0805V33.0807V33.0809V33.0811V33.0813V33.0815V33.0817V33.0819V33.0821V33.0823V33.0825V33.0827V33.0829V33.083V33.0832V33.0834V33.0836V33.0838V33.084V33.0842V33.0844V33.0846V33.0848V33.085V33.0852V33.0854V33.0856V33.0858V33.086V33.0862V33.0864V33.0866V33.0868V33.087V33.0871V33.0873V33.0875V33.0877V33.0879V33.0881V33.0883V33.0885V33.0887V33.0889V33.0891V33.0893V33.0895V33.0897V33.0899V33.0901V33.0903V33.0905V33.0907V33.0909V33.0911V33.0913V33.0915V33.0917V33.0919V33.0921V33.0923V33.0925V33.0927V33.0929V33.0931V33.0933V33.0935V33.0937V33.0939V33.0941V33.0943V33.0945V33.0947V33.0949V33.0951V33.0953V33.0955V33.0957V33.0959V33.0961V33.0963V33.0965V33.0967V33.0969V33.0971V33.0973V33.0975V33.0977V33.0979V33.0981V33.0983V33.0985V33.0987V33.0989V33.0991V33.0993V33.0995V33.0997V33.0999V33.1001V33.1003V33.1005V33.1007V33.1009V33.1011V33.1013V33.1015V33.1017V33.1019V33.1021V33.1023V33.1025V33.1027V33.1029V33.1031V33.1034V33.1036V33.1038V33.104V33.1042V33.1044V33.1046V33.1048V33.105V33.1052V33.1054V33.1056V33.1058V33.106V33.1062V33.1064V33.1066V33.1069V33.1071V33.1073V33.1075V33.1077V33.1079V33.1081V33.1083V33.1085V33.1087V33.1089V33.1091V33.1094V33.1096V33.1098V33.11V33.1102V33.1104V33.1106V33.1108V33.111V33.1112V33.1115V33.1117V33.1119V33.1121V33.1123V33.1125V33.1127V33.1129V33.1131C54.4973 36.7652 51.5279 39.7346 47.8758 39.7346C44.2238 39.7346 41.2544 36.7652 41.2544 33.1131V33.1129V33.1127V33.1125V33.1123V33.1121V33.1119V33.1117V33.1115V33.1112V33.111V33.1108V33.1106V33.1104V33.1102V33.11V33.1098V33.1096V33.1094V33.1091V33.1089V33.1087V33.1085V33.1083V33.1081V33.1079V33.1077V33.1075V33.1073V33.1071V33.1069V33.1066V33.1064V33.1062V33.106V33.1058V33.1056V33.1054V33.1052V33.105V33.1048V33.1046V33.1044V33.1042V33.104V33.1038V33.1036V33.1034V33.1031V33.1029V33.1027V33.1025V33.1023V33.1021V33.1019V33.1017V33.1015V33.1013V33.1011V33.1009V33.1007V33.1005V33.1003V33.1001V33.0999V33.0997V33.0995V33.0993V33.0991V33.0989V33.0987V33.0985V33.0983V33.0981V33.0979V33.0977V33.0975V33.0973V33.0971V33.0969V33.0967V33.0965V33.0963V33.0961V33.0959V33.0957V33.0955V33.0953V33.0951V33.0949V33.0947V33.0945V33.0943V33.0941V33.0939V33.0937V33.0935V33.0933V33.0931V33.0929V33.0927V33.0925V33.0923V33.0921V33.0919V33.0917V33.0915V33.0913V33.0911V33.0909V33.0907V33.0905V33.0903V33.0901V33.0899V33.0897V33.0895V33.0893V33.0891V33.0889V33.0887V33.0885V33.0883V33.0881V33.0879V33.0877V33.0875V33.0873V33.0871V33.087V33.0868V33.0866V33.0864V33.0862V33.086V33.0858V33.0856V33.0854V33.0852V33.085V33.0848V33.0846V33.0844V33.0842V33.084V33.0838V33.0836V33.0834V33.0832V33.083V33.0829V33.0827V33.0825V33.0823V33.0821V33.0819V33.0817V33.0815V33.0813V33.0811V33.0809V33.0807V33.0805V33.0803V33.0801V33.0799V33.0798V33.0796V33.0794V33.0792V33.079V33.0788V33.0786V33.0784V33.0782V33.078V33.0778V33.0776V33.0774V33.0772V33.0771V33.0769V33.0767V33.0765V33.0763V33.0761V33.0759V33.0757V33.0755V33.0753V33.0751V33.0749V33.0747V33.0746V33.0744V33.0742V33.074V33.0738V33.0736V33.0734V33.0732V33.073V33.0728V33.0726V33.0724V33.0723V33.0721V33.0719V33.0717V33.0715V33.0713V33.0711V33.0709V33.0707V33.0705V33.0703V33.0701V33.07V33.0698V33.0696V33.0694V33.0692V33.069V33.0688V33.0686V33.0684V33.0682V33.068V33.0679V33.0677V33.0675V33.0673V33.0671V33.0669V33.0667V33.0665V33.0663V33.0661V33.0659V33.0658V33.0656V33.0654V33.0652V33.065V33.0648V33.0646V33.0644V33.0642V33.064V33.0638V33.0637V33.0635V33.0633V33.0631V33.0629V33.0627V33.0625V33.0623V33.0621V33.0619V33.0617V33.0616V33.0614V33.0612V33.061V33.0608V33.0606V33.0604V33.0602V33.06V33.0598V33.0596V33.0595V33.0593V33.0591V33.0589V33.0587V33.0585V33.0583V33.0581V33.0579V33.0577V33.0575V33.0574V33.0572V33.057V33.0568V33.0566V33.0564V33.0562V33.056V33.0558V33.0556V33.0554V33.0553V33.0551V33.0549V33.0547V33.0545V33.0543V33.0541V33.0539V33.0537V33.0535V33.0533V33.0532V33.053V33.0528V33.0526V33.0524V33.0522V33.052V33.0518V33.0516V33.0514V33.0512V33.051V33.0509V33.0507V33.0505V33.0503V33.0501V33.0499V33.0497V33.0495V33.0493V33.0491V33.0489V33.0487V33.0485V33.0484V33.0482V33.048V33.0478V33.0476V33.0474V33.0472V33.047V33.0468V33.0466V33.0464V33.0462V33.046V33.0458V33.0457V33.0455V33.0453V33.0451V33.0449V33.0447V33.0445V33.0443V33.0441V33.0439V33.0437V33.0435V33.0433V33.0431V33.0429V33.0427V33.0426V33.0424V33.0422V33.042V33.0418V33.0416V33.0414V33.0412V33.041V33.0408V33.0406V33.0404V33.0402V33.04V33.0398V33.0396V33.0394V33.0392V33.039V33.0389V33.0387V33.0385V33.0383V33.0381V33.0379V33.0377V33.0375V33.0373V33.0371V33.0369V33.0367V33.0365V33.0363V33.0361V33.0359V33.0357V33.0355V33.0353V33.0351V33.0349V33.0347V33.0345V33.0343V33.0341V33.0339V33.0337V33.0335V33.0333V33.0331V33.0329V33.0327V33.0325V33.0323V33.0321V33.032V33.0318V33.0316V33.0314V33.0312V33.031V33.0308V33.0306V33.0304V33.0302V33.03V33.0298V33.0296V33.0294V33.0292V33.029V33.0288V33.0286V33.0284V33.0282V33.028V33.0278V33.0276V33.0273V33.0271V33.0269V33.0267V33.0265V33.0263V33.0261V33.0259V33.0257V33.0255V33.0253V33.0251V33.0249V33.0247V33.0245V33.0243V33.0241V33.0239V33.0237V33.0235V33.0233V33.0231V33.0229V33.0227V33.0225V33.0223V33.0221V33.0219V33.0217V33.0215V33.0213V33.021V33.0208V33.0206V33.0204V33.0202V33.02V33.0198V33.0196V33.0194V33.0192V33.019V33.0188V33.0186V33.0184V33.0182V33.018V33.0177V33.0175V33.0173V33.0171V33.0169V33.0167V33.0165V33.0163V33.0161V33.0159V33.0157V33.0155V33.0152V33.015V33.0148V33.0146V33.0144V33.0142V33.014V33.0139C41.2828 31.2711 41.9726 29.6347 43.2199 28.4013C44.4681 27.1671 46.1193 26.4845 47.8758 26.4845C49.6324 26.4845 51.2836 27.1671 52.5318 28.4013ZM50.6574 33.0842L50.6574 33.0816C50.6415 31.5627 49.3941 30.3316 47.8758 30.3316C46.3576 30.3316 45.1102 31.5627 45.0943 33.0816H45.0943V33.0842V33.1204C45.0943 34.6554 46.3427 35.8947 47.8758 35.8947C49.4094 35.8947 50.6574 34.6477 50.6574 33.1204L50.6574 33.0842Z" fill="#FE5E24" stroke="#F3F3F3" stroke-width="0.5"/>
<path d="M50.657 33.0744L50.657 33.0743C50.6411 31.5554 49.3937 30.3243 47.8755 30.3243C46.3572 30.3243 45.1098 31.5554 45.0939 33.0743L45.0939 33.0744L45.0747 34.9752H36.4874V5.60248H52.775L62.7499 18.0836V34.9752H50.6762L50.657 33.0744ZM54.1488 30.9664L54.2067 31.1353H54.3853H58.66H58.91V30.8853V19.5221V19.4346L58.8554 19.3661L51.0075 9.53635L50.9324 9.44233H50.8121H40.5773H40.3273V9.69233V30.8853V31.1353H40.5773H41.3729H41.5515L41.6094 30.9664C41.937 30.0115 42.4806 29.1333 43.2195 28.4013C44.4677 27.167 46.1189 26.4844 47.8755 26.4844C49.6319 26.4844 51.2831 27.167 52.5312 28.4011C53.271 29.1339 53.8215 30.0124 54.1488 30.9664Z" fill="#FE5E24" stroke="#F3F3F3" stroke-width="0.5"/>
<path d="M11.8428 28.4085L11.8428 28.4085C13.091 27.1743 14.7422 26.4917 16.4988 26.4917C18.2553 26.4917 19.9065 27.1743 21.1547 28.4085L21.1547 28.4085C22.395 29.6349 23.0918 31.2714 23.1202 33.0211V33.0212V33.0214V33.0216V33.0218V33.022V33.0222V33.0224V33.0227V33.0229V33.0231V33.0233V33.0235V33.0237V33.0239V33.0241V33.0243V33.0245V33.0247V33.0249V33.0252V33.0254V33.0256V33.0258V33.026V33.0262V33.0264V33.0266V33.0268V33.027V33.0272V33.0274V33.0276V33.0278V33.028V33.0282V33.0285V33.0287V33.0289V33.0291V33.0293V33.0295V33.0297V33.0299V33.0301V33.0303V33.0305V33.0307V33.0309V33.0311V33.0313V33.0315V33.0317V33.0319V33.0321V33.0323V33.0325V33.0327V33.0329V33.0331V33.0333V33.0335V33.0337V33.0339V33.0341V33.0343V33.0345V33.0347V33.0349V33.0352V33.0354V33.0356V33.0358V33.036V33.0362V33.0364V33.0366V33.0368V33.037V33.0372V33.0374V33.0376V33.0378V33.038V33.0382V33.0384V33.0386V33.0388V33.0389V33.0391V33.0393V33.0395V33.0397V33.0399V33.0401V33.0403V33.0405V33.0407V33.0409V33.0411V33.0413V33.0415V33.0417V33.0419V33.0421V33.0423V33.0425V33.0427V33.0429V33.0431V33.0433V33.0435V33.0437V33.0439V33.0441V33.0443V33.0445V33.0447V33.0449V33.0451V33.0453V33.0455V33.0457V33.0459V33.046V33.0462V33.0464V33.0466V33.0468V33.047V33.0472V33.0474V33.0476V33.0478V33.048V33.0482V33.0484V33.0486V33.0488V33.049V33.0492V33.0494V33.0496V33.0498V33.0499V33.0501V33.0503V33.0505V33.0507V33.0509V33.0511V33.0513V33.0515V33.0517V33.0519V33.0521V33.0523V33.0525V33.0527V33.0529V33.053V33.0532V33.0534V33.0536V33.0538V33.054V33.0542V33.0544V33.0546V33.0548V33.055V33.0552V33.0554V33.0556V33.0557V33.0559V33.0561V33.0563V33.0565V33.0567V33.0569V33.0571V33.0573V33.0575V33.0577V33.0579V33.058V33.0582V33.0584V33.0586V33.0588V33.059V33.0592V33.0594V33.0596V33.0598V33.06V33.0602V33.0603V33.0605V33.0607V33.0609V33.0611V33.0613V33.0615V33.0617V33.0619V33.0621V33.0623V33.0625V33.0626V33.0628V33.063V33.0632V33.0634V33.0636V33.0638V33.064V33.0642V33.0644V33.0646V33.0647V33.0649V33.0651V33.0653V33.0655V33.0657V33.0659V33.0661V33.0663V33.0665V33.0667V33.0668V33.067V33.0672V33.0674V33.0676V33.0678V33.068V33.0682V33.0684V33.0686V33.0688V33.0689V33.0691V33.0693V33.0695V33.0697V33.0699V33.0701V33.0703V33.0705V33.0707V33.0709V33.071V33.0712V33.0714V33.0716V33.0718V33.072V33.0722V33.0724V33.0726V33.0728V33.0729V33.0731V33.0733V33.0735V33.0737V33.0739V33.0741V33.0743V33.0745V33.0747V33.0749V33.075V33.0752V33.0754V33.0756V33.0758V33.076V33.0762V33.0764V33.0766V33.0768V33.077V33.0772V33.0773V33.0775V33.0777V33.0779V33.0781V33.0783V33.0785V33.0787V33.0789V33.0791V33.0793V33.0794V33.0796V33.0798V33.08V33.0802V33.0804V33.0806V33.0808V33.081V33.0812V33.0814V33.0816V33.0817V33.0819V33.0821V33.0823V33.0825V33.0827V33.0829V33.0831V33.0833V33.0835V33.0837V33.0839V33.0841V33.0842V33.0844V33.0846V33.0848V33.085V33.0852V33.0854V33.0856V33.0858V33.086V33.0862V33.0864V33.0866V33.0868V33.087V33.0871V33.0873V33.0875V33.0877V33.0879V33.0881V33.0883V33.0885V33.0887V33.0889V33.0891V33.0893V33.0895V33.0897V33.0899V33.0901V33.0902V33.0904V33.0906V33.0908V33.091V33.0912V33.0914V33.0916V33.0918V33.092V33.0922V33.0924V33.0926V33.0928V33.093V33.0932V33.0934V33.0936V33.0938V33.094V33.0941V33.0943V33.0945V33.0947V33.0949V33.0951V33.0953V33.0955V33.0957V33.0959V33.0961V33.0963V33.0965V33.0967V33.0969V33.0971V33.0973V33.0975V33.0977V33.0979V33.0981V33.0983V33.0985V33.0987V33.0989V33.0991V33.0993V33.0995V33.0997V33.0999V33.1001V33.1003V33.1005V33.1007V33.1009V33.1011V33.1013V33.1015V33.1017V33.1019V33.1021V33.1023V33.1025V33.1027V33.1029V33.1031V33.1033V33.1035V33.1037V33.1039V33.1041V33.1043V33.1045V33.1047V33.1049V33.1051V33.1053V33.1055V33.1057V33.1059V33.1061V33.1063V33.1065V33.1067V33.1069V33.1071V33.1073V33.1075V33.1077V33.1079V33.1081V33.1083V33.1085V33.1087V33.1089V33.1091V33.1093V33.1095V33.1097V33.1099V33.1101V33.1103V33.1106V33.1108V33.111V33.1112V33.1114V33.1116V33.1118V33.112V33.1122V33.1124V33.1126V33.1128V33.113V33.1132V33.1134V33.1136V33.1138V33.1141V33.1143V33.1145V33.1147V33.1149V33.1151V33.1153V33.1155V33.1157V33.1159V33.1161V33.1163V33.1166V33.1168V33.117V33.1172V33.1174V33.1176V33.1178V33.118V33.1182V33.1184V33.1186V33.1189V33.1191V33.1193V33.1195V33.1197V33.1199V33.1201V33.1203C23.1202 36.765 20.151 39.7345 16.4988 39.7345C12.8467 39.7345 9.87732 36.7652 9.87732 33.1131V33.1129V33.1127V33.1125V33.1123V33.1121V33.1118V33.1116V33.1114V33.1112V33.111V33.1108V33.1106V33.1104V33.1102V33.1099V33.1097V33.1095V33.1093V33.1091V33.1089V33.1087V33.1085V33.1083V33.1081V33.1079V33.1077V33.1074V33.1072V33.107V33.1068V33.1066V33.1064V33.1062V33.106V33.1058V33.1056V33.1054V33.1052V33.105V33.1048V33.1046V33.1043V33.1041V33.1039V33.1037V33.1035V33.1033V33.1031V33.1029V33.1027V33.1025V33.1023V33.1021V33.1019V33.1017V33.1015V33.1013V33.1011V33.1009V33.1007V33.1005V33.1003V33.1001V33.0999V33.0997V33.0995V33.0992V33.099V33.0988V33.0986V33.0984V33.0982V33.098V33.0978V33.0976V33.0974V33.0972V33.097V33.0968V33.0966V33.0964V33.0962V33.096V33.0958V33.0956V33.0954V33.0952V33.095V33.0948V33.0946V33.0944V33.0942V33.094V33.0938V33.0936V33.0934V33.0932V33.093V33.0928V33.0926V33.0924V33.0922V33.092V33.0918V33.0916V33.0914V33.0912V33.0911V33.0909V33.0907V33.0905V33.0903V33.0901V33.0899V33.0897V33.0895V33.0893V33.0891V33.0889V33.0887V33.0885V33.0883V33.0881V33.0879V33.0877V33.0875V33.0873V33.0871V33.0869V33.0867V33.0865V33.0863V33.0861V33.0859V33.0857V33.0855V33.0854V33.0852V33.085V33.0848V33.0846V33.0844V33.0842V33.084V33.0838V33.0836V33.0834V33.0832V33.083V33.0828V33.0826V33.0824V33.0822V33.082V33.0819V33.0817V33.0815V33.0813V33.0811V33.0809V33.0807V33.0805V33.0803V33.0801V33.0799V33.0797V33.0795V33.0793V33.0791V33.0789V33.0788V33.0786V33.0784V33.0782V33.078V33.0778V33.0776V33.0774V33.0772V33.077V33.0768V33.0766V33.0764V33.0762V33.0761V33.0759V33.0757V33.0755V33.0753V33.0751V33.0749V33.0747V33.0745V33.0743V33.0741V33.0739V33.0738V33.0736V33.0734V33.0732V33.073V33.0728V33.0726V33.0724V33.0722V33.072V33.0718V33.0716V33.0715V33.0713V33.0711V33.0709V33.0707V33.0705V33.0703V33.0701V33.0699V33.0697V33.0695V33.0693V33.0692V33.069V33.0688V33.0686V33.0684V33.0682V33.068V33.0678V33.0676V33.0674V33.0672V33.0671V33.0669V33.0667V33.0665V33.0663V33.0661V33.0659V33.0657V33.0655V33.0653V33.0651V33.065V33.0648V33.0646V33.0644V33.0642V33.064V33.0638V33.0636V33.0634V33.0632V33.063V33.0629V33.0627V33.0625V33.0623V33.0621V33.0619V33.0617V33.0615V33.0613V33.0611V33.061V33.0608V33.0606V33.0604V33.0602V33.06V33.0598V33.0596V33.0594V33.0592V33.059V33.0589V33.0587V33.0585V33.0583V33.0581V33.0579V33.0577V33.0575V33.0573V33.0571V33.0569V33.0568V33.0566V33.0564V33.0562V33.056V33.0558V33.0556V33.0554V33.0552V33.055V33.0548V33.0546V33.0545V33.0543V33.0541V33.0539V33.0537V33.0535V33.0533V33.0531V33.0529V33.0527V33.0525V33.0524V33.0522V33.052V33.0518V33.0516V33.0514V33.0512V33.051V33.0508V33.0506V33.0504V33.0502V33.05V33.0499V33.0497V33.0495V33.0493V33.0491V33.0489V33.0487V33.0485V33.0483V33.0481V33.0479V33.0477V33.0475V33.0474V33.0472V33.047V33.0468V33.0466V33.0464V33.0462V33.046V33.0458V33.0456V33.0454V33.0452V33.045V33.0448V33.0447V33.0445V33.0443V33.0441V33.0439V33.0437V33.0435V33.0433V33.0431V33.0429V33.0427V33.0425V33.0423V33.0421V33.0419V33.0417V33.0415V33.0414V33.0412V33.041V33.0408V33.0406V33.0404V33.0402V33.04V33.0398V33.0396V33.0394V33.0392V33.039V33.0388V33.0386V33.0384V33.0382V33.038V33.0378V33.0376V33.0374V33.0372V33.0371V33.0369V33.0367V33.0365V33.0363V33.0361V33.0359V33.0357V33.0355V33.0353V33.0351V33.0349V33.0347V33.0345V33.0343V33.0341V33.0339V33.0337V33.0335V33.0333V33.0331V33.0329V33.0327V33.0325V33.0323V33.0321V33.0319V33.0317V33.0315V33.0313V33.0311V33.0309V33.0307V33.0305V33.0303V33.0301V33.0299V33.0297V33.0295V33.0293V33.0291V33.0289V33.0287V33.0285V33.0283V33.0281V33.0279V33.0277V33.0275V33.0273V33.0271V33.0269V33.0267V33.0265V33.0263V33.0261V33.0259V33.0257V33.0255V33.0253V33.0251V33.0249V33.0247V33.0245V33.0243V33.0241V33.0239V33.0237V33.0235V33.0233V33.0231V33.0229V33.0227V33.0224V33.0222V33.022V33.0218V33.0216V33.0214V33.0212V33.021V33.0208V33.0206V33.0204V33.0202V33.02V33.0198V33.0196V33.0194V33.0192V33.019V33.0187V33.0185V33.0183V33.0181V33.0179V33.0177V33.0175V33.0173V33.0171V33.0169V33.0167V33.0165V33.0163V33.016V33.0158V33.0156V33.0154V33.0152V33.015V33.0148V33.0146V33.0144V33.0142V33.014V33.0139C9.9057 31.2715 10.6025 29.635 11.8428 28.4085ZM13.7172 33.1203L13.7172 33.1216C13.7251 34.6544 14.9645 35.8947 16.4988 35.8947C18.0324 35.8947 19.2803 34.6476 19.2803 33.1203L19.2804 33.0842L19.2803 33.0816C19.2644 31.5627 18.017 30.3315 16.4988 30.3315C14.9805 30.3315 13.7331 31.5627 13.7172 33.0816H13.7172V33.0842L13.7172 33.1203Z" fill="#FE5E24" stroke="#F3F3F3" stroke-width="0.5"/>
</svg>
