<svg width="50" height="46" viewBox="0 0 50 46" fill="none" xmlns="http://www.w3.org/2000/svg">
<path d="M3.57738 21.3539C4.43215 9.3343 14.5734 0 26.7592 0C39.5941 0 50 10.2973 50 22.9975C50 35.6996 39.5953 45.9956 26.7592 45.9956C24.6339 46.1332 24.4894 42.9721 26.7592 42.9517C37.8955 42.9517 46.9239 34.0175 46.9239 22.9975C46.9239 11.9788 37.8949 3.04395 26.7592 3.04395C16.2708 3.04395 7.51246 11.0194 6.66255 21.3539H8.98401C10.8453 21.3809 10.4659 23.236 9.64209 24.2981L6.77425 28.0017C5.87699 29.1623 4.44611 29.1623 3.54824 28.0017L0.680406 24.2981C-0.143398 23.236 -0.522214 21.3809 1.33848 21.3539H3.57738ZM21.4315 26.9035L25.3047 23.5142C25.2822 22.6947 25.6374 21.9618 26.341 21.5119V10.591C26.341 8.92639 28.8846 8.92639 28.8846 10.591V21.5648C29.4662 21.9721 29.845 22.6425 29.845 23.4006C29.845 24.5648 28.952 25.5218 27.8071 25.6372L23.5946 29.3239C21.9785 30.7405 19.8137 28.3201 21.4315 26.9035ZM18.4059 43.5536C18.6645 42.5949 19.6589 42.026 20.6278 42.2837C21.5948 42.539 22.1685 43.5242 21.9093 44.4824C21.6501 45.44 20.6563 46.0083 19.6886 45.7511C18.7209 45.494 18.1454 44.5106 18.4059 43.5536ZM11.6545 41.6415C12.1554 40.7818 13.2639 40.4869 14.1326 40.9837C15.0002 41.4787 15.297 42.5768 14.7956 43.4359C14.2953 44.2949 13.1856 44.5887 12.3187 44.0925C11.4512 43.5969 11.1525 42.4987 11.6545 41.6415ZM7.17553 36.7118C7.88399 36.0101 9.03197 36.0095 9.74165 36.7112C10.4495 37.4123 10.4495 38.5489 9.74104 39.2499C9.03197 39.9516 7.88399 39.9516 7.17553 39.2499C6.46768 38.5489 6.46707 37.4123 7.17553 36.7118ZM4.9002 30.6419C5.76832 30.1457 6.87746 30.4395 7.3789 31.2991C7.87974 32.157 7.58288 33.2551 6.71476 33.7508C5.84664 34.2464 4.73811 33.9526 4.23667 33.0936C3.73583 32.2351 4.0333 31.1369 4.9002 30.6419Z" fill="#FE5E24"/>
</svg>
