<svg width="42" height="25" viewBox="0 0 42 25" fill="none" xmlns="http://www.w3.org/2000/svg">
<path fill-rule="evenodd" clip-rule="evenodd" d="M22.5552 23.9111C22.5552 23.9111 23.2968 23.8294 23.6759 23.4215C24.0244 23.0465 24.0133 22.3429 24.0133 22.3429C24.0133 22.3429 23.9653 19.0481 25.4942 18.5629C27.002 18.0847 28.9377 21.7472 30.9892 23.1556C32.5407 24.221 33.7197 23.9878 33.7197 23.9878L39.2059 23.9111C39.2059 23.9111 42.0757 23.734 40.7149 21.4777C40.6034 21.2934 39.9221 19.8086 36.6356 16.758C33.1953 13.5652 33.6565 14.0817 37.8003 8.55873C40.3238 5.19531 41.3325 3.14198 41.0173 2.26265C40.717 1.42483 38.8607 1.64611 38.8607 1.64611L32.6838 1.68431C32.6838 1.68431 32.2256 1.62191 31.8861 1.825C31.5541 2.02366 31.3411 2.48775 31.3411 2.48775C31.3411 2.48775 30.363 5.09031 29.0597 7.30396C26.3091 11.9744 25.2091 12.2217 24.7595 11.9312C23.7134 11.2552 23.9748 9.21611 23.9748 7.76707C23.9748 3.24066 24.6614 1.35347 22.6379 0.864865C21.9665 0.702862 21.472 0.595676 19.7547 0.578172C17.5505 0.555794 15.6854 0.584919 14.6291 1.10241C13.9264 1.44658 13.3842 2.2133 13.7146 2.25746C14.1229 2.3118 15.0472 2.50693 15.5374 3.17382C16.1706 4.03522 16.1484 5.96904 16.1484 5.96904C16.1484 5.96904 16.5123 11.2973 15.299 11.959C14.4665 12.4129 13.3242 11.4862 10.872 7.24888C9.6157 5.07838 8.66688 2.67895 8.66688 2.67895C8.66688 2.67895 8.48418 2.23064 8.15782 1.99065C7.76202 1.69987 7.20895 1.60772 7.20895 1.60772L1.33899 1.64604C1.33899 1.64604 0.457972 1.67068 0.134254 2.0538C-0.153759 2.3949 0.111252 3.0996 0.111252 3.0996C0.111252 3.0996 4.70649 13.8509 9.9102 19.269C14.6821 24.2372 20.0998 23.9111 20.0998 23.9111H22.5552Z" fill="#FE5E24"/>
</svg>
