<svg width="31" height="30" viewBox="0 0 31 30" fill="none" xmlns="http://www.w3.org/2000/svg">
<path d="M21.9909 0H8.54876C3.98386 0 0.27002 3.71402 0.27002 8.27892V21.7211C0.27002 26.2862 3.98386 30 8.54876 30H21.9909C26.5562 30 30.27 26.286 30.27 21.7211V8.27892C30.2702 3.71402 26.5562 0 21.9909 0ZM27.6085 21.7211C27.6085 24.8185 25.0885 27.3383 21.9911 27.3383H8.54876C5.45155 27.3384 2.93177 24.8185 2.93177 21.7211V8.27892C2.93177 5.18171 5.45155 2.66175 8.54876 2.66175H21.9909C25.0883 2.66175 27.6083 5.18171 27.6083 8.27892V21.7211H27.6085Z" fill="#FE5E24"/>
<path d="M15.27 8C11.4102 8 8.27002 11.1402 8.27002 15.0002C8.27002 18.8599 11.4102 22 15.27 22C19.1299 22 22.27 18.8599 22.27 15.0002C22.27 11.1402 19.1299 8 15.27 8ZM15.27 19.5895C12.7394 19.5895 10.6803 17.5307 10.6803 15C10.6803 12.4691 12.7392 10.4102 15.27 10.4102C17.8008 10.4102 19.8597 12.4691 19.8597 15C19.8597 17.5307 17.8007 19.5895 15.27 19.5895Z" fill="#FE5E24"/>
</svg>
