<svg width="144" height="65" viewBox="0 0 144 65" fill="none" xmlns="http://www.w3.org/2000/svg">
<path d="M1 24.986C0.999588 25.5316 1.14225 26.0677 1.41371 26.5404C1.68518 27.013 2.07591 27.4054 2.54662 27.6779L14.5298 34.6374L14.5303 34.6377C15.0002 34.9096 15.533 35.0528 16.0754 35.0528C16.6178 35.0528 17.1506 34.9096 17.6205 34.6377L17.6208 34.6374L29.6082 27.6812L29.6094 27.6805C30.0784 27.4059 30.4672 27.0125 30.7373 26.5399C31.0077 26.0672 31.1503 25.5316 31.1508 24.9865V24.9862V11.0666V11.0657C31.1493 10.521 31.0065 9.98594 30.7364 9.5136C30.4662 9.04123 30.0781 8.64786 29.6099 8.37258L29.6082 8.37152L17.6208 1.41541L17.6205 1.4152C17.1506 1.14321 16.6178 1 16.0754 1C15.533 1 15.0002 1.14321 14.5303 1.4152L14.5299 1.41543L2.54622 8.37152L2.54516 8.37215C2.07599 8.64662 1.68662 9.03978 1.41562 9.51232C1.14463 9.98485 1.00138 10.5204 1 11.0657V11.0666L1 24.986ZM1 24.986L1.36181 24.9862H1V24.986ZM28.3578 10.5317L28.3593 10.5325C28.4531 10.5865 28.5313 10.6643 28.586 10.7585C28.6408 10.8523 28.6699 10.959 28.6709 11.068L28.6637 24.9853V24.9855C28.6632 25.0944 28.6347 25.2009 28.5807 25.2951C28.5269 25.3891 28.4497 25.4671 28.3571 25.5217C28.3569 25.5217 28.3569 25.5217 28.3566 25.5219L16.3779 32.481C16.2859 32.5344 16.1815 32.5624 16.0754 32.5624C15.9692 32.5624 15.8649 32.5344 15.7728 32.481L3.80224 25.5224C3.80192 25.5221 3.80161 25.5219 3.8013 25.5217C3.7093 25.4673 3.63279 25.3893 3.57955 25.2959C3.5261 25.2019 3.498 25.0952 3.49815 24.9867V24.9862V11.0666V11.0648V11.0629C3.49704 10.9553 3.52393 10.8493 3.57601 10.7556C3.62765 10.6626 3.70218 10.585 3.7922 10.53L15.7728 3.57196L15.7728 3.57193C15.8649 3.51844 15.9693 3.49035 16.0754 3.49035C16.1815 3.49035 16.2858 3.51844 16.3779 3.57193C16.3779 3.57193 16.3779 3.57193 16.3779 3.57193L28.3578 10.5317Z" fill="#FE5E24" stroke="#FE5E24"/>
<path d="M17.6431 54.2086C17.6427 54.7542 17.7853 55.2904 18.0568 55.763C18.3282 56.2356 18.719 56.6281 19.1897 56.9005L31.1728 63.8601L31.1733 63.8603C31.6434 64.1323 32.176 64.2755 32.7184 64.2755C33.2609 64.2755 33.7935 64.1323 34.2636 63.8603L34.2639 63.8601L46.2513 56.9039L46.2525 56.9032C46.7214 56.6286 47.1102 56.2352 47.3804 55.7625C47.6508 55.2899 47.7933 54.7542 47.7938 54.2091V54.2089V40.2893V40.2883C47.7924 39.7437 47.6496 39.2085 47.3794 38.7363C47.1093 38.264 46.7212 37.8705 46.253 37.5952L46.2513 37.5942L34.2639 30.6381L34.2636 30.6378C33.7935 30.3659 33.2609 30.2227 32.7184 30.2227C32.176 30.2227 31.6434 30.3659 31.1733 30.6378L31.173 30.6381L19.1893 37.5942L19.1882 37.5947C18.7191 37.8693 18.3297 38.2625 18.0587 38.7349C17.7877 39.2075 17.6444 39.743 17.6431 40.2883V40.2893V54.2086ZM17.6431 54.2086L18.0049 54.2089H17.6431V54.2086ZM45.0009 39.7543L45.0023 39.7553C45.0962 39.8091 45.1743 39.8869 45.2291 39.9811C45.2838 40.075 45.313 40.1818 45.314 40.2907L45.3067 54.2079V54.2082C45.3063 54.3171 45.2778 54.4236 45.2238 54.5178C45.17 54.6117 45.0928 54.6897 45.0002 54.7443C44.9999 54.7443 44.9999 54.7443 44.9997 54.7446L33.0209 61.7036C32.929 61.757 32.8246 61.785 32.7184 61.785C32.6123 61.785 32.5079 61.757 32.416 61.7036L20.4453 54.745C20.445 54.7448 20.4447 54.7446 20.4444 54.7443C20.3524 54.69 20.2759 54.612 20.2226 54.5185C20.1692 54.4246 20.1411 54.3178 20.1412 54.2094V54.2089V40.2893V40.2873V40.2856C20.1401 40.1779 20.167 40.0719 20.2191 39.9782C20.2707 39.8852 20.3452 39.8077 20.4353 39.7526L32.4157 32.7945H32.416C32.5079 32.7411 32.6123 32.7131 32.7184 32.7131C32.8246 32.7131 32.9288 32.7411 33.0209 32.7945L45.0009 39.7543Z" fill="#FE5E24" stroke="#FE5E24"/>
<path d="M74.7639 20.9292C75.0726 20.9292 75.3273 21.0374 75.528 21.2538C75.7441 21.4702 75.8522 21.733 75.8522 22.0421V27.2587C75.8522 27.676 75.6669 28.0006 75.2964 28.2325C74.5863 28.6962 73.8067 29.0594 72.9577 29.3222C72.1087 29.5695 71.2365 29.6931 70.3411 29.6931C68.7974 29.6931 67.3772 29.3222 66.0804 28.5803C64.7991 27.8383 63.788 26.8337 63.047 25.5662C62.306 24.2833 61.9355 22.8768 61.9355 21.3466C61.9355 19.8164 62.306 18.4175 63.047 17.1501C63.788 15.8672 64.7991 14.8548 66.0804 14.1129C67.3772 13.371 68.7974 13 70.3411 13C71.113 13 71.8539 13.085 72.564 13.255C73.2896 13.4251 73.938 13.6801 74.5091 14.0201C74.6944 14.1283 74.8333 14.2597 74.9259 14.4143C75.0186 14.5688 75.0649 14.7389 75.0649 14.9243C75.0649 15.2335 74.9568 15.504 74.7407 15.7358C74.54 15.9522 74.293 16.0604 73.9997 16.0604C73.7682 16.0604 73.5675 16.0063 73.3977 15.8981C72.3942 15.4344 71.3754 15.2026 70.3411 15.2026C69.2296 15.2026 68.2108 15.4731 67.2845 16.014C66.3737 16.555 65.6482 17.2969 65.1079 18.2398C64.583 19.1826 64.3206 20.2182 64.3206 21.3466C64.3206 22.4749 64.583 23.5105 65.1079 24.4533C65.6482 25.3807 66.3737 26.1227 67.2845 26.6791C68.2108 27.2201 69.2296 27.4906 70.3411 27.4906C70.866 27.4906 71.414 27.4287 71.9852 27.3051C72.5718 27.1814 73.0735 27.0191 73.4903 26.8182V23.1318H70.6884C70.3797 23.1318 70.1173 23.0313 69.9011 22.8304C69.685 22.614 69.577 22.3512 69.577 22.0421C69.577 21.7175 69.685 21.4548 69.9011 21.2538C70.1173 21.0374 70.3797 20.9292 70.6884 20.9292H74.7639ZM89.3361 22.9231C89.3206 23.2014 89.2049 23.4409 88.9887 23.6419C88.7726 23.8274 88.5179 23.9201 88.2246 23.9201H80.0738C80.1818 25.0484 80.6063 25.9526 81.3473 26.6327C82.1037 27.3128 83.0223 27.6529 84.1029 27.6529C84.8438 27.6529 85.4459 27.5447 85.909 27.3283C86.3721 27.1119 86.7812 26.8337 87.1363 26.4936C87.3678 26.3545 87.5917 26.285 87.8078 26.285C88.0702 26.285 88.2863 26.3777 88.4562 26.5632C88.6414 26.7487 88.734 26.965 88.734 27.2123C88.734 27.5369 88.5796 27.8306 88.2709 28.0934C87.8232 28.5416 87.2289 28.9203 86.4879 29.2294C85.7469 29.5386 84.9905 29.6931 84.2186 29.6931C82.9682 29.6931 81.8645 29.4304 80.9074 28.9048C79.9657 28.3793 79.2324 27.6451 78.7076 26.7023C78.1981 25.7594 77.9434 24.6929 77.9434 23.5028C77.9434 22.2044 78.2059 21.0683 78.7307 20.0946C79.271 19.1054 79.9734 18.348 80.8379 17.8225C81.7178 17.2969 82.6595 17.0342 83.6629 17.0342C84.6509 17.0342 85.5771 17.2892 86.4416 17.7993C87.3061 18.3093 88.0008 19.0126 88.5256 19.9091C89.0505 20.8056 89.3206 21.8103 89.3361 22.9231ZM83.6629 19.0744C82.7984 19.0744 82.0497 19.3218 81.4168 19.8164C80.7839 20.2955 80.3671 21.0452 80.1664 22.0653H86.9973V21.8798C86.9202 21.0606 86.5497 20.3883 85.8859 19.8627C85.2375 19.3372 84.4965 19.0744 83.6629 19.0744ZM98.073 17.0342C100.852 17.0342 102.241 18.7035 102.241 22.0421V28.3484C102.241 28.6575 102.133 28.9203 101.917 29.1367C101.716 29.3531 101.454 29.4613 101.13 29.4613C100.821 29.4613 100.558 29.3531 100.342 29.1367C100.142 28.9203 100.041 28.6575 100.041 28.3484V22.0653C100.041 21.1534 99.8329 20.4269 99.4161 19.8859C98.9993 19.3449 98.32 19.0744 97.3784 19.0744C96.7609 19.0744 96.1974 19.2136 95.688 19.4918C95.194 19.7545 94.8004 20.1178 94.507 20.5815C94.2292 21.0297 94.0902 21.5243 94.0902 22.0653V28.3484C94.0902 28.6575 93.9822 28.9203 93.7661 29.1367C93.5654 29.3531 93.3029 29.4613 92.9788 29.4613C92.6546 29.4613 92.3921 29.3608 92.1915 29.1599C91.9908 28.9435 91.8904 28.673 91.8904 28.3484V18.4253C91.8904 18.1161 91.9908 17.8534 92.1915 17.637C92.4076 17.4206 92.67 17.3124 92.9788 17.3124C93.3029 17.3124 93.5654 17.4206 93.7661 17.637C93.9822 17.8534 94.0902 18.1161 94.0902 18.4253V19.2367C94.4916 18.6185 95.0473 18.1007 95.7575 17.6834C96.483 17.2506 97.2549 17.0342 98.073 17.0342ZM116.178 22.9231C116.162 23.2014 116.047 23.4409 115.83 23.6419C115.614 23.8274 115.36 23.9201 115.066 23.9201H106.915C107.023 25.0484 107.448 25.9526 108.189 26.6327C108.945 27.3128 109.864 27.6529 110.945 27.6529C111.686 27.6529 112.288 27.5447 112.751 27.3283C113.214 27.1119 113.623 26.8337 113.978 26.4936C114.209 26.3545 114.433 26.285 114.649 26.285C114.912 26.285 115.128 26.3777 115.298 26.5632C115.483 26.7487 115.576 26.965 115.576 27.2123C115.576 27.5369 115.421 27.8306 115.113 28.0934C114.665 28.5416 114.071 28.9203 113.33 29.2294C112.589 29.5386 111.832 29.6931 111.06 29.6931C109.81 29.6931 108.706 29.4304 107.749 28.9048C106.807 28.3793 106.074 27.6451 105.549 26.7023C105.04 25.7594 104.785 24.6929 104.785 23.5028C104.785 22.2044 105.048 21.0683 105.572 20.0946C106.113 19.1054 106.815 18.348 107.68 17.8225C108.559 17.2969 109.501 17.0342 110.505 17.0342C111.493 17.0342 112.419 17.2892 113.283 17.7993C114.148 18.3093 114.842 19.0126 115.367 19.9091C115.892 20.8056 116.162 21.8103 116.178 22.9231ZM110.505 19.0744C109.64 19.0744 108.891 19.3218 108.258 19.8164C107.626 20.2955 107.209 21.0452 107.008 22.0653H113.839V21.8798C113.762 21.0606 113.391 20.3883 112.728 19.8627C112.079 19.3372 111.338 19.0744 110.505 19.0744ZM118.037 27.5601C117.898 27.3437 117.829 27.1351 117.829 26.9341C117.829 26.625 117.991 26.3622 118.315 26.1458C118.47 26.0376 118.647 25.9835 118.848 25.9835C119.126 25.9835 119.38 26.0995 119.612 26.3313C120.075 26.8568 120.569 27.251 121.094 27.5138C121.634 27.7765 122.275 27.9079 123.016 27.9079C123.603 27.8924 124.12 27.7611 124.567 27.5138C125.015 27.251 125.239 26.8337 125.239 26.2618C125.239 25.7362 125.007 25.3344 124.544 25.0562C124.097 24.7779 123.433 24.5229 122.553 24.2911C121.688 24.0592 120.97 23.8196 120.399 23.5723C119.828 23.3096 119.342 22.9386 118.94 22.4594C118.555 21.9648 118.362 21.3234 118.362 20.5351C118.362 19.8395 118.555 19.229 118.94 18.7035C119.342 18.178 119.867 17.7684 120.515 17.4747C121.179 17.181 121.897 17.0342 122.669 17.0342C123.41 17.0342 124.143 17.1733 124.868 17.4515C125.609 17.7297 126.211 18.1548 126.675 18.7267C126.86 18.9431 126.952 19.1672 126.952 19.399C126.952 19.6463 126.829 19.8859 126.582 20.1178C126.428 20.2569 126.235 20.3264 126.003 20.3264C125.725 20.3264 125.501 20.2337 125.331 20.0482C125.007 19.6773 124.606 19.3913 124.127 19.1904C123.664 18.9894 123.147 18.889 122.576 18.889C121.989 18.889 121.488 19.0126 121.071 19.2599C120.669 19.4918 120.469 19.8936 120.469 20.4655C120.484 21.0065 120.716 21.4084 121.163 21.6712C121.627 21.9339 122.329 22.189 123.271 22.4363C124.089 22.6527 124.768 22.8845 125.308 23.1318C125.849 23.3791 126.304 23.7501 126.675 24.2447C127.045 24.7238 127.23 25.3576 127.23 26.1458C127.23 26.8723 127.022 27.506 126.605 28.047C126.188 28.5725 125.64 28.9821 124.961 29.2758C124.297 29.554 123.587 29.6931 122.831 29.6931C121.858 29.6931 120.955 29.5231 120.121 29.1831C119.303 28.843 118.609 28.302 118.037 27.5601ZM131.851 28.3484C131.851 28.6575 131.743 28.9203 131.527 29.1367C131.326 29.3531 131.064 29.4613 130.74 29.4613C130.431 29.4613 130.169 29.3531 129.953 29.1367C129.752 28.9203 129.651 28.6575 129.651 28.3484V18.3093C129.651 18.0002 129.752 17.7374 129.953 17.5211C130.169 17.3047 130.431 17.1965 130.74 17.1965C131.064 17.1965 131.326 17.3047 131.527 17.5211C131.743 17.7374 131.851 18.0002 131.851 18.3093V28.3484ZM130.74 15.6663C130.292 15.6663 129.968 15.589 129.767 15.4344C129.582 15.2644 129.489 15.0016 129.489 14.6461V14.2752C129.489 13.9042 129.59 13.6414 129.79 13.4869C130.007 13.3323 130.331 13.255 130.763 13.255C131.195 13.255 131.504 13.34 131.689 13.5101C131.89 13.6646 131.99 13.9197 131.99 14.2752V14.6461C131.99 15.0171 131.89 15.2798 131.689 15.4344C131.489 15.589 131.172 15.6663 130.74 15.6663ZM134.319 27.5601C134.18 27.3437 134.11 27.1351 134.11 26.9341C134.11 26.625 134.273 26.3622 134.597 26.1458C134.751 26.0376 134.929 25.9835 135.129 25.9835C135.407 25.9835 135.662 26.0995 135.893 26.3313C136.357 26.8568 136.851 27.251 137.375 27.5138C137.916 27.7765 138.556 27.9079 139.297 27.9079C139.884 27.8924 140.401 27.7611 140.849 27.5138C141.296 27.251 141.52 26.8337 141.52 26.2618C141.52 25.7362 141.289 25.3344 140.826 25.0562C140.378 24.7779 139.714 24.5229 138.834 24.2911C137.97 24.0592 137.252 23.8196 136.681 23.5723C136.11 23.3096 135.623 22.9386 135.222 22.4594C134.836 21.9648 134.643 21.3234 134.643 20.5351C134.643 19.8395 134.836 19.229 135.222 18.7035C135.623 18.178 136.148 17.7684 136.797 17.4747C137.46 17.181 138.178 17.0342 138.95 17.0342C139.691 17.0342 140.424 17.1733 141.15 17.4515C141.891 17.7297 142.493 18.1548 142.956 18.7267C143.141 18.9431 143.234 19.1672 143.234 19.399C143.234 19.6463 143.11 19.8859 142.863 20.1178C142.709 20.2569 142.516 20.3264 142.284 20.3264C142.007 20.3264 141.783 20.2337 141.613 20.0482C141.289 19.6773 140.887 19.3913 140.409 19.1904C139.946 18.9894 139.429 18.889 138.857 18.889C138.271 18.889 137.769 19.0126 137.352 19.2599C136.951 19.4918 136.75 19.8936 136.75 20.4655C136.766 21.0065 136.997 21.4084 137.445 21.6712C137.908 21.9339 138.61 22.189 139.552 22.4363C140.37 22.6527 141.049 22.8845 141.59 23.1318C142.13 23.3791 142.585 23.7501 142.956 24.2447C143.326 24.7238 143.512 25.3576 143.512 26.1458C143.512 26.8723 143.303 27.506 142.886 28.047C142.47 28.5725 141.922 28.9821 141.242 29.2758C140.579 29.554 139.868 29.6931 139.112 29.6931C138.14 29.6931 137.236 29.5231 136.403 29.1831C135.585 28.843 134.89 28.302 134.319 27.5601Z" fill="#000422"/>
<path d="M74.7638 44.5971C75.0726 44.5971 75.3273 44.7053 75.528 44.9217C75.7441 45.1381 75.8522 45.4008 75.8522 45.71V50.9266C75.8522 51.3439 75.6669 51.6685 75.2964 51.9003C74.5863 52.364 73.8067 52.7273 72.9577 52.99C72.1087 53.2373 71.2365 53.361 70.3411 53.361C68.7974 53.361 67.3772 52.99 66.0804 52.2481C64.7991 51.5062 63.788 50.5015 63.047 49.2341C62.306 47.9512 61.9355 46.5446 61.9355 45.0144C61.9355 43.4842 62.306 42.0854 63.047 40.8179C63.788 39.535 64.7991 38.5226 66.0804 37.7807C67.3772 37.0388 68.7974 36.6678 70.3411 36.6678C71.113 36.6678 71.8539 36.7529 72.564 36.9229C73.2896 37.0929 73.938 37.3479 74.5091 37.688C74.6944 37.7962 74.8333 37.9276 74.9259 38.0821C75.0186 38.2367 75.0649 38.4067 75.0649 38.5922C75.0649 38.9013 74.9568 39.1718 74.7407 39.4037C74.54 39.6201 74.293 39.7283 73.9997 39.7283C73.7682 39.7283 73.5675 39.6742 73.3977 39.566C72.3942 39.1023 71.3754 38.8704 70.3411 38.8704C69.2296 38.8704 68.2108 39.1409 67.2845 39.6819C66.3737 40.2229 65.6482 40.9648 65.1079 41.9076C64.583 42.8505 64.3206 43.8861 64.3206 45.0144C64.3206 46.1427 64.583 47.1783 65.1079 48.1212C65.6482 49.0486 66.3737 49.7905 67.2845 50.3469C68.2108 50.8879 69.2296 51.1584 70.3411 51.1584C70.866 51.1584 71.414 51.0966 71.9852 50.9729C72.5718 50.8493 73.0735 50.687 73.4903 50.4861V46.7997H70.6884C70.3797 46.7997 70.1173 46.6992 69.9011 46.4982C69.685 46.2819 69.577 46.0191 69.577 45.71C69.577 45.3854 69.685 45.1226 69.9011 44.9217C70.1173 44.7053 70.3797 44.5971 70.6884 44.5971H74.7638ZM84.7281 40.702C85.1294 40.702 85.4768 40.8102 85.7701 41.0266C86.0634 41.2275 86.21 41.4826 86.21 41.7917C86.21 42.1627 86.1097 42.4486 85.909 42.6496C85.7238 42.835 85.4922 42.9278 85.2143 42.9278C85.0754 42.9278 84.867 42.8814 84.5891 42.7887C84.2649 42.6805 84.0102 42.6264 83.825 42.6264C83.3464 42.6264 82.8756 42.7964 82.4125 43.1364C81.9648 43.461 81.5943 43.917 81.301 44.5043C81.0231 45.0762 80.8842 45.7177 80.8842 46.4287V52.0163C80.8842 52.3254 80.7761 52.5882 80.56 52.8045C80.3593 53.0209 80.0969 53.1291 79.7727 53.1291C79.4486 53.1291 79.1861 53.0287 78.9854 52.8277C78.7847 52.6113 78.6844 52.3408 78.6844 52.0163V42.0931C78.6844 41.784 78.7847 41.5212 78.9854 41.3048C79.2016 41.0884 79.464 40.9802 79.7727 40.9802C80.0969 40.9802 80.3593 41.0884 80.56 41.3048C80.7761 41.5212 80.8842 41.784 80.8842 42.0931V43.2755C81.2238 42.5182 81.7333 41.9076 82.4125 41.4439C83.0917 40.9648 83.8636 40.7175 84.7281 40.702ZM99.2149 47.0547C99.2149 48.2603 98.9447 49.3423 98.4044 50.3006C97.8641 51.2589 97.1232 52.0085 96.1815 52.5495C95.2553 53.0905 94.2287 53.361 93.1018 53.361C91.9749 53.361 90.9406 53.0905 89.9989 52.5495C89.0727 52.0085 88.3394 51.2589 87.7991 50.3006C87.2588 49.3423 86.9886 48.2603 86.9886 47.0547C86.9886 45.8491 87.2588 44.7594 87.7991 43.7856C88.3394 42.8118 89.0727 42.0545 89.9989 41.5135C90.9406 40.9725 91.9749 40.702 93.1018 40.702C94.2287 40.702 95.2553 40.9725 96.1815 41.5135C97.1232 42.0545 97.8641 42.8118 98.4044 43.7856C98.9447 44.7594 99.2149 45.8491 99.2149 47.0547ZM97.0151 47.0547C97.0151 46.22 96.8376 45.4781 96.4825 44.8289C96.1429 44.1643 95.6721 43.6542 95.07 43.2987C94.4834 42.9278 93.8273 42.7423 93.1018 42.7423C92.3762 42.7423 91.7124 42.9278 91.1104 43.2987C90.5238 43.6542 90.0529 44.1643 89.6979 44.8289C89.3583 45.4781 89.1885 46.22 89.1885 47.0547C89.1885 47.8739 89.3583 48.6081 89.6979 49.2573C90.0529 49.9064 90.5238 50.4165 91.1104 50.7875C91.7124 51.143 92.3762 51.3207 93.1018 51.3207C93.8273 51.3207 94.4834 51.143 95.07 50.7875C95.6721 50.4165 96.1429 49.9064 96.4825 49.2573C96.8376 48.6081 97.0151 47.8739 97.0151 47.0547ZM110.803 40.9802C111.127 40.9802 111.39 41.0884 111.59 41.3048C111.807 41.5212 111.915 41.784 111.915 42.0931V48.2603C111.915 49.8678 111.467 51.1198 110.572 52.0163C109.692 52.8973 108.441 53.3378 106.82 53.3378C105.215 53.3378 103.972 52.8973 103.092 52.0163C102.212 51.1198 101.772 49.8678 101.772 48.2603V42.0931C101.772 41.784 101.873 41.5212 102.073 41.3048C102.29 41.0884 102.552 40.9802 102.861 40.9802C103.185 40.9802 103.447 41.0884 103.648 41.3048C103.864 41.5212 103.972 41.784 103.972 42.0931V48.2603C103.972 50.2851 104.922 51.2975 106.82 51.2975C107.762 51.2975 108.48 51.0425 108.974 50.5324C109.468 50.0224 109.715 49.265 109.715 48.2603V42.0931C109.715 41.784 109.815 41.5212 110.016 41.3048C110.232 41.0884 110.494 40.9802 110.803 40.9802ZM121.294 40.7716C122.344 40.7716 123.294 41.0421 124.143 41.583C124.992 42.1086 125.655 42.8505 126.134 43.8088C126.628 44.7671 126.875 45.8491 126.875 47.0547C126.875 48.2603 126.628 49.3423 126.134 50.3006C125.655 51.2434 124.992 51.9853 124.143 52.5263C123.294 53.0673 122.36 53.3378 121.341 53.3378C120.538 53.3378 119.789 53.16 119.095 52.8045C118.4 52.449 117.836 52.0163 117.404 51.5062V56.6532C117.404 56.9624 117.296 57.2251 117.08 57.4415C116.879 57.6579 116.617 57.7661 116.293 57.7661C115.984 57.7661 115.722 57.6579 115.505 57.4415C115.305 57.2406 115.204 56.9778 115.204 56.6532V42.0699C115.204 41.7453 115.305 41.4749 115.505 41.2585C115.706 41.0421 115.969 40.9339 116.293 40.9339C116.617 40.9339 116.879 41.0421 117.08 41.2585C117.296 41.4749 117.404 41.7453 117.404 42.0699V42.7423C117.775 42.2013 118.315 41.7376 119.025 41.3512C119.735 40.9648 120.492 40.7716 121.294 40.7716ZM121.04 51.2975C121.75 51.2975 122.39 51.112 122.962 50.7411C123.533 50.3701 123.973 49.8678 124.282 49.2341C124.606 48.5849 124.768 47.8584 124.768 47.0547C124.768 46.2509 124.606 45.5322 124.282 44.8985C123.973 44.2493 123.533 43.7392 122.962 43.3683C122.39 42.9973 121.75 42.8118 121.04 42.8118C120.314 42.8118 119.666 42.9973 119.095 43.3683C118.523 43.7238 118.076 44.2261 117.752 44.8753C117.443 45.5245 117.288 46.2509 117.288 47.0547C117.288 47.8584 117.443 48.5849 117.752 49.2341C118.076 49.8832 118.523 50.3933 119.095 50.7643C119.666 51.1198 120.314 51.2975 121.04 51.2975Z" fill="#000422"/>
</svg>
