<svg width="47" height="47" viewBox="0 0 47 47" fill="none" xmlns="http://www.w3.org/2000/svg">
<path d="M10.4898 47H3.50877C1.57411 47 0 45.317 0 43.247V20.753C0 18.6845 1.57411 17 3.50877 17H12.5971C13.3715 17 14 17.672 14 18.5V43.247C14 45.317 12.4245 47 10.4898 47ZM3.50877 20C3.12156 20 2.80589 20.3375 2.80589 20.753V43.247C2.80589 43.661 3.12156 44 3.50877 44H10.4898C10.8784 44 11.1941 43.661 11.1941 43.247V20H3.50877Z" fill="#FE5E24"/>
<path d="M7 41C7.55228 41 8 40.5523 8 40C8 39.4477 7.55228 39 7 39C6.44772 39 6 39.4477 6 40C6 40.5523 6.44772 41 7 41Z" fill="#FE5E24"/>
<path d="M39.3171 47H21.695C19.373 47 17.048 46.4639 14.972 45.4461L11.8294 43.9068C11.0884 43.544 10.7884 42.6613 11.1589 41.9357C11.5294 41.2102 12.4324 40.9194 13.172 41.2792L16.3145 42.8185C17.975 43.6322 19.8365 44.0625 21.695 44.0625H39.3171C40.1316 44.0625 40.8606 43.5308 40.9776 42.8522C41.0796 42.2603 40.8141 41.8447 40.6446 41.6508C40.3566 41.3174 39.9396 41.125 39.5001 41.125C38.6706 41.125 38.0001 40.4685 38.0001 39.6562C38.0001 38.844 38.6706 38.1875 39.5001 38.1875H40.8171C41.6316 38.1875 42.3606 37.6558 42.4776 36.9772C42.5796 36.3853 42.3141 35.9697 42.1446 35.7758C41.8566 35.4424 41.4396 35.25 41.0001 35.25C40.1706 35.25 39.5001 34.5935 39.5001 33.7812C39.5001 32.969 40.1706 32.3125 41.0001 32.3125H41.6181C42.6981 32.3125 43.6626 31.6457 43.9146 30.7262C44.1741 29.7804 43.7886 29.0989 43.5366 28.7772C43.1031 28.2235 42.4521 27.9062 41.7501 27.9062C40.9206 27.9062 40.2501 27.2497 40.2501 26.4375C40.2501 25.6253 40.9206 24.9688 41.7501 24.9688C42.4521 24.9688 43.1031 24.6515 43.5366 24.0993C43.7886 23.7761 44.1741 23.0946 43.9146 22.1502C43.6626 21.2308 42.6981 20.5625 41.6181 20.5625H27.5C27.0185 20.5625 26.5655 20.3363 26.282 19.9515C26 19.5682 25.9235 19.0761 26.0765 18.6282L28.409 11.7779C28.7765 10.6925 28.904 9.52044 28.775 8.38656C28.538 6.28919 27.416 4.35631 25.6955 3.08437C25.2395 2.74509 24.5 3.10787 24.5 3.66894V5.10097C24.5 7.82109 23.561 10.4986 21.8555 12.6459L13.685 22.9331C13.175 23.5734 12.2314 23.6865 11.5804 23.1916C10.9249 22.6922 10.8079 21.7698 11.3149 21.1294L19.487 10.8408C20.786 9.20906 21.5 7.16897 21.5 5.10097V3.66894C21.5 1.64647 23.1815 0 25.247 0C26.057 0 26.858 0.262906 27.5045 0.741719C29.879 2.49834 31.4301 5.16853 31.7586 8.06344C31.9341 9.61444 31.7601 11.2198 31.2561 12.7076L29.582 17.625H41.6181C44.0706 17.625 46.2066 19.1731 46.8126 21.3879C47.2461 22.9683 46.9191 24.6074 45.9171 25.8867C45.7611 26.0835 45.5961 26.2671 45.4191 26.4375C45.5961 26.6079 45.7626 26.7915 45.9171 26.9883C46.9191 28.2676 47.2461 29.9067 46.8126 31.4856C46.4931 32.6533 45.7491 33.6344 44.7606 34.3012C45.3816 35.2265 45.6276 36.3516 45.4371 37.4634C45.2256 38.6869 44.4561 39.7341 43.3956 40.3906C43.9176 41.2733 44.1141 42.3117 43.9371 43.3384C43.5771 45.427 41.5911 47 39.3171 47Z" fill="#FE5E24"/>
</svg>
