<svg width="46" height="46" viewBox="0 0 46 46" fill="none" xmlns="http://www.w3.org/2000/svg">
<path d="M42.0295 16.9958H40.8189C40.5284 16.1242 40.1895 15.3011 39.7537 14.5747L40.6253 13.7032C41.3516 12.9768 41.7874 11.96 41.7874 10.8947C41.7874 9.82947 41.3516 8.86105 40.6253 8.08632L37.8168 5.27789C36.2674 3.72842 33.7495 3.72842 32.2 5.27789L31.3768 6.14947C30.6021 5.76211 29.7305 5.42316 28.9074 5.18105V3.97053C28.9074 1.79158 27.1158 0 24.9368 0H20.9663C18.7874 0 16.9958 1.79158 16.9958 3.97053V5.18105C16.1242 5.47158 15.3011 5.81053 14.5747 6.24632L13.7032 5.37474C12.2021 3.87368 9.58737 3.87368 8.08632 5.37474L5.27789 8.18316C3.72842 9.73263 3.72842 12.2505 5.27789 13.8L6.14947 14.6232C5.76211 15.3979 5.42316 16.2695 5.18105 17.0926H3.97053C1.79158 17.0926 0 18.8842 0 21.0632V25.0337C0 27.2126 1.79158 29.0042 3.97053 29.0042H5.18105C5.47158 29.8758 5.81053 30.6989 6.24632 31.4253L5.37474 32.2968C3.82526 33.8463 3.82526 36.3642 5.37474 37.9137L8.18316 40.7221C9.68421 42.2232 12.2989 42.2232 13.8 40.7221L14.6232 39.8505C15.3979 40.2379 16.2695 40.5768 17.0926 40.8189V42.0295C17.0926 44.2084 18.8842 46 21.0632 46H25.0337C27.2126 46 29.0042 44.2084 29.0042 42.0295V40.8189C29.8758 40.5284 30.6989 40.1895 31.4253 39.7537L32.2968 40.6253C33.7979 42.1263 36.4126 42.1263 37.9137 40.6253L40.7221 37.8168C42.2716 36.2674 42.2716 33.7495 40.7221 32.2L39.8505 31.3768C40.2379 30.6021 40.5768 29.7305 40.8189 28.9074H42.0295C44.2084 28.9074 46 27.1158 46 24.9368V20.9663C46 18.7389 44.2084 16.9958 42.0295 16.9958ZM43.4821 24.8884C43.4821 25.6632 42.8526 26.2926 42.0779 26.2926H40.8674C39.8021 26.2926 38.8337 26.9705 38.4947 28.0358C38.2526 28.7621 37.9621 29.4884 37.6232 30.1663C37.1389 31.1347 37.3326 32.2968 38.0589 33.0716L38.9305 33.9432C39.4632 34.4758 39.4632 35.3958 38.9305 35.9768L36.0737 38.7853C35.5411 39.3179 34.5726 39.3179 34.04 38.7853L33.2168 37.9621C32.4421 37.1874 31.28 37.0421 30.3116 37.5263C29.6337 37.8653 28.9074 38.1558 28.1811 38.3979C27.1642 38.7368 26.4379 39.7053 26.4379 40.7705V42.0295C26.4379 42.8042 25.8084 43.4337 25.0337 43.4337H21.0632C20.2884 43.4337 19.6589 42.8042 19.6589 42.0295V40.8189C19.6589 39.7537 18.9811 38.7853 17.9158 38.4463C17.1895 38.2042 16.4632 37.9137 15.7853 37.5747C15.4463 37.3811 15.0105 37.2842 14.6716 37.2842C13.9453 37.2358 13.3158 37.4779 12.8316 37.9621L11.96 38.8337C11.4274 39.3663 10.5074 39.3663 9.92632 38.8337L7.16632 36.0253C6.63368 35.4926 6.63368 34.5726 7.16632 33.9916L8.0379 33.12C8.81263 32.3453 8.9579 31.1832 8.47368 30.2147C8.13474 29.5368 7.84421 28.8105 7.60211 28.0842C7.26316 27.0674 6.29474 26.3411 5.22947 26.3411H3.97053C3.19579 26.3411 2.56632 25.7116 2.56632 24.9368V21.0147C2.56632 20.24 3.19579 19.6105 3.97053 19.6105H5.18105C6.24632 19.6105 7.21474 18.9326 7.55368 17.8674C7.79579 17.1411 8.08632 16.4147 8.42526 15.7368C8.90947 14.7684 8.71579 13.6063 7.98947 12.8316L7.1179 11.96C6.58526 11.4274 6.58526 10.5074 7.1179 9.92632L9.92632 7.11789C10.4589 6.58526 11.4274 6.58526 11.96 7.11789L12.8316 7.98947C13.6063 8.76421 14.7684 8.90947 15.7368 8.42526C16.4147 8.08632 17.1411 7.79579 17.8674 7.55368C18.8842 7.21474 19.6105 6.24632 19.6105 5.18105V3.92211C19.6105 3.14737 20.24 2.51789 21.0147 2.51789H24.9368C25.7116 2.51789 26.3411 3.14737 26.3411 3.92211V5.13263C26.3411 6.1979 27.0189 7.16632 28.0842 7.50526C28.8105 7.74737 29.5368 8.03789 30.2147 8.37684C31.1832 8.86105 32.3453 8.66737 33.12 7.94105L33.9916 7.06947C34.5242 6.53684 35.4442 6.53684 36.0253 7.06947L38.8337 9.87789C39.1242 10.1684 39.2695 10.5074 39.2695 10.8947C39.2695 11.2821 39.1242 11.6211 38.8337 11.9116L38.0105 12.7347C37.2358 13.5095 37.0905 14.6716 37.5747 15.64C37.9137 16.3179 38.2042 17.0442 38.4463 17.7705C38.7853 18.7874 39.7537 19.5137 40.8189 19.5137H42.0779C42.8526 19.5137 43.4821 20.1432 43.4821 20.9179V24.8884Z" fill="#FE5E24"/>
<path d="M23 13C17.4749 13 13 17.4749 13 23C13 28.5251 17.4749 33 23 33C28.5251 33 33 28.5251 33 23C33 17.4749 28.5251 13 23 13ZM23 30.6256C18.7991 30.6256 15.3744 27.2009 15.3744 23C15.3744 18.7991 18.7991 15.3744 23 15.3744C27.2009 15.3744 30.6256 18.7991 30.6256 23C30.6256 27.2009 27.2009 30.6256 23 30.6256Z" fill="#FE5E24"/>
</svg>
