<svg width="67" height="67" viewBox="0 0 67 67" fill="none" xmlns="http://www.w3.org/2000/svg">
<path d="M41.1245 15.5104C37.8149 13.8735 34.1486 13.0904 30.4591 13.2323C26.7696 13.3741 23.1741 14.4365 20 16.3226C16.8259 18.2088 14.1739 20.8588 12.2854 24.0315C10.397 27.2042 9.33196 30.7989 9.18738 34.4883C9.0428 38.1777 9.82322 41.8446 11.4576 45.1554C13.092 48.4662 15.5285 51.3156 18.5453 53.4444C21.562 55.5731 25.0633 56.9136 28.7304 57.3438C32.3974 57.7739 36.1139 57.2801 39.5414 55.9073L37.7023 51.3156C35.0405 52.3817 32.1544 52.7652 29.3066 52.4311C26.4588 52.0971 23.7398 51.0561 21.397 49.403C19.0543 47.7498 17.1622 45.537 15.8929 42.9659C14.6237 40.3948 14.0176 37.5471 14.1299 34.682C14.2422 31.8168 15.0692 29.0253 16.5358 26.5614C18.0023 24.0975 20.0618 22.0396 22.5268 20.5748C24.9918 19.1101 27.7839 18.2851 30.6491 18.1749C33.5143 18.0647 36.3616 18.6729 38.9317 19.944L41.1245 15.5104Z" fill="white"/>
<line x1="28.8384" y1="37.8091" x2="51.0014" y2="15.6461" stroke="white" stroke-width="5"/>
<path d="M49.9548 30.0784L37.4661 42.5671L46.4369 51.5379" stroke="white" stroke-width="5"/>
</svg>
