<svg width="102" height="55" viewBox="0 0 102 55" fill="none" xmlns="http://www.w3.org/2000/svg">
<path d="M48.1 24V14H50.7V15.7167C51.0444 15.1389 51.4778 14.6944 52 14.3833C52.5333 14.0611 53.1556 13.9 53.8667 13.9L54.5 16.4667C54.2889 16.4 54.05 16.3667 53.7833 16.3667C52.95 16.3667 52.2778 16.6389 51.7667 17.1833C51.2556 17.7167 51 18.4833 51 19.4833V24H48.1ZM55.5141 29L58.8474 22.3L54.7641 14H57.9641L59.7307 17.6667C59.8863 18 60.0196 18.3056 60.1307 18.5833C60.253 18.85 60.353 19.1111 60.4307 19.3667C60.5196 19.1111 60.6252 18.85 60.7474 18.5833C60.8696 18.3056 61.0141 18 61.1807 17.6667L62.9807 14H66.0641L58.6307 29H55.5141ZM67.2719 29V14H69.7719V14.9833C70.1608 14.5944 70.6163 14.2889 71.1385 14.0667C71.6719 13.8444 72.2552 13.7333 72.8885 13.7333C73.8219 13.7333 74.6663 13.9722 75.4219 14.45C76.1774 14.9167 76.7774 15.55 77.2219 16.35C77.6774 17.15 77.9052 18.0333 77.9052 19C77.9052 19.9667 77.6774 20.85 77.2219 21.65C76.7774 22.4389 76.1774 23.0722 75.4219 23.55C74.6663 24.0278 73.8219 24.2667 72.8885 24.2667C72.3552 24.2667 71.8608 24.1833 71.4052 24.0167C70.9497 23.8611 70.5385 23.6444 70.1719 23.3667V29H67.2719ZM72.5552 21.7167C73.0441 21.7167 73.4885 21.5944 73.8885 21.35C74.2885 21.1056 74.6052 20.7778 74.8385 20.3667C75.083 19.9556 75.2052 19.5 75.2052 19C75.2052 18.5 75.083 18.0444 74.8385 17.6333C74.6052 17.2222 74.2885 16.8944 73.8885 16.65C73.4885 16.4056 73.0441 16.2833 72.5552 16.2833C72.0663 16.2833 71.6219 16.4056 71.2219 16.65C70.8219 16.8944 70.4997 17.2222 70.2552 17.6333C70.0219 18.0444 69.9052 18.5 69.9052 19C69.9052 19.5 70.0219 19.9556 70.2552 20.3667C70.4997 20.7778 70.8219 21.1056 71.2219 21.35C71.6219 21.5944 72.0663 21.7167 72.5552 21.7167ZM80.2745 24V16.3H78.4078V14H80.3245V10.6667H83.1245V14H85.1078V16.3H83.1745V24H80.2745ZM91.0156 24.3333C90.0267 24.3333 89.1212 24.0944 88.299 23.6167C87.4767 23.1389 86.8212 22.4944 86.3323 21.6833C85.8545 20.8722 85.6156 19.9778 85.6156 19C85.6156 18.0111 85.8545 17.1167 86.3323 16.3167C86.8212 15.5056 87.4767 14.8611 88.299 14.3833C89.1212 13.9056 90.0267 13.6667 91.0156 13.6667C92.0156 13.6667 92.9212 13.9056 93.7323 14.3833C94.5545 14.8611 95.2045 15.5056 95.6823 16.3167C96.1712 17.1167 96.4156 18.0111 96.4156 19C96.4156 19.9778 96.1712 20.8722 95.6823 21.6833C95.2045 22.4944 94.5545 23.1389 93.7323 23.6167C92.9212 24.0944 92.0156 24.3333 91.0156 24.3333ZM91.0156 21.7333C91.5156 21.7333 91.9656 21.6111 92.3656 21.3667C92.7767 21.1222 93.099 20.7944 93.3323 20.3833C93.5767 19.9611 93.699 19.5 93.699 19C93.699 18.4889 93.5767 18.0278 93.3323 17.6167C93.099 17.2056 92.7767 16.8778 92.3656 16.6333C91.9656 16.3889 91.5156 16.2667 91.0156 16.2667C90.5156 16.2667 90.0601 16.3889 89.649 16.6333C89.249 16.8778 88.9267 17.2056 88.6823 17.6167C88.449 18.0278 88.3323 18.4889 88.3323 19C88.3323 19.5 88.449 19.9611 88.6823 20.3833C88.9267 20.7944 89.249 21.1222 89.649 21.3667C90.0601 21.6111 90.5156 21.7333 91.0156 21.7333Z" fill="white"/>
<path d="M43.4444 24.2401C42.2616 20.7425 40.2228 17.5962 37.5136 15.0876C34.8044 12.5791 31.5109 10.7879 27.9328 9.87719C24.3546 8.96645 20.6055 8.96507 17.0267 9.87317C13.4479 10.7813 10.153 12.57 7.44201 15.0765C4.73098 17.5831 2.68988 20.7279 1.50451 24.2246C0.319128 27.7214 0.0271087 31.4591 0.655029 35.0976C1.28295 38.736 2.81087 42.1596 5.09971 45.0568C7.38856 47.954 10.3656 50.2327 13.76 51.6856L15.7064 47.1384C13.0704 46.0101 10.7584 44.2404 8.98094 41.9905C7.20346 39.7406 6.0169 37.0819 5.52927 34.2564C5.04164 31.4308 5.26842 28.5282 6.18896 25.8126C7.10951 23.0971 8.69458 20.6549 10.7999 18.7084C12.9053 16.7618 15.464 15.3727 18.2432 14.6675C21.0225 13.9623 23.934 13.9634 26.7127 14.6706C29.4914 15.3779 32.0491 16.7689 34.153 18.717C36.2569 20.6651 37.8402 23.1084 38.7587 25.8246L43.4444 24.2401Z" fill="white"/>
<line x1="18.9893" y1="31.32" x2="50.3325" y2="31.32" stroke="white" stroke-width="5"/>
<path d="M39.3873 40.7852H21.7256V53.4717" stroke="white" stroke-width="5"/>
<path d="M46 53.3333C45.0111 53.3333 44.1056 53.0944 43.2833 52.6167C42.4611 52.1389 41.8056 51.4944 41.3167 50.6833C40.8389 49.8722 40.6 48.9778 40.6 48C40.6 47.0111 40.8389 46.1167 41.3167 45.3167C41.8056 44.5056 42.4611 43.8611 43.2833 43.3833C44.1056 42.9056 45.0111 42.6667 46 42.6667C47 42.6667 47.9056 42.9056 48.7167 43.3833C49.5389 43.8611 50.1889 44.5056 50.6667 45.3167C51.1556 46.1167 51.4 47.0111 51.4 48C51.4 48.9778 51.1556 49.8722 50.6667 50.6833C50.1889 51.4944 49.5389 52.1389 48.7167 52.6167C47.9056 53.0944 47 53.3333 46 53.3333ZM46 50.7333C46.5 50.7333 46.95 50.6111 47.35 50.3667C47.7611 50.1222 48.0833 49.7944 48.3167 49.3833C48.5611 48.9611 48.6833 48.5 48.6833 48C48.6833 47.4889 48.5611 47.0278 48.3167 46.6167C48.0833 46.2056 47.7611 45.8778 47.35 45.6333C46.95 45.3889 46.5 45.2667 46 45.2667C45.5 45.2667 45.0444 45.3889 44.6333 45.6333C44.2333 45.8778 43.9111 46.2056 43.6667 46.6167C43.4333 47.0278 43.3167 47.4889 43.3167 48C43.3167 48.5 43.4333 48.9611 43.6667 49.3833C43.9111 49.7944 44.2333 50.1222 44.6333 50.3667C45.0444 50.6111 45.5 50.7333 46 50.7333ZM53.1 53V43H55.7V44.7167C56.0444 44.1389 56.4778 43.6944 57 43.3833C57.5333 43.0611 58.1556 42.9 58.8667 42.9L59.5 45.4667C59.2889 45.4 59.05 45.3667 58.7833 45.3667C57.95 45.3667 57.2778 45.6389 56.7667 46.1833C56.2556 46.7167 56 47.4833 56 48.4833V53H53.1ZM64.9359 53.2667C64.0137 53.2667 63.1748 53.0278 62.4193 52.55C61.6637 52.0722 61.0582 51.4389 60.6026 50.65C60.1582 49.85 59.9359 48.9667 59.9359 48C59.9359 47.0333 60.1582 46.15 60.6026 45.35C61.0582 44.55 61.6637 43.9167 62.4193 43.45C63.1748 42.9722 64.0137 42.7333 64.9359 42.7333C65.5804 42.7333 66.1693 42.85 66.7026 43.0833C67.2359 43.3056 67.6915 43.6167 68.0693 44.0167V43H70.5693V53H68.0693V51.9833C67.6915 52.3833 67.2359 52.7 66.7026 52.9333C66.1693 53.1556 65.5804 53.2667 64.9359 53.2667ZM65.2859 50.7167C65.7748 50.7167 66.2193 50.5944 66.6193 50.35C67.0193 50.1056 67.3359 49.7778 67.5693 49.3667C67.8137 48.9556 67.9359 48.5 67.9359 48C67.9359 47.5 67.8137 47.0444 67.5693 46.6333C67.3359 46.2222 67.0193 45.8944 66.6193 45.65C66.2193 45.4056 65.7748 45.2833 65.2859 45.2833C64.797 45.2833 64.3526 45.4056 63.9526 45.65C63.5526 45.8944 63.2304 46.2222 62.9859 46.6333C62.7526 47.0444 62.6359 47.5 62.6359 48C62.6359 48.5 62.7526 48.9556 62.9859 49.3667C63.2304 49.7778 63.5526 50.1056 63.9526 50.35C64.3526 50.5944 64.797 50.7167 65.2859 50.7167Z" fill="white"/>
</svg>
